<svg xmlns="http://www.w3.org/2000/svg" width="46.828" height="39.092"><g data-name="Group 3"><path data-name="Fill 1 Copy" d="M2.674 17.489c.645-1.596 3.309-3.316 5.887-4.979.536-.346 1.09-.704 1.612-1.053a51.445 51.445 0 004.157-3.29c.302-.257.498-.43.53-.442.1-.05.141.013.18.072s.071.11.15.082a1.1 1.1 0 01.131-.033.655.655 0 00.197-.063.389.389 0 00.144-.184l.015-.035.012-.032a.374.374 0 01.219-.193.82.82 0 00.21-.136.064.064 0 00.017-.022.184.184 0 00.006-.075.177.177 0 01.006-.076.057.057 0 01.03-.032 1.442 1.442 0 00.656-.46c.067-.069.134-.139.205-.202.167-.148.332-.303.493-.454.112-.105.225-.21.342-.314.02-.018.063-.06.106-.032s.064.063.05.099a.453.453 0 01-.168.148.6.6 0 00-.148.113c-.021.028-.05.062-.08.098a1.181 1.181 0 00-.18.25c-.016.039-.016.066.003.084a.035.035 0 00.026.01 1.737 1.737 0 00.518-.46 5.426 5.426 0 01.452-.448 2 2 0 00.334-.425c.145-.237.29-.455.45-.48a.2.2 0 01.162.047c.037.028.043.067.021.122a1.664 1.664 0 01-.357.408l-.012.012a1.6 1.6 0 00-.337.378.074.074 0 00.005.083.119.119 0 00.09.044c.129-.004.302-.212.496-.456.092-.113.186-.229.288-.34.022-.022.058-.02.092-.02s.056.002.071-.011a.108.108 0 00.029-.041.3.3 0 00.016-.102.313.313 0 01.016-.101.083.083 0 01.028-.034.071.071 0 01.07.003.28.28 0 01.114.25.281.281 0 01-.019.07 1.049 1.049 0 01-.365.37l-.017.013a1 1 0 00-.337.327.184.184 0 00.041.2.088.088 0 00.074.038c.08-.006.168-.148.245-.285s.15-.254.212-.256a.077.077 0 01.063.047.214.214 0 01.025.204 1.067 1.067 0 01-.429.366l-.015.01a1.129 1.129 0 00-.456.406.268.268 0 00-.02.12.044.044 0 00.038.036c.035.001.061-.05.089-.104s.06-.117.105-.13a.082.082 0 01.067.015.076.076 0 01.034.102.4.4 0 01-.068.097.308.308 0 00-.04.053.647.647 0 01-.058.094.489.489 0 00-.057.092.1.1 0 00.013.113c.017.022.023.018.032.013a.051.051 0 01.038-.008.126.126 0 01.076.079.18.18 0 01.004.11.04.04 0 01-.008.017.771.771 0 01-.07.05.321.321 0 00-.112.1.657.657 0 00-.032.078c-.02.051-.037.107-.053.16l-.002.004c-.02.05-.032.103-.05.148a.261.261 0 01-.169.185c-.096.024-.16-.05-.224-.121a.266.266 0 00-.13-.102.136.136 0 00-.144.09.114.114 0 00.028.135c.03.024.067.015.105.007a.117.117 0 01.083-.002c.027.01.033.031.023.055a.376.376 0 01-.058.086l-.028.035a.752.752 0 00-.116.18.594.594 0 00-.041.2c-.001.031.023.056.05.083a.229.229 0 01.05.063l.003.01c.016.035.05.108.029.158a.082.082 0 01-.062.047c-.044.01-.073-.04-.101-.092s-.062-.113-.124-.11-.088.061-.11.113l-.03.074a.96.96 0 01-.316.39.471.471 0 00-.17.22 1.482 1.482 0 00-.074.294c-.01.06-.022.123-.037.18a.361.361 0 00-.006.077.325.325 0 01-.012.103.054.054 0 01-.06.037c-.069-.006-.078-.094-.09-.186s-.026-.203-.106-.217c-.221-.04-.319.127-.38.278-.021.052-.042.105-.054.15s-.032.096-.05.138a.381.381 0 01-.067.119.281.281 0 00-.055.085.616.616 0 00.04.436.519.519 0 00.036.07c.035.06.074.129.052.185a.1.1 0 01-.027.037c-.045.04-.091-.001-.136-.04s-.071-.062-.097-.039a.182.182 0 00-.046.068.374.374 0 00.018.286.238.238 0 00.143.132c.145.041.217-.11.286-.255.06-.125.117-.244.217-.249a.053.053 0 01.05.042.194.194 0 01-.015.102.646.646 0 01-.167.202 1.136 1.136 0 00-.116.12c-.078.1-.161.198-.241.295-.112.135-.228.273-.333.416a9.525 9.525 0 01-1.082 1.176 3.576 3.576 0 00-.8.956.246.246 0 00.013.264c.27.331 2.226.173 3.276.088.25-.02.446-.035.556-.04a39.135 39.135 0 018.942.609l.025.01a.154.154 0 01.054.027l.027.023c.082.065.174.143.148.244-.006.015-.037.015-.072.017l-.026.001c-.047.003-.096.01-.111.047a.079.079 0 00-.003.042.1.1 0 00.04.068c.056.038.165.015.269-.008.13-.028.265-.057.301.034a.061.061 0 01.006.045c-.016.039-.107.027-.195.015s-.185-.025-.203.02a.051.051 0 00-.003.025c.01.076.096.077.173.077a.451.451 0 01.072.004c.157.028.179.061.215.117a.48.48 0 00.106.12 1 1 0 00.646.154 2.059 2.059 0 01.361.024.394.394 0 01.197.113.392.392 0 00.334.127.125.125 0 00.098-.068.193.193 0 00-.033-.166c-.062-.101-.198-.092-.33-.084a.875.875 0 01-.197-.001l-.01-.005a.182.182 0 01-.099-.04l-.02-.021c-.037-.038-.076-.08-.064-.125v.001c.019-.048.097-.068.142-.064a2.389 2.389 0 01.264.06l.146.036a.823.823 0 00.138.013.583.583 0 01.305.074.228.228 0 01.111.153.11.11 0 01-.008.061.439.439 0 01-.029.054.466.466 0 00-.033.061.1.1 0 00-.008.058.174.174 0 00.093.129.441.441 0 00.351-.038.35.35 0 01.117-.021c.07-.005.142-.01.164-.062a.086.086 0 00.009-.023c.005-.05-.066-.062-.14-.075a.262.262 0 01-.163-.066.073.073 0 01-.01-.057.392.392 0 01.022-.079.336.336 0 01.2-.189 2.167 2.167 0 011.336.236c.067.027.097.115.133.204.04.108.083.219.191.238.021.008.043-.02.064-.045.036-.041.078-.088.147-.037a.147.147 0 01.05.141l-.002.006a.176.176 0 01-.101.08c-.03.015-.058.026-.066.046l-.004.01a.663.663 0 00.083.68c.057.06.184.053.286.048l.006.002a.248.248 0 00.178-.118l.004-.01a.087.087 0 00.001-.072.2.2 0 00-.131-.076l-.02-.008a.16.16 0 01-.104-.05.073.073 0 01-.005-.064l.004-.008c.165-.054.346-.113.553-.177a.07.07 0 01.058.013 1.231 1.231 0 00.254.17.8.8 0 01.363.314.388.388 0 00.248.14.429.429 0 00.309-.012.091.091 0 00.025-.036.075.075 0 00-.005-.072.507.507 0 00-.23-.135c-.093-.038-.173-.07-.196-.12a.071.071 0 01.002-.057.177.177 0 01.03-.047.124.124 0 01.1-.031.129.129 0 01.083.027.536.536 0 00.388.19.916.916 0 01.219.06 1.249 1.249 0 00.597.15c.095-.004.203-.026.229-.091a.116.116 0 00-.024-.108c-.043-.063-.137-.07-.236-.08s-.232-.019-.275-.118a.12.12 0 01-.006-.09c.047-.118.328-.114.435-.08a.449.449 0 01.227.238c.065.107.118.206.226.224a1.751 1.751 0 00.894-.116.168.168 0 01.134.015.2.2 0 01.097.131.146.146 0 01-.004.092.232.232 0 01-.135.106.163.163 0 00-.034.022c-.026.02-.056.042-.094.028s-.06-.07-.074-.12a.2.2 0 00-.05-.108l-.02-.008a.009.009 0 00-.002.007.128.128 0 00-.005.03l-.002.021a.344.344 0 01-.022.088.364.364 0 01-.125.154c-.047.036-.124.003-.204-.029-.093-.037-.186-.075-.222.001l-.002.006c-.013.033.025.054.051.068a.168.168 0 01.02.008c.059.04.152.123.11.227l-.01.024c-.05.082-.12.051-.194.02l-.045-.019-.113-.046a.5.5 0 00-.365-.075 1.032 1.032 0 01-.73.019c-.028-.011-.057-.023-.088-.029-.13-.046-.263-.092-.371-.014l-.024.017a.714.714 0 00-.26.257.186.186 0 00-.005.132c.017.05.071.05.124.05a.139.139 0 01.1.022c.013.014.018.025.015.033s-.05.022-.11.03c-.115.016-.286.04-.377.163l-.002.005c-.007.017.014.039.035.06s.046.05.036.075l-.001.002c-.051.087-.19.016-.324-.05-.106-.055-.217-.11-.28-.085a.08.08 0 00-.046.047.221.221 0 00-.014.079.3.3 0 00.057.125c.036.055.073.11.06.145-.02.048-.14.045-.378-.012-.02-.009-.043-.01-.067-.016-.144-.03-.306-.067-.354-.19a.179.179 0 01-.015-.134c.032-.078.153-.094.327-.093a.573.573 0 01.11.018c.091.02.198.044.223-.018a.125.125 0 00.004-.064c-.014-.089-.092-.145-.178-.196a.694.694 0 01-.134-.103c-.011-.012-.007-.037-.004-.064s.011-.086-.029-.104-.083.019-.12.059-.072.079-.12.079-.064-.035-.096-.07-.079-.09-.132-.071a.043.043 0 00-.027.026.1.1 0 00.002.065.628.628 0 00.09.145.285.285 0 00.042.037c.038.03.082.065.068.099a.054.054 0 01-.013.018c-.024.022-.067.01-.127-.036a.287.287 0 00-.3-.076.239.239 0 01-.14-.023c-.073-.03-.146-.06-.218-.082a3.494 3.494 0 00-.427-.144c-.118-.029-.295-.071-.386.027a.131.131 0 00-.024.038.094.094 0 00.018.099.2.2 0 00.191.06.373.373 0 00.105-.048c.063-.035.127-.073.195-.041.091.042.174.168.135.264l-.009.023c-.047.074-.156.045-.258.01s-.192-.06-.22.01-.005.114.036.177a1.057 1.057 0 01.114.19c.045.098.16.084.27.071a.414.414 0 01.196.005 2.147 2.147 0 00.57.16.225.225 0 01.174.162.267.267 0 00.095.13.783.783 0 00.644.14.751.751 0 01.257-.014c.027.004.048.039.07.076a.32.32 0 00.054.072l.029.026a.346.346 0 00.178.109l.011.004a2.154 2.154 0 00.484-.005.676.676 0 01.44.086.1.1 0 01.043.064.067.067 0 01-.003.031c-.019.047-.109.022-.168.004a.4.4 0 00-.047-.012 5.59 5.59 0 00-.58-.037 3.389 3.389 0 01-1.114-.136 2.537 2.537 0 00-.668-.317l-.11-.045a.367.367 0 01-.052-.035c-.052-.04-.106-.08-.184-.012-.019.016-.063.007-.099 0l-.016-.007a1.834 1.834 0 01-.288-.089.839.839 0 00-.573-.076.123.123 0 00-.06.075l-.02.051-.02.05c-.02.05-.05.098-.113.083s-.047-.063-.04-.117.012-.086-.014-.108-.07 0-.117.021-.113.045-.155.027a.079.079 0 01-.041-.048.05.05 0 01-.001-.037c.012-.03.059-.044.097-.056s.084-.025.094-.049a.033.033 0 000-.022.626.626 0 00-.464-.382 1.334 1.334 0 00-1.129.181.123.123 0 00-.032.046.4.4 0 00.034.252.4.4 0 01.035.247.114.114 0 01-.034.05c-.107.085-.282.028-.452-.028s-.334-.108-.382.012a.186.186 0 00-.013.033.125.125 0 00.024.118c.087.095.347.068.473.056a4.42 4.42 0 01.172-.014 1.494 1.494 0 00.636-.144c.03-.016.086.007.135.028.012.005.022.01.033.013a.4.4 0 01.094.063c.063.05.127.102.206.07a.086.086 0 00.048-.05.416.416 0 00.017-.138.428.428 0 01.017-.145.1.1 0 01.07-.062c.158-.044.276.072.402.192a.772.772 0 00.296.206c.27.074.73.179.778.061a.056.056 0 00.008-.02c0-.055-.056-.06-.11-.067a.18.18 0 01-.08-.02.519.519 0 00-.046-.03c-.054-.031-.116-.067-.1-.124a.612.612 0 01.025-.064c.021-.053.045-.08.072-.079.06-.006.13.099.22.231a2.228 2.228 0 00.21.28c.058.062.165.032.251.008l.032-.009c.223-.06.372-.065.454-.007a.167.167 0 01.072.12.111.111 0 01-.004.06c-.033.081-.185.067-.345.053l-.013-.005c-.154-.014-.33-.026-.367.067a.117.117 0 00-.008.044c0 .099.12.106.248.114s.273.016.27.135a.22.22 0 01-.018.077.56.56 0 01-.098.143.828.828 0 00-.067.088.184.184 0 01-.145.108.188.188 0 01-.145-.115c-.176-.308-.293-.342-.592-.175-.05.027-.1.053-.15.077l-.09.046a.62.62 0 01-.086.033.257.257 0 00-.145.093l-.01.023a.07.07 0 000 .06c.024.046.105.063.193.079.112.024.228.049.219.138a.076.076 0 01-.008.02c-.022.054-.105.055-.15.056l-.007-.003-.1.003a1.575 1.575 0 01-.614-.065.4.4 0 00-.215.022c-.12.03-.235.064-.289-.035a.09.09 0 01-.01-.078.25.25 0 01.114-.093l.043-.025a.43.43 0 00.192-.208l.008-.02a.138.138 0 00-.018-.135c-.091-.12-.39-.149-.568-.139a.149.149 0 01-.112-.032c-.11-.145-.242-.127-.395-.107l-.035.005c-.24.03-.25-.011-.279-.135a.922.922 0 00-.092-.253c-.105-.194-.425-.107-.616-.055a.344.344 0 01-.299-.032.149.149 0 01-.053-.136.087.087 0 01.009-.022.2.2 0 01.063-.073.208.208 0 00.06-.068l.004-.007c.012-.05-.064-.109-.206-.155-.185-.06-.47-.083-.526.055a.157.157 0 00-.005.088.047.047 0 00.02.033c.026.016.07.004.111-.01s.112-.028.136.007a.024.024 0 01.001.026.16.16 0 01-.018.03.2.2 0 00-.025.04.049.049 0 00-.001.042c.013.025.053.022.092.024s.108 0 .12.049a.052.052 0 01-.003.028c-.015.037-.076.048-.098.052-.23.037-.375-.025-.432-.189a.154.154 0 01-.006-.025.088.088 0 00-.035-.067.3.3 0 00-.255.017.092.092 0 00-.046.052c-.056.122-.114.186-.178.194s-.128-.037-.205-.135c-.059-.074-.156-.197-.237-.189a.1.1 0 00-.076.063l-.007.019a.112.112 0 00-.002.09c.03.072.144.117.258.162a.821.821 0 01.18.088.648.648 0 00.242.08c.11.023.212.044.247.1a.089.089 0 01.01.073l-.01.026a.153.153 0 01-.088.087c-.168.07-.503-.074-.724-.169l-.022-.009c-.175-.07-.337-.145-.336-.393.002-.185-.17-.216-.273-.218a.866.866 0 01-.13-.016.893.893 0 00-.126-.017.616.616 0 00-.22.028.03.03 0 00-.014.018c-.012.03-.02.1-.005.106a.4.4 0 00.203.082c.208 0 .325.03.367.094a.129.129 0 01.002.125.363.363 0 01-.02.052.135.135 0 01-.086.073c-.07.015-.156-.043-.257-.112a.953.953 0 00-.354-.175c-.05-.01-.082.033-.112.075s-.049.069-.083.067c-.065-.003-.102-.014-.122-.042s-.012-.053.009-.104a.591.591 0 01.05-.103l.006-.014a1.518 1.518 0 00.067-.14.781.781 0 00.034-.102c.01-.026-.015-.053-.035-.077a.318.318 0 01-.022-.027c-.061-.092-.118-.136-.174-.134s-.105.044-.16.13a.37.37 0 01-.08.081.317.317 0 00-.1.112.132.132 0 00-.01.059c.005.066.075.11.153.157a.322.322 0 01.181.192.126.126 0 01-.005.068c-.033.083-.179.085-.307.092l-.006-.003c-.137.002-.266 0-.297.08a.1.1 0 00-.007.047c.003.028.034.038.063.047a.17.17 0 01.046.018.141.141 0 00.038.016.131.131 0 01.082.044.059.059 0 01.004.047l-.007.018c-.048.119-.214.088-.373.058s-.3-.058-.34.041l-.003.006a.051.051 0 00.001.049c.026.038.118.04.199.042.033 0 .065.002.09.005l.084.01a.433.433 0 01.393.19.181.181 0 00.097.056.245.245 0 01.125.065.153.153 0 01.02.157.185.185 0 01-.136.114.292.292 0 01-.172-.054.342.342 0 00-.078-.031 1.363 1.363 0 00-.477-.03 1.254 1.254 0 00-.33.107l-.057.024a1.24 1.24 0 01-.106.038.755.755 0 00-.315.169.148.148 0 00-.007.04l-.002.021a.335.335 0 01-.018.083.1.1 0 01-.09.072.524.524 0 01-.35-.133.392.392 0 00-.302-.108c-.09.014-.19.02-.242-.036a.063.063 0 01-.009-.064l.004-.01c.024-.037.07-.047.12-.06a.324.324 0 00.084-.024l.016-.01a.32.32 0 00.168-.148.23.23 0 00.013-.103.217.217 0 01.018-.09.163.163 0 01.076-.096.3.3 0 01.206.005.105.105 0 01.054.066.062.062 0 01-.001.042c-.015.036-.062.06-.109.082-.045.022-.089.044-.1.073a.05.05 0 00.001.041.173.173 0 00.118.095.539.539 0 00.395-.094.353.353 0 00.114-.15.234.234 0 00-.008-.219c-.047-.067-.145-.053-.25-.04a.7.7 0 01-.174.01.385.385 0 01-.127-.052c-.022-.008-.04-.021-.06-.03s-.038-.016-.056-.029a.269.269 0 00-.13-.047c-.146.005-.188-.07-.255-.17a.579.579 0 00-.222-.234c-.097-.054-.199.036-.275.104l-.034.03a.343.343 0 01-.394.042.605.605 0 00-.459-.042.264.264 0 00-.156.146l-.013.032a.1.1 0 00.012.096c.049.057.184.041.329.025.18-.02.366-.04.39.081a.069.069 0 01-.004.04.134.134 0 01-.094.07c-.11.008-.215.027-.32.045a1.741 1.741 0 01-.632.03.65.65 0 00-.282.036 1.357 1.357 0 01-.13.031c-.124.022-.343.048-.418-.033a.109.109 0 01-.013-.113l.007-.016c.059-.145.253-.141.454-.115l.079.011c.164.023.306.043.336-.031a.082.082 0 00.009-.022.087.087 0 00-.038-.066.444.444 0 00-.344-.085l-.066.014a1.431 1.431 0 01-.498.05.7.7 0 00-.585.222 1.04 1.04 0 00-.057.11.914.914 0 01-.086.152.252.252 0 01-.296.086c-.066-.018-.064-.053-.062-.097a.172.172 0 00-.026-.119c-.104-.15-.313-.09-.497-.039a1.566 1.566 0 01-.17.04 2.376 2.376 0 00-.417.119c-.07.025-.141.05-.212.072a.59.59 0 00-.387.315.363.363 0 00-.026.154c.003.055.055.088.104.12s.086.054.086.095a.1.1 0 01-.007.036.309.309 0 01-.157.121.312.312 0 00-.158.124.106.106 0 00-.007.049c.007.077.078.102.141.124a.218.218 0 01.098.051c.039.05.01.173-.026.263a.4.4 0 01-.13.19.183.183 0 01-.043.014c-.026.005-.053.01-.062.032-.053.22.153.393.354.559a1.8 1.8 0 01.269.255c.102.131.21.26.314.387.148.18.302.365.442.556.277.38.542.777.799 1.161l.123.184c.111.165.24.347.362.524a7.822 7.822 0 01.47.706.157.157 0 01.012.106.043.043 0 01-.032.027c-.087.02-.27-.26-.463-.556-.208-.318-.422-.647-.55-.654a.064.064 0 00-.055.024l-.006.014c-.013.033.021.07.063.111a.322.322 0 01.058.073c.052.11.098.226.142.338a2.894 2.894 0 00.325.655.228.228 0 01.042.195.1.1 0 01-.079.061c-.132.027-.172-.077-.219-.196a.4.4 0 00-.171-.243.6.6 0 01-.192-.22c-.062-.096-.121-.188-.186-.2a.087.087 0 00-.07.022.268.268 0 00-.087.11c-.086.21.191.496.46.773a2.988 2.988 0 01.37.422 7.96 7.96 0 001.22 1.519c.03.03.071.061.115.096.13.103.276.22.239.312a.12.12 0 01-.027.04.041.041 0 01-.032.012c-.086-.003-.266-.215-.44-.418s-.37-.435-.469-.44a.046.046 0 00-.036.015.061.061 0 00-.008.021.112.112 0 00.006.077l-.002.006a.094.094 0 01.007.059.033.033 0 01-.006.015c-.037.03-.1.007-.144-.021s-.044-.08-.053-.137-.025-.117-.055-.13a.051.051 0 00-.046.004.179.179 0 00-.093.092c-.06.147.11.381.301.613l.095.112c.145.174.276.328.252.387a.035.035 0 01-.01.015c-.042.03-.173-.108-.292-.238-.061-.064-.124-.131-.173-.177a7.408 7.408 0 00-.29-.225c-.298-.229-.744-.577-.866-.708-.015-.018-.05-.06-.084-.058a.054.054 0 00-.042.03l-.012.03c-.05.126.094.226.234.322a.936.936 0 01.162.13c.07.08.138.164.207.242a7.151 7.151 0 00.617.667c.141.129.507.601.445.755a.071.071 0 01-.015.023.041.041 0 01-.038.01 1.15 1.15 0 01-.424-.407 1.883 1.883 0 00-.22-.312c-.042-.05-.091-.1-.14-.146a1.442 1.442 0 01-.207-.237 1.558 1.558 0 00-.745-.638.1.1 0 00-.097.062.053.053 0 000 .045 2.474 2.474 0 00.537.582c.22.196.41.362.366.471a.1.1 0 01-.01.023.148.148 0 01-.101.053.13.13 0 00-.088.042.139.139 0 00-.013.033.244.244 0 00.024.176l.004.01a.271.271 0 01.018.205l-.005.012a.037.037 0 01-.026.024c-.035.007-.09-.044-.143-.092s-.112-.103-.15-.095a.045.045 0 00-.03.03.177.177 0 00-.01.044c-.005.046.04.086.089.129s.116.105.09.17l-.003.009a.081.081 0 01-.059.05c-.065.008-.15-.08-.21-.146l-.04-.042a4.691 4.691 0 01-.295-.37 30.83 30.83 0 00-8.99-8.08 45.205 45.205 0 00-1.038-.583c-1.965-1.08-4.656-2.56-4.438-4.018a2.055 2.055 0 01.095-.464zm15.42-11.094c.014-.036.001-.066-.04-.091a.112.112 0 00-.118.023 1.159 1.159 0 01-.148.138.847.847 0 00-.18.18l-.005.011a.325.325 0 00-.039.065.064.064 0 00-.003.05.05.05 0 00.032.025c.136.045.236-.08.325-.192a1.012 1.012 0 01.08-.095l.01-.01a.366.366 0 00.086-.105zm-1.918 5.117c-.003.008-.005.013-.013.013a.393.393 0 00-.307.265.656.656 0 01-.132.19.119.119 0 00-.033.045.128.128 0 00.016.127.1.1 0 00.095.031.286.286 0 00.166-.142.641.641 0 01.075-.096.738.738 0 01.098-.074.4.4 0 00.163-.165l.003-.009a.385.385 0 00.03-.286.1.1 0 00-.066-.05c-.03-.012-.054.006-.068.043a.35.35 0 00-.016.057l-.002.005a.258.258 0 01-.008.045zm2.495-5.654c.018-.046.02-.078.005-.093a.13.13 0 00-.102-.042c-.087.005-.167.107-.22.174l-.015.02a.825.825 0 01-.093.09.489.489 0 00-.131.149.088.088 0 00.006.084.1.1 0 00.104.052.806.806 0 00.444-.43zm.431 1.113c.014-.035.017-.09-.05-.141-.036-.028-.069.016-.106.065s-.078.104-.128.077-.04-.1-.022-.157a.146.146 0 00.012-.092.343.343 0 00-.16-.157.158.158 0 00-.147.025.234.234 0 00-.014.034c-.059.146.045.32.153.423a.289.289 0 00.266.064.277.277 0 00.2-.135zm-1.84 22.993c.017-.04-.005-.082-.028-.125a1.288 1.288 0 01-.023-.045.6.6 0 00-.326-.31.159.159 0 00-.122-.003.04.04 0 00-.018.02c-.033.082.162.334.328.456.053.038.124.078.158.048a.1.1 0 00.031-.04zm.442.432c.016-.038-.008-.1-.063-.172-.076-.098-.202-.196-.274-.186a.051.051 0 00-.042.033c-.041.103.07.193.17.27l.058.048a.172.172 0 00.117.036.045.045 0 00.033-.022l.002-.006zm4.876-10.304a.046.046 0 000-.036c-.059-.15-.27-.204-.446-.205-.199-.002-.44.067-.502.22a.2.2 0 00-.015.084.248.248 0 00.151.201 2.543 2.543 0 001.22.119.059.059 0 00.025-.029.042.042 0 000-.034.024.024 0 00-.017-.012.978.978 0 00-.16-.02 1.159 1.159 0 01-.135-.013.562.562 0 00-.105-.007c-.093 0-.19.001-.213-.086a.06.06 0 01.001-.04.2.2 0 01.099-.077c.05-.016.089-.036.1-.063zm4.045-1.762a.133.133 0 01-.08.086c-.057.018-.111-.025-.17-.068s-.116-.094-.183-.08a.529.529 0 01-.28-.026c-.102-.03-.193-.057-.253.033a.123.123 0 00-.01.026.081.081 0 00.006.076.416.416 0 00.272.127l.136.015.163.017a.183.183 0 01.151.108.477.477 0 00.11.128c.119.093.26.039.409-.018a.61.61 0 01.405-.06 1.006 1.006 0 00.296.022c.147.059.249.064.321.005a.211.211 0 01.158.074.149.149 0 01.007.128l-.002.004c-.014.035-.06.033-.114.029s-.103-.012-.115.018l-.006.014a.282.282 0 00.261.274c.182.038.414-.018.471-.159a.176.176 0 00.013-.081.062.062 0 00-.023-.046c-.036-.028-.109-.018-.18-.007s-.146.021-.18-.009a.065.065 0 01-.02-.052.111.111 0 01.007-.04c.023-.059.102-.045.186-.033s.158.03.187-.025l.006-.015c.049-.121-.063-.26-.145-.36l-.018-.02a1.029 1.029 0 00-.758-.35.457.457 0 00-.376.173.134.134 0 00-.018.03.065.065 0 00.006.064.43.43 0 00.294.09.927.927 0 01.296.044.223.223 0 01.12.096.073.073 0 01.001.059.252.252 0 01-.065.097 1.87 1.87 0 00-.276-.003h-.043a2.716 2.716 0 01-.35-.2 2.226 2.226 0 00-.31-.176.078.078 0 01-.023-.076l.004-.01c.004-.012.022-.008.037-.004a.088.088 0 00.023.003.063.063 0 00.028-.008l.008-.003c.009-.003.023-.007.027-.018a.022.022 0 00-.001-.016c-.04-.102-.202-.061-.31-.036l-.042.01c-.012.003-.022.014-.03.036l-.02.047a.616.616 0 01-.006.068zm3.407-1.31l.001-.005c.043-.105-.023-.209-.166-.272s-.364-.065-.421.046l-.006.014a.132.132 0 00.002.11.384.384 0 00.225.171c.147.05.32.048.365-.064zm.054 3.211a.141.141 0 00.001-.114c-.042-.093-.19-.146-.308-.189l-.029-.012a1.4 1.4 0 00-.776-.017.133.133 0 00-.097.064.073.073 0 00-.003.042c.02.103.13.126.238.149a.353.353 0 01.173.07.865.865 0 00.512.206.267.267 0 00.198-.068.4.4 0 00.09-.13zm1.425-3.36a.126.126 0 00.008-.08.52.52 0 00-.278-.314.256.256 0 00-.223-.008c-.152.08-.188.13-.205.17a.31.31 0 00-.015.063l-.003.007a.407.407 0 01-.024.085.483.483 0 01-.059.103.1.1 0 00-.009.022.223.223 0 00.054.201.1.1 0 00.074.017c.037 0 .074 0 .088.036a.076.076 0 01.002.063.194.194 0 01-.044.06l-.002.005a.156.156 0 00-.034.04l-.003.008a.636.636 0 00.157.413.161.161 0 00.124.04.234.234 0 00.193-.17c.013-.034.024-.06.043-.062s.038.015.07.055.013.113-.01.181-.051.159.009.206a.364.364 0 00.285.037.2.2 0 00.14-.106.148.148 0 00.013-.03c.008-.054-.044-.063-.086-.07a.1.1 0 01-.049-.02l-.027-.028a.348.348 0 01-.101-.148l.003-.009a.482.482 0 01.151-.107.276.276 0 01.096-.024c.062-.008.125-.016.146-.07l.007-.017a.116.116 0 00-.037-.123.348.348 0 00-.31-.017c-.087.036-.13-.02-.18-.086l-.01-.012a.148.148 0 01-.027-.159.48.48 0 01.045-.079.475.475 0 00.028-.074zm.516-.025a.153.153 0 00-.018-.135.141.141 0 00-.102-.072.2.2 0 00-.183.124.127.127 0 00.005.11.133.133 0 00.121.069.206.206 0 00.171-.084zm-15.199-7.03a.118.118 0 01.065-.073.154.154 0 01.147.05.249.249 0 01.088.228l-.004.01a.17.17 0 01-.11.091.14.14 0 01-.122-.016.261.261 0 01-.064-.29zm1.77-1.788c.055-.134.164-.249.285-.203a.081.081 0 01.047.044.211.211 0 01-.019.15.6.6 0 01-.039.079.3.3 0 01-.254.15.061.061 0 01-.054-.046.388.388 0 01.034-.174zm.845-1.586c.117-.29.431-.557.66-.467a.082.082 0 01.047.044.185.185 0 01-.015.137 1.637 1.637 0 01-.532.601l-.008.004a.482.482 0 01-.09.042c-.037.01-.06.004-.073-.017a.406.406 0 01.01-.344zm.805-1.873c.052-.128.175-.244.274-.212a.108.108 0 01.068.056.173.173 0 01-.01.134.414.414 0 01-.255.246.077.077 0 01-.078-.032.2.2 0 01.001-.192zm-3.272 16.515c.03-.071.148-.098.24-.076s.117.064.112.125a.117.117 0 01-.008.034c-.027.069-.116.09-.19.082a.167.167 0 01-.16-.113.1.1 0 01.007-.053zm.27.325a.074.074 0 01.066-.048 1.372 1.372 0 01.36-.003 3.35 3.35 0 00.344.02c.04.001.1-.003.156-.007l.071-.005c.025-.001.056-.006.088-.012.086-.013.187-.032.232.012a.1.1 0 01.028.082.154.154 0 01-.012.052.274.274 0 01-.162.135.686.686 0 01-.473.016.124.124 0 00-.13.007.353.353 0 01-.04.02 1.037 1.037 0 00-.11.053c-.096.052-.205.111-.286.08a.167.167 0 01-.091-.113c-.021-.07-.07-.214-.04-.289zm-.298 1.007c.02-.052.093-.078.147-.097l.041-.017c.088-.042.174-.085.259-.128a3.5 3.5 0 011.1-.403.02.02 0 01.016.007.069.069 0 01.018.048l-.005.011a.121.121 0 01-.059.05.128.128 0 00-.058.05.042.042 0 00-.007.016c.002.031.037.045.075.06s.082.032.086.07a.052.052 0 01-.003.023.1.1 0 01-.06.047 6.015 6.015 0 01-1.392.359l-.02.005c-.046.011-.121.033-.143-.046a.091.091 0 01.007-.055zm1.158-1.44a.129.129 0 01.068-.066.184.184 0 01.193.036.207.207 0 01.09.188l-.011.027a.1.1 0 01-.065.065.194.194 0 01-.156-.034c-.076-.048-.146-.142-.117-.215zm.548.356c.064-.158.394-.197.611-.118.072.03.189.09.149.21l-.004.01c-.06.148-.325.209-.526.171-.152-.03-.24-.106-.238-.212a.154.154 0 01.01-.061zm2.204-.75a.283.283 0 01.216-.147.158.158 0 01.155.053.168.168 0 01.024.17.233.233 0 01-.19.14.208.208 0 01-.197-.11.111.111 0 01-.006-.105zm3.007-.186a.3.3 0 01.104-.124.267.267 0 01.25 0 .127.127 0 01.066.105.251.251 0 01-.02.1.234.234 0 01-.196.154c-.079.004-.13-.08-.176-.156l-.033-.053c-.011-.016.002-.014.006-.024zm-.414 1.127c.059-.147.295-.131.523-.113a1.8 1.8 0 00.28.005.962.962 0 01.302.035c.057.013.115.026.172.033a2.012 2.012 0 00.29.01.438.438 0 00.08-.012.217.217 0 01.12-.004.385.385 0 00.278-.004l.005.002.035-.008c.144-.037.383-.098.494-.016a.171.171 0 01.058.145.06.06 0 01-.008.02c-.093.231-1.691.332-2.376.15-.194-.053-.278-.113-.269-.2a.188.188 0 01.016-.041zm.763-.424c.027-.068.12-.053.218-.038s.192.03.233-.03a.169.169 0 00.015-.035.419.419 0 00.019-.067.332.332 0 01.014-.058.043.043 0 01.025-.028.106.106 0 01.078.02.558.558 0 00.305.048.939.939 0 01.16.002 1.628 1.628 0 00.213.008c.186-.001.378-.002.476.138a.1.1 0 01.027.101c-.03.075-.197.09-.277.098l-.056.005a.654.654 0 01-.235-.005.783.783 0 00-.303-.002.624.624 0 01-.39-.038.283.283 0 00-.175 0 1.096 1.096 0 01-.06.012l-.036.004c-.083.011-.184.025-.232-.017a.089.089 0 01-.026-.074.122.122 0 01.008-.042zm4.384-5.639a.072.072 0 01.028-.036.283.283 0 01.338.094.059.059 0 010 .048.054.054 0 01-.02.026.272.272 0 01-.188.025.234.234 0 01-.158-.096.069.069 0 010-.059zm.978.143c.013-.032.064-.06.138-.075a.61.61 0 01.509.119c.024.025.034.045.028.06s-.049.032-.088.04a.323.323 0 00-.058.017.185.185 0 01-.173-.037.21.21 0 00-.11-.044c-.016.001-.036.005-.058.008-.067.01-.15.023-.18-.013a.078.078 0 01-.01-.074zm-2.044 5.348a.276.276 0 01.07-.102.106.106 0 01.137 0 .2.2 0 01.08.206l-.002.005a.248.248 0 01-.144.126.119.119 0 01-.1-.018.172.172 0 01-.04-.215zm1.245-.264l.004-.012c.047-.1.175-.146.342-.125a.532.532 0 01.469.337.177.177 0 01-.009.104c-.054.135-.295.14-.496.077a.5.5 0 01-.31-.22.19.19 0 010-.161zm3.69-3.961a.115.115 0 01.011-.03c.08-.104.232-.074.379-.046a1.085 1.085 0 00.205.027c.026 0 .06-.002.097-.006.12-.01.268-.022.31.035a.084.084 0 01.005.082l-.002.005c-.037.093-.149.073-.267.05a.439.439 0 00-.287.006.162.162 0 00-.047.066.231.231 0 01-.08.103c-.06.032-.169-.02-.24-.083s-.11-.148-.085-.21zm-1.406 4.279a.044.044 0 01.007-.017.322.322 0 01.246-.077.123.123 0 01.096.08.1.1 0 01.016.08c-.016.04-.066.066-.138.073a.251.251 0 01-.21-.06.094.094 0 01-.014-.078zm.945-2.339a.162.162 0 01.051-.066.1.1 0 01.126.009c.067.05.124.168.095.24l-.006.015a.113.113 0 01-.16.043.2.2 0 01-.103-.24zm.06 1.012a.082.082 0 01.056-.047.185.185 0 01.15.055c.018.013.034.025.051.034s.02.008.03.012c.045.018.097.05.082.086-.022.056-.1.033-.172.011a.585.585 0 00-.077-.019.147.147 0 01-.11-.065.081.081 0 01-.006-.066zm1.496-2.827c.037-.093.191-.116.3-.079.08.032.117.083.1.148l-.006.012c-.034.086-.173.117-.276.092a.137.137 0 01-.124-.147.107.107 0 01.006-.026zm-.883 2.373a.06.06 0 01.032-.037c.032-.012.079.01.138.037a.564.564 0 00.351.068.292.292 0 00.12-.059.405.405 0 01.11-.063c.028-.012.097.025.129.06.023.022.032.045.025.061-.09.209-.477.309-.718.242a.231.231 0 01-.198-.264.2.2 0 01.012-.049zm-.842 2.161a.236.236 0 01.448.1.171.171 0 01-.01.091.213.213 0 01-.217.12.259.259 0 01-.228-.221.148.148 0 01.01-.093zm.407-.87a.222.222 0 01.06-.083.1.1 0 01.087-.018l.011.004a.577.577 0 01.435.22.143.143 0 01.019.129c-.018.044-.074.102-.236.12a.419.419 0 01-.33-.167.21.21 0 01-.044-.208zm1.817-3.604l.007-.017a.1.1 0 01.073-.05.142.142 0 01.102.014c.061.057.098.025.14-.012a.185.185 0 01.139-.061.279.279 0 01.19.129.161.161 0 01.02.146l-.01.027c-.09.137-.383.148-.55.06-.112-.06-.149-.143-.11-.24zm-1.267 3.315a.133.133 0 01.078-.076.82.82 0 00.124-.04c.109-.037.221-.077.27.002a.091.091 0 01.024.08c-.04.103-.322.13-.461.11a.051.051 0 01-.036-.048.087.087 0 01.002-.033zm.58-1.261a.06.06 0 01.035-.036.852.852 0 01.457.067l.049.02a.625.625 0 00.198.011c.14-.005.284-.011.317.118a.057.057 0 01-.001.038c-.01.025-.041.037-.071.047l-.005-.001c-.028.009-.054.018-.06.034a.051.051 0 00.03.05 1.523 1.523 0 00.474.111l.072.004a2.164 2.164 0 01.471.167 3.037 3.037 0 00.948.286 8.972 8.972 0 001.11-.198l.014-.004a.389.389 0 00.102-.062c.046-.034.09-.071.145-.05a.685.685 0 01.201.1.455.455 0 00.34.101.224.224 0 01.184.08.458.458 0 00.37.17l.028.005a1.236 1.236 0 01.23.064c.028.01.054.021.082.027a.163.163 0 01.038.016c.019.007.034.02.043.017a.618.618 0 01.494.034.847.847 0 00.35.07.411.411 0 01.342.19.867.867 0 00.143.136c.048.032.172.21.121.335a.152.152 0 01-.055.068c-.082.057-.147-.02-.21-.096-.05-.058-.097-.114-.147-.092a.968.968 0 01-.268.071c-.105.015-.18.027-.229.131a.161.161 0 00.02.116l.004.01a.179.179 0 01.023.137.1.1 0 01-.018.028.234.234 0 01-.17.07.189.189 0 01-.144-.058.073.073 0 01-.009-.083l.016-.038.015-.037a.06.06 0 00.003-.053c-.013-.023-.05-.03-.072-.035l-.1-.02a1.349 1.349 0 01-.134-.03c-.204-.06-.195-.103-.169-.23a1.07 1.07 0 00.028-.243c0-.074-.086-.13-.168-.142s-.177.002-.207.076l-.004.01c-.019.045.033.071.078.096s.074.04.072.068a.139.139 0 01-.01.045c-.057.141-.347.229-.556.167a.233.233 0 01-.18-.289l.005-.015c.025-.06.114-.044.208-.024l.004.002c.09.018.19.037.219-.033l.003-.01a.127.127 0 00-.02-.132.613.613 0 00-.478-.085.228.228 0 01-.264-.09.236.236 0 00-.29-.08c-.037.01-.079.015-.119.024-.124.02-.265.042-.305.142l-.008.02c-.018.072.048.118.111.162a.239.239 0 01.114.124l-.002.006c-.012.03-.156.02-.306-.022a.408.408 0 01-.243-.131.052.052 0 01-.002-.045l.006-.015c.015-.021.051-.02.09-.02s.098.003.115-.039l.002-.006a.077.077 0 00-.01-.063.206.206 0 00-.12-.076c-.219-.049-.45-.09-.704-.125-.026-.003-.163-.018-.192.055a.088.088 0 00-.005.042.074.074 0 00.025.053.206.206 0 00.142.015c.051-.006.1-.01.12.013a.048.048 0 01.012.046c-.06.106-.194.127-.322.147a1.222 1.222 0 00-.154.031.4.4 0 00-.237.187.6.6 0 01-.61.268 1.174 1.174 0 00-.213-.006c-.18.004-.366.008-.433-.144a.115.115 0 01-.012-.087c.025-.062.145-.05.266-.046a.664.664 0 00.183-.001.661.661 0 01.178-.008c.113.005.23.01.263-.07l.008-.021c.007-.036-.033-.047-.067-.057s-.047-.012-.054-.021a.176.176 0 01.01-.131.88.88 0 01.064-.12.837.837 0 00.064-.128.154.154 0 00-.007-.155c-.044-.065-.132-.053-.21-.04-.022.002-.043.006-.062.007a.708.708 0 01-.456-.111.475.475 0 00-.216-.051l-.045-.004c-.198-.02-.232-.117-.284-.263a1.2 1.2 0 00-.106-.236.354.354 0 00-.117-.067c-.093-.038-.203-.093-.196-.147zm-1.006 2.56a.115.115 0 01.126-.075c.042.003.053.04.062.071a.125.125 0 00.016.04.169.169 0 00.14.08.081.081 0 00.063-.055l.011-.029a.429.429 0 01.023-.076.314.314 0 01.289-.182.257.257 0 00.095-.043l.013-.008a.219.219 0 00.037-.03.249.249 0 01.032-.026.418.418 0 01.315-.045.176.176 0 01.116.08.043.043 0 01.004.037.14.14 0 01-.051.048.424.424 0 00-.165.201c-.021.051.004.11.032.159a.231.231 0 01.036.135.209.209 0 01-.013.035c-.05.121-.194.093-.32.069-.02-.008-.043-.009-.062-.011a.774.774 0 00-.374.005.307.307 0 01-.373-.104.3.3 0 01-.051-.28zm2.044-2.59a.186.186 0 01.073-.079c.084-.056.167.005.245.063a.342.342 0 00.143.077.309.309 0 00.15-.047c.084-.05.18-.093.235-.01a.13.13 0 01.019.125c-.046.115-.279.183-.443.13l-.042-.018c-.126-.039-.335-.103-.377-.191a.07.07 0 01-.002-.057zm.466-.722a.384.384 0 01.04-.074.04.04 0 01.029-.017c.043-.007.113.046.152.078l.008.003a1.084 1.084 0 00.726.2h.035c.06-.003.126-.007.155.038a.107.107 0 01.016.1c-.034.085-.192.118-.318.1l-.066-.008c-.269-.035-.673-.089-.771-.259a.175.175 0 01-.006-.16zm-.107.432c.034-.084.153-.111.238-.09a.179.179 0 01.14.208.139.139 0 01-.008.038.129.129 0 01-.137.071.27.27 0 01-.234-.13.138.138 0 010-.096zm.499.514a.073.073 0 01.048-.043.28.28 0 01.2.039.837.837 0 01.174.15c.008.003.004.036-.007.063a.075.075 0 01-.026.034c-.036.02-.104.042-.137.023a.788.788 0 00-.078-.04c-.084-.034-.166-.077-.18-.163a.118.118 0 01.007-.063zm1.01-1.21a.064.064 0 01.038-.038c.073-.027.22.056.364.134.07.038.134.074.192.099a.424.424 0 00.228.012.456.456 0 01.167-.002.239.239 0 01.16.085.149.149 0 01.008.117.219.219 0 00.07.136.084.084 0 00.101.016.068.068 0 00.035-.035c.014-.033-.006-.076-.032-.12l-.004-.009c-.021-.04-.043-.077-.033-.103a.032.032 0 01.006-.014.059.059 0 01.046-.012.15.15 0 01.085.057.752.752 0 01.08.174c.044.119.09.241.21.262.073.011.131-.056.155-.114l.006-.017c.017-.042-.023-.091-.063-.142s-.09-.116-.067-.174a.1.1 0 01.018-.028c.077-.093.197-.041.312.008a.567.567 0 00.179.057.47.47 0 01.388.183c.016.02.057.016.104.01.069-.008.147-.016.171.049a.028.028 0 010 .021.114.114 0 01-.051.042.134.134 0 00-.064.05.042.042 0 00-.002.023.193.193 0 00.104.132.267.267 0 01.11.12.549.549 0 00.059.092c.038.053.075.104.059.145a.069.069 0 01-.024.028.189.189 0 01-.201-.005.657.657 0 00-.31-.064.986.986 0 01-.232-.028c-.122-.033-.237-.054-.348-.076a1.708 1.708 0 01-.63-.205c-.093-.06-.18-.109-.271-.16-.112-.062-.227-.126-.36-.214a.153.153 0 00-.125-.018.166.166 0 00-.101.102.3.3 0 00-.01.17.292.292 0 01-.017.181.859.859 0 01-.062.118l-.003.006a.893.893 0 00-.06.114.338.338 0 00-.023.06c-.01.024-.11.052-.153.037a.181.181 0 01-.086-.129c-.007-.069-.076-.128-.151-.192-.1-.084-.202-.172-.155-.289a.648.648 0 01.297-.258.06.06 0 00.027-.025c.012-.03-.017-.066-.053-.112a.328.328 0 01-.097-.225.124.124 0 01.009-.032zm-.51 1.404a.155.155 0 01.043-.066c.1-.08.236-.048.36-.02a1.081 1.081 0 00.15.026.915.915 0 01.156.031.553.553 0 00.224.028.372.372 0 00.163-.098.6.6 0 01.123-.087.59.59 0 01.264-.043.226.226 0 01.175.052.077.077 0 01.011.068l-.006.015c-.027.066-.109.044-.187.023s-.13-.035-.158.001a.1.1 0 00-.01.022c-.027.069.074.116.178.158l.019.008c.093.037.185.075.164.127a.075.075 0 01-.019.025c-.032.033-.082.013-.131-.005a.419.419 0 00-.055-.022.436.436 0 01-.076-.031.185.185 0 00-.118-.026.624.624 0 01-.338-.014c-.044-.01-.089-.02-.134-.027-.102-.014-.202-.018-.3-.023a4.128 4.128 0 01-.14-.008.5.5 0 00-.113.013c-.086.015-.176.032-.229-.038a.1.1 0 01-.014-.093zm-.533 2.293l.008-.02a.775.775 0 01.837-.245c.113.037.317.043.409-.092a.541.541 0 00.064-.1.182.182 0 00.004-.13.445.445 0 01-.004-.213l.01-.023c.047-.117.26-.127.45-.086.175.037.35.124.344.215l-.004.011c-.015.037-.098.044-.136.035-.198-.045-.446.004-.505.15a.194.194 0 000 .138c.07.207.337.179.595.152s.513-.054.599.134a.1.1 0 01.01.078.07.07 0 01-.043.038.237.237 0 01-.16-.008 1.662 1.662 0 00-.77-.102.544.544 0 01-.147-.023.732.732 0 00-.115-.023.569.569 0 01-.104-.026c-.09-.027-.192-.059-.232.021l-.003.007c-.032.08.052.139.136.198s.149.104.134.168l-.01.026a.15.15 0 01-.124.092.366.366 0 01-.314-.136.145.145 0 00-.086-.035.4.4 0 01-.05-.01.225.225 0 00-.15.021.2.2 0 01-.242-.025.237.237 0 00-.166-.025.261.261 0 01-.227-.054.125.125 0 01-.007-.112zm.554-.865c.03-.075.14-.08.233-.042.072.03.143.097.108.183l-.003.008c-.04.079-.14.078-.215.043s-.153-.117-.123-.192zm2.095-1.603a.1.1 0 01.038-.042 1.241 1.241 0 01.758.12c.089.047.136.1.133.15a.064.064 0 01-.008.02c-.023.058-.132.06-.174.054a8.66 8.66 0 01-.613-.14.218.218 0 01-.132-.096.074.074 0 01-.002-.066zm-.28 1.963c.02-.049.099-.084.193-.082a.205.205 0 01.197.099.069.069 0 010 .052c-.032.078-.2.134-.309.105a.124.124 0 01-.086-.161zm1.279-1.762a.182.182 0 01.168-.057.245.245 0 01.088.078c.04.046.078.093.13.078a.044.044 0 00.03-.028.192.192 0 00.008-.057.206.206 0 01.009-.056.037.037 0 01.012-.017c.058-.04.14-.014.217.012s.183.059.244-.01a.1.1 0 00.018-.028c.02-.05-.01-.111-.032-.172-.026-.06-.05-.118-.033-.161a.073.073 0 01.008-.02.356.356 0 01.31-.141 1.3 1.3 0 01.78.66 1 1 0 00.22.181.178.178 0 00.071.008.15.15 0 01.141.052c.045.063.017.142-.012.228a.3.3 0 00-.022.226c.005.01.018.024.03.02a.093.093 0 00.055-.059.188.188 0 00.013-.09.562.562 0 01.024-.305.3.3 0 01.178-.174.2.2 0 01.197.015c.115.082.153.315.15.505a.151.151 0 01-.009.052c-.023.057-.088.034-.163.006a.288.288 0 00-.2-.026.283.283 0 00-.133.14.143.143 0 00.018.148c.058.074.14.035.215.002a.234.234 0 01.116-.036.309.309 0 01.103.05.2.2 0 00.149.05.66.66 0 00.25-.129c.046-.035.08-.061.11-.051s.047.045.07.117a.063.063 0 01-.004.045.3.3 0 01-.024.042.326.326 0 00-.023.042.148.148 0 01-.027.036.167.167 0 00-.03.044.05.05 0 000 .043c.031.063.11.062.191.063s.127-.002.158.034a.3.3 0 01.081.281.135.135 0 01-.03.047c-.042.043-.127.003-.161-.027a.656.656 0 00-.585-.237 1.122 1.122 0 01-.186.033 1.056 1.056 0 01-.562-.21c-.084-.06-.165-.029-.254.006a.368.368 0 01-.325.004c-.05-.026-.04-.08-.01-.156l.033-.08a.227.227 0 00.015-.209s-.01-.004-.025-.004a.993.993 0 01-.595-.255.242.242 0 00-.165-.023.274.274 0 01-.215-.041s.003-.008 0-.023c.004-.035.012-.102-.045-.118a.277.277 0 00-.182.008.17.17 0 01-.211-.043.375.375 0 00-.156-.085.557.557 0 01-.135-.064.19.19 0 01-.056-.164zm.704-1.237a.155.155 0 01.027-.045.121.121 0 01.11-.037.19.19 0 01.139.089.14.14 0 01.002.12.285.285 0 01-.113.13.107.107 0 01-.131.002.26.26 0 01-.034-.259zm-.19.513a.136.136 0 01.072-.079.706.706 0 01.325-.026l.091.006.008.003a.2.2 0 01.025.13.4.4 0 01-.443.156.125.125 0 01-.073-.068.166.166 0 01-.007-.123zm-1.013 2.806a.17.17 0 01.044-.064c.082-.065.187-.023.29.013a.646.646 0 00.143.045.457.457 0 01.312.256.139.139 0 01.002.108.062.062 0 01-.01.024.145.145 0 01-.131.001 1 1 0 01-.217-.15c-.05-.047-.108-.034-.169-.02a.251.251 0 01-.208-.019.152.152 0 01-.056-.194zm1.704-3.97a.1.1 0 01.043-.054c.11-.063.253.081.328.173l.007.003c.023.026.084.096.06.153a.074.074 0 01-.009.024.168.168 0 01-.128.05.356.356 0 01-.249-.114.261.261 0 01-.052-.236zm-.805 4.25c.06-.151.356-.18.568-.195l.098-.008a.188.188 0 01.145.11.153.153 0 01-.014.079.16.16 0 01-.072.09 3.4 3.4 0 01-.544.148.173.173 0 01-.172-.078.2.2 0 01-.009-.147zm.795.181c.027-.067.147-.112.234-.146l.04-.016a.96.96 0 01.77-.08.218.218 0 01.113.2.357.357 0 01-.02.072c-.089.219-.374.294-.59.291a.585.585 0 01-.55-.264.075.075 0 01.003-.056zm.945-1.005l.005-.011a.067.067 0 01.04-.024.206.206 0 01.135.002.743.743 0 00.553.045.111.111 0 00.047-.03.1.1 0 01.05-.03.654.654 0 01.374.123 1.614 1.614 0 00.163.085.828.828 0 01.131.073.233.233 0 00.031.02.492.492 0 00.224-.002c.08-.013.148-.024.183.027a.018.018 0 010 .018l-.012.031a.886.886 0 01-.045.208c-.046.112-.117.108-.248.101-.036-.001-.076-.004-.12-.004l-.054-.001a.385.385 0 00-.18.02.472.472 0 01-.525-.056.377.377 0 01-.116-.19c.013-.161-.083-.176-.176-.191a.346.346 0 01-.098-.026.338.338 0 00-.132-.026.5.5 0 01-.102-.014.2.2 0 01-.129-.073.085.085 0 01-.002-.076zm.169 1.208a.058.058 0 01.022-.028c.05-.03.11-.006.177.024s.13.052.179.02a.426.426 0 00.132-.167c.016-.04.034-.066.06-.071s.067.015.132.07c.09.073.18.202.14.32l-.005.013c-.056.14-.23.09-.397.044a.973.973 0 00-.24-.047.247.247 0 01-.208-.131.063.063 0 01.005-.048zm.945-.204a.157.157 0 01.124-.095.636.636 0 01.485.176.528.528 0 00.53.183.7.7 0 01.48.045.182.182 0 01.076.139.074.074 0 01-.004.033c-.02.05-.11.024-.189 0a.59.59 0 00-.089-.022c-.044-.005-.09-.008-.133-.012a1.2 1.2 0 01-.615-.163.392.392 0 00-.209-.04l-.084-.005a.965.965 0 00-.15.001c-.085.006-.158.01-.202-.032a.174.174 0 01-.04-.134.22.22 0 01.015-.076z" fill="#6f5a4d"/></g></svg>