<svg xmlns="http://www.w3.org/2000/svg" width="46.828" height="39.092" viewBox="0 0 46.828 39.092">
  <g id="Group_3" data-name="Group 3" transform="translate(0 24.107) rotate(-68)">
    <path id="Fill_1_Copy" data-name="Fill 1 Copy" d="M18.862,40c-1.721,0-4.314-1.826-6.821-3.593-.522-.368-1.062-.748-1.581-1.1a51.445,51.445,0,0,0-4.607-2.623c-.352-.183-.585-.3-.609-.326-.083-.074-.041-.135,0-.193s.074-.107.019-.17a1.1,1.1,0,0,1-.079-.109.655.655,0,0,0-.132-.159.389.389,0,0,0-.225-.065l-.038,0-.034,0a.374.374,0,0,1-.261-.13.82.82,0,0,0-.205-.145.064.064,0,0,0-.027-.006.184.184,0,0,0-.072.022.177.177,0,0,1-.072.023.057.057,0,0,1-.041-.015,1.442,1.442,0,0,0-.673-.437c-.088-.036-.178-.072-.263-.114-.2-.1-.406-.194-.606-.287-.14-.065-.28-.13-.419-.2-.024-.011-.08-.036-.07-.086s.035-.083.073-.083a.453.453,0,0,1,.2.1.6.6,0,0,0,.161.095c.034.009.076.023.12.037a1.181,1.181,0,0,0,.3.074c.042,0,.067-.011.076-.035a.035.035,0,0,0,0-.028,1.737,1.737,0,0,0-.62-.308,5.426,5.426,0,0,1-.585-.251,2,2,0,0,0-.519-.15C.977,29.692.721,29.64.638,29.5a.2.2,0,0,1-.017-.168c.012-.044.046-.065.105-.065a1.664,1.664,0,0,1,.512.178l.016.007a1.6,1.6,0,0,0,.477.171.074.074,0,0,0,.075-.036.119.119,0,0,0,.006-.1c-.051-.118-.309-.2-.608-.289-.139-.043-.282-.087-.423-.14-.029-.011-.041-.045-.053-.077s-.019-.053-.037-.062a.108.108,0,0,0-.049-.011.3.3,0,0,0-.1.023.313.313,0,0,1-.1.023A.083.083,0,0,1,.4,28.941a.071.071,0,0,1-.023-.066.28.28,0,0,1,.188-.2.281.281,0,0,1,.073-.009,1.049,1.049,0,0,1,.48.2l.018.011a1,1,0,0,0,.429.19.184.184,0,0,0,.171-.113.088.088,0,0,0,.007-.083c-.036-.072-.2-.1-.356-.12s-.292-.044-.317-.1a.077.077,0,0,1,.02-.076.214.214,0,0,1,.18-.1,1.067,1.067,0,0,1,.5.26l.015.011a1.129,1.129,0,0,0,.547.27.268.268,0,0,0,.118-.026.044.044,0,0,0,.02-.049c-.012-.033-.069-.038-.13-.043s-.131-.012-.16-.049a.082.082,0,0,1-.011-.068.076.076,0,0,1,.082-.069.4.4,0,0,1,.115.026.308.308,0,0,0,.064.017.647.647,0,0,1,.109.019.489.489,0,0,0,.107.018.1.1,0,0,0,.1-.054c.014-.024.008-.028,0-.035a.051.051,0,0,1-.022-.032.126.126,0,0,1,.045-.1.18.18,0,0,1,.1-.044.04.04,0,0,1,.019,0,.771.771,0,0,1,.074.047.321.321,0,0,0,.134.066.657.657,0,0,0,.084,0c.055,0,.113-.005.168-.01h.005c.053,0,.107-.009.156-.009a.261.261,0,0,1,.234.087c.058.08.014.168-.028.253a.266.266,0,0,0-.046.159.136.136,0,0,0,.137.1.114.114,0,0,0,.115-.077c.012-.036-.011-.067-.033-.1a.117.117,0,0,1-.033-.076c0-.029.017-.042.043-.042A.376.376,0,0,1,4,28.947l.042.013A.752.752,0,0,0,4.253,29a.594.594,0,0,0,.2-.037c.03-.011.044-.043.059-.078a.229.229,0,0,1,.04-.069l.007-.007c.027-.028.082-.086.136-.086a.082.082,0,0,1,.067.04c.026.037-.009.082-.047.128s-.082.1-.056.156.09.059.146.059h.079a.96.96,0,0,1,.481.147.471.471,0,0,0,.268.075,1.482,1.482,0,0,0,.3-.041c.06-.013.122-.025.181-.033a.361.361,0,0,0,.073-.023.325.325,0,0,1,.1-.028.054.054,0,0,1,.057.042c.02.066-.058.108-.139.153s-.178.1-.161.18c.045.22.237.248.4.248.056,0,.113,0,.16-.006s.1-.006.146-.006a.381.381,0,0,1,.135.018.281.281,0,0,0,.1.019.616.616,0,0,0,.389-.2.519.519,0,0,0,.051-.06c.043-.055.092-.117.152-.117a.1.1,0,0,1,.045.011c.054.027.033.085.014.141s-.031.089,0,.105a.182.182,0,0,0,.08.017.374.374,0,0,0,.259-.124.238.238,0,0,0,.068-.182c-.016-.15-.182-.16-.343-.17-.139-.009-.27-.017-.312-.108a.053.053,0,0,1,.02-.061.194.194,0,0,1,.1-.025.646.646,0,0,1,.25.079,1.136,1.136,0,0,0,.154.063c.122.035.245.075.364.113.167.053.339.109.511.153a9.525,9.525,0,0,1,1.495.562,3.576,3.576,0,0,0,1.187.384.246.246,0,0,0,.24-.111c.205-.375-.674-2.129-1.146-3.071-.112-.223-.2-.4-.245-.5a39.135,39.135,0,0,1-2.786-8.519c0-.009,0-.018,0-.027a.154.154,0,0,1,.005-.06l.011-.034c.03-.1.068-.215.171-.228.016,0,.028.028.043.06l.011.024c.02.042.045.085.085.085a.079.079,0,0,0,.04-.013.1.1,0,0,0,.048-.062c.014-.067-.048-.159-.108-.247-.075-.11-.152-.224-.082-.292a.061.061,0,0,1,.04-.022c.042,0,.065.089.087.175s.046.181.095.181a.051.051,0,0,0,.024-.007c.067-.037.035-.118.006-.189a.451.451,0,0,1-.023-.068c-.033-.156-.01-.189.028-.243a.48.48,0,0,0,.072-.144,1,1,0,0,0-.1-.656,2.059,2.059,0,0,1-.113-.344.394.394,0,0,1,.031-.225.392.392,0,0,0-.007-.357.125.125,0,0,0-.1-.066.193.193,0,0,0-.141.093c-.071.095-.012.218.045.337a.875.875,0,0,1,.073.184l0,.011a.182.182,0,0,1,0,.106l-.013.027c-.021.048-.045.1-.092.106H7.67c-.052,0-.1-.065-.113-.108a2.389,2.389,0,0,1-.044-.267c-.006-.05-.013-.1-.021-.149a.823.823,0,0,0-.039-.133.583.583,0,0,1-.046-.311.228.228,0,0,1,.1-.16.11.11,0,0,1,.06-.015.439.439,0,0,1,.061.006.466.466,0,0,0,.069.008.1.1,0,0,0,.057-.014.174.174,0,0,0,.084-.135.441.441,0,0,0-.167-.311.35.35,0,0,1-.063-.1c-.031-.064-.062-.129-.119-.129a.086.086,0,0,0-.024,0c-.048.014-.033.084-.017.158a.262.262,0,0,1,0,.176.073.073,0,0,1-.05.031.392.392,0,0,1-.081.009.336.336,0,0,1-.25-.115,2.167,2.167,0,0,1-.282-1.327c0-.072.07-.133.139-.2.085-.078.172-.159.149-.266,0-.023-.034-.033-.065-.043-.052-.018-.111-.039-.09-.122a.147.147,0,0,1,.112-.1h.007a.176.176,0,0,1,.112.064c.025.023.046.044.067.044h.011a.663.663,0,0,0,.6-.332c.034-.075-.02-.19-.064-.283l0-.006a.248.248,0,0,0-.176-.121h-.01a.087.087,0,0,0-.068.026.2.2,0,0,0-.021.15l0,.022a.16.16,0,0,1-.008.115.073.073,0,0,1-.057.028l-.009,0c-.112-.133-.234-.279-.371-.447a.07.07,0,0,1-.01-.058,1.231,1.231,0,0,0,.062-.3.8.8,0,0,1,.156-.454.388.388,0,0,0,.036-.282.429.429,0,0,0-.126-.282.091.091,0,0,0-.043-.01.075.075,0,0,0-.065.032.507.507,0,0,0-.039.264c0,.1,0,.186-.037.226a.071.071,0,0,1-.054.02.177.177,0,0,1-.055-.01.124.124,0,0,1-.066-.081.129.129,0,0,1-.006-.088.536.536,0,0,0,.031-.431A.916.916,0,0,1,6.8,10.3a1.249,1.249,0,0,0-.085-.61c-.039-.086-.1-.178-.17-.178a.116.116,0,0,0-.091.063c-.042.063-.014.153.015.248s.069.222-.007.3a.12.12,0,0,1-.082.039c-.126,0-.228-.262-.237-.373a.449.449,0,0,1,.136-.3c.075-.1.147-.187.123-.294A1.751,1.751,0,0,0,5.96,8.41a.168.168,0,0,1-.036-.13.2.2,0,0,1,.085-.139.146.146,0,0,1,.086-.031.232.232,0,0,1,.15.086.163.163,0,0,0,.033.023c.028.017.059.036.061.077s-.042.082-.084.113a.2.2,0,0,0-.081.087c0,.011,0,.018,0,.021a.009.009,0,0,0,.007,0,.128.128,0,0,0,.029-.007l.021-.006a.344.344,0,0,1,.09-.012.364.364,0,0,1,.19.058c.05.03.049.114.049.2,0,.1,0,.2.084.205h.006c.036,0,.041-.044.044-.073a.168.168,0,0,1,0-.021c.015-.07.057-.187.17-.187l.026,0c.094.015.092.092.09.173,0,.016,0,.032,0,.048,0,.039,0,.079,0,.122a.5.5,0,0,0,.067.367,1.032,1.032,0,0,1,.291.67c0,.03,0,.061.006.092.006.137.013.278.126.349l.025.016a.714.714,0,0,0,.336.145.186.186,0,0,0,.124-.045c.04-.035.02-.085,0-.134a.139.139,0,0,1-.017-.1c.008-.018.016-.027.024-.027s.04.038.07.091c.057.1.143.25.292.288h.005c.019,0,.031-.027.043-.055s.028-.061.056-.061H8.43c.1.015.086.17.074.319-.01.119-.019.242.027.292a.08.08,0,0,0,.061.025.221.221,0,0,0,.078-.017.3.3,0,0,0,.095-.1c.037-.054.075-.109.112-.109.052,0,.094.113.13.354,0,.022.007.044.011.068.025.145.052.309-.043.4a.179.179,0,0,1-.119.064c-.085,0-.145-.107-.209-.268a.573.573,0,0,1-.025-.109c-.016-.092-.033-.2-.1-.2a.125.125,0,0,0-.061.02c-.077.046-.1.14-.115.239a.694.694,0,0,1-.045.162c-.007.015-.032.021-.058.028s-.084.022-.086.066.049.07.1.09.1.036.118.08-.008.073-.029.116-.054.107-.016.149a.043.043,0,0,0,.034.015.1.1,0,0,0,.06-.026.628.628,0,0,0,.1-.138.285.285,0,0,0,.019-.053c.014-.046.03-.1.066-.1a.054.054,0,0,1,.022.006c.029.014.034.058.014.131a.287.287,0,0,0,.042.306.239.239,0,0,1,.031.139c0,.079,0,.158.006.233a3.494,3.494,0,0,0,.026.45c.018.12.045.3.17.347a.131.131,0,0,0,.044.008.094.094,0,0,0,.085-.053.2.2,0,0,0-.016-.2.373.373,0,0,0-.083-.079c-.057-.045-.116-.091-.112-.166.005-.1.091-.224.194-.224l.025,0c.087.016.1.128.106.236s.017.2.092.2.107-.038.15-.1a1.057,1.057,0,0,1,.134-.177c.074-.078.018-.18-.035-.277a.414.414,0,0,1-.069-.184,2.147,2.147,0,0,0-.065-.588.225.225,0,0,1,.085-.222.267.267,0,0,0,.084-.136.783.783,0,0,0-.111-.65.751.751,0,0,1-.109-.233c-.007-.027.018-.059.044-.094a.32.32,0,0,0,.047-.077l.013-.036a.346.346,0,0,0,.034-.206l0-.012a2.154,2.154,0,0,0-.186-.447.676.676,0,0,1-.085-.439.1.1,0,0,1,.043-.065.067.067,0,0,1,.03-.009c.051,0,.061.093.067.155a.4.4,0,0,0,.006.048c.03.123.1.332.183.552A3.389,3.389,0,0,1,9.806,11.2a2.537,2.537,0,0,0-.044.738c0,.059,0,.1,0,.12a.367.367,0,0,1-.013.06c-.017.064-.035.129.058.176.022.011.03.055.037.091l0,.018a1.834,1.834,0,0,1,.025.3.839.839,0,0,0,.144.56.123.123,0,0,0,.092.027l.055,0,.054,0c.053,0,.109.009.119.073s-.041.068-.094.081-.084.021-.094.054.026.064.063.1.084.088.083.134a.079.079,0,0,1-.029.056.05.05,0,0,1-.034.015c-.032,0-.063-.038-.088-.069s-.055-.069-.081-.069a.033.033,0,0,0-.021.008.626.626,0,0,0-.18.574,1.334,1.334,0,0,0,.591.978.123.123,0,0,0,.055.013.4.4,0,0,0,.22-.126.4.4,0,0,1,.216-.125A.114.114,0,0,1,11,15c.118.067.131.251.143.429s.025.35.154.35a.186.186,0,0,0,.036,0,.125.125,0,0,0,.1-.067c.055-.116-.067-.347-.125-.459-.027-.051-.052-.1-.078-.154a1.494,1.494,0,0,0-.371-.536c-.027-.022-.026-.083-.025-.136,0-.013,0-.024,0-.035a.4.4,0,0,1,.023-.111c.023-.077.047-.156-.012-.217a.086.086,0,0,0-.065-.026.416.416,0,0,0-.134.036.428.428,0,0,1-.141.038.1.1,0,0,1-.084-.041c-.1-.13-.036-.283.028-.445a.772.772,0,0,0,.08-.352c-.033-.278-.108-.744-.235-.744a.056.056,0,0,0-.021,0c-.051.021-.036.075-.021.128a.18.18,0,0,1,.011.081.519.519,0,0,0-.01.054c-.009.062-.019.133-.078.14a.612.612,0,0,1-.069,0c-.057,0-.091-.012-.1-.037-.028-.053.043-.158.132-.291a2.228,2.228,0,0,0,.181-.3c.036-.076-.032-.164-.087-.235l-.02-.026c-.139-.185-.2-.321-.177-.418a.167.167,0,0,1,.085-.113.111.111,0,0,1,.056-.018c.088,0,.132.146.179.3l0,.014c.045.148.1.315.2.315a.117.117,0,0,0,.044-.009c.091-.037.053-.152.012-.273s-.087-.259.025-.3a.22.22,0,0,1,.078-.013.56.56,0,0,1,.169.037.828.828,0,0,0,.107.03.184.184,0,0,1,.154.094.188.188,0,0,1-.052.177c-.22.279-.208.4.059.615.044.035.087.073.128.11l.076.067a.62.62,0,0,1,.063.066.257.257,0,0,0,.14.1l.025,0a.07.07,0,0,0,.057-.022c.033-.039.018-.121,0-.208-.019-.113-.04-.23.046-.255a.076.076,0,0,1,.021,0c.059,0,.091.077.109.118l0,.008.04.091a1.575,1.575,0,0,1,.17.594.4.4,0,0,0,.1.191c.073.1.148.194.076.281a.09.09,0,0,1-.068.039.25.25,0,0,1-.129-.071l-.04-.031a.43.43,0,0,0-.264-.1h-.022a.138.138,0,0,0-.118.067c-.077.13.008.418.084.579a.149.149,0,0,1,.012.116c-.093.156-.027.272.049.406l.017.031c.119.211.084.236-.02.309a.922.922,0,0,0-.2.18c-.141.17.06.434.18.592a.344.344,0,0,1,.082.289.149.149,0,0,1-.107.1.087.087,0,0,1-.023,0,.2.2,0,0,1-.091-.031.208.208,0,0,0-.086-.031H11.45c-.051.007-.077.1-.067.249.014.194.1.467.248.467a.157.157,0,0,0,.084-.028.047.047,0,0,0,.023-.031c.005-.03-.022-.066-.05-.1s-.069-.093-.045-.128a.024.024,0,0,1,.023-.011.16.16,0,0,1,.035.006.2.2,0,0,0,.047.008.049.049,0,0,0,.039-.015c.018-.021,0-.057-.012-.094s-.041-.1,0-.13a.052.052,0,0,1,.027-.008c.04,0,.073.053.085.072.121.2.117.357-.013.471a.154.154,0,0,1-.021.015.088.088,0,0,0-.049.058.3.3,0,0,0,.111.23.092.092,0,0,0,.065.023c.135.006.216.036.247.092s.014.133-.048.241c-.047.082-.125.218-.087.29a.1.1,0,0,0,.087.047h.02a.112.112,0,0,0,.084-.032c.056-.056.055-.178.054-.3a.821.821,0,0,1,.014-.2.648.648,0,0,0-.016-.254c-.02-.11-.039-.213,0-.267a.089.089,0,0,1,.064-.036l.028,0a.153.153,0,0,1,.113.048c.128.13.12.494.115.735v.023c0,.189-.008.367-.239.459-.172.068-.136.239-.1.335a.866.866,0,0,1,.034.127.893.893,0,0,0,.032.123.616.616,0,0,0,.108.194.03.03,0,0,0,.022.005c.033,0,.1-.019.1-.035a.4.4,0,0,0,0-.219c-.077-.193-.093-.312-.05-.375a.129.129,0,0,1,.115-.049.363.363,0,0,1,.056,0,.135.135,0,0,1,.1.052c.04.059.018.161-.008.28a.953.953,0,0,0-.03.394c.01.05.062.063.112.075s.082.02.093.052c.022.062.025.1.007.129s-.045.031-.1.031c-.033,0-.072,0-.114-.008h-.015a1.518,1.518,0,0,0-.156-.01.781.781,0,0,0-.107.007c-.028,0-.043.033-.058.061a.318.318,0,0,1-.017.031c-.062.091-.082.16-.059.211s.08.081.18.1a.37.37,0,0,1,.106.044.317.317,0,0,0,.141.05.132.132,0,0,0,.058-.013c.06-.029.074-.11.089-.2a.322.322,0,0,1,.11-.24.126.126,0,0,1,.065-.021c.089,0,.146.134.2.251l0,.006c.053.126.1.246.185.246a.1.1,0,0,0,.046-.012c.025-.013.023-.045.02-.076a.17.17,0,0,1,0-.049.141.141,0,0,0,0-.041.131.131,0,0,1,.01-.093.059.059,0,0,1,.043-.021h.019c.128,0,.161.165.193.324s.059.3.166.3h.006a.051.051,0,0,0,.045-.019c.026-.038-.006-.125-.035-.2-.012-.031-.023-.061-.029-.085s-.015-.055-.023-.082a.433.433,0,0,1,.03-.436A.181.181,0,0,0,14.021,19a.245.245,0,0,1,.013-.14.153.153,0,0,1,.138-.078.185.185,0,0,1,.157.084.292.292,0,0,1,.015.18.342.342,0,0,0,0,.084,1.363,1.363,0,0,0,.151.453,1.254,1.254,0,0,0,.223.267l.043.043c.026.026.05.054.075.084a.755.755,0,0,0,.275.229h0a.148.148,0,0,0,.04-.009l.02-.006a.335.335,0,0,1,.084-.014.1.1,0,0,1,.1.057.524.524,0,0,1,.008.374.392.392,0,0,0,.013.32c.047.079.09.169.057.238a.063.063,0,0,1-.056.032h-.01c-.044-.008-.07-.047-.1-.088a.324.324,0,0,0-.055-.069l-.015-.012a.32.32,0,0,0-.2-.1.23.23,0,0,0-.1.027.217.217,0,0,1-.091.017.163.163,0,0,1-.117-.035.3.3,0,0,1-.073-.193.105.105,0,0,1,.041-.074.062.062,0,0,1,.04-.015c.038,0,.078.035.116.07l0,0c.038.034.074.066.106.066a.05.05,0,0,0,.037-.017A.173.173,0,0,0,15,20.63a.539.539,0,0,0-.235-.331.353.353,0,0,0-.182-.049.234.234,0,0,0-.2.089c-.044.069.005.155.057.246a.7.7,0,0,1,.074.159.385.385,0,0,1,0,.137c0,.023-.005.045-.006.067s0,.041-.006.062a.269.269,0,0,0,.005.139c.06.133.006.2-.062.3a.579.579,0,0,0-.134.293c-.013.11.108.171.2.216l.04.021a.343.343,0,0,1,.187.349.605.605,0,0,0,.133.441.264.264,0,0,0,.194.09l.034,0a.1.1,0,0,0,.085-.047c.034-.066-.031-.186-.1-.314-.086-.16-.174-.325-.071-.392a.069.069,0,0,1,.039-.012.134.134,0,0,1,.1.061c.048.1.105.19.161.28a1.741,1.741,0,0,1,.265.575.65.65,0,0,0,.138.248c.027.035.055.072.078.109.067.107.173.3.126.4a.109.109,0,0,1-.1.054h-.017c-.157,0-.226-.182-.277-.378l-.019-.077c-.04-.161-.075-.3-.155-.3a.082.082,0,0,0-.024,0,.087.087,0,0,0-.047.06.444.444,0,0,0,.05.35l.038.056a1.431,1.431,0,0,1,.233.443.7.7,0,0,0,.425.459c.041.007.083.01.124.012a.914.914,0,0,1,.172.023.252.252,0,0,1,.191.242c.008.068-.025.079-.067.094a.172.172,0,0,0-.1.069c-.1.152.033.324.15.475a1.566,1.566,0,0,1,.1.142,2.376,2.376,0,0,0,.267.343c.049.055.1.112.146.17a.59.59,0,0,0,.437.24.363.363,0,0,0,.153-.033c.05-.024.061-.084.072-.142s.018-.1.056-.115a.1.1,0,0,1,.036-.007.309.309,0,0,1,.171.1.312.312,0,0,0,.174.1.106.106,0,0,0,.048-.012c.069-.035.066-.11.062-.177a.218.218,0,0,1,.011-.11c.031-.054.156-.074.254-.074a.4.4,0,0,1,.225.049.183.183,0,0,1,.028.035c.015.022.03.045.053.045h0c.225-.033.307-.289.386-.537a1.8,1.8,0,0,1,.136-.345c.083-.144.163-.292.241-.436.111-.205.225-.417.35-.618.249-.4.517-.794.777-1.176l.124-.183c.112-.165.233-.352.351-.532a7.822,7.822,0,0,1,.478-.7.157.157,0,0,1,.094-.051.043.043,0,0,1,.037.019c.051.074-.14.348-.342.638-.217.312-.442.634-.4.755a.064.064,0,0,0,.042.042l.016,0c.035,0,.057-.046.079-.1a.322.322,0,0,1,.046-.081c.083-.09.173-.175.26-.258a2.894,2.894,0,0,0,.486-.547.228.228,0,0,1,.165-.112.1.1,0,0,1,.086.05c.074.113-.007.189-.1.277a.4.4,0,0,0-.161.25.6.6,0,0,1-.132.26c-.066.094-.129.183-.115.247a.087.087,0,0,0,.046.057.268.268,0,0,0,.134.04c.228,0,.389-.364.545-.717a2.988,2.988,0,0,1,.253-.5,7.96,7.96,0,0,0,.951-1.7c.016-.039.03-.09.046-.144.046-.159.1-.338.2-.338a.12.12,0,0,1,.047.01.041.041,0,0,1,.023.025c.029.081-.1.327-.223.564s-.265.507-.232.6a.046.046,0,0,0,.027.028.061.061,0,0,0,.023,0,.112.112,0,0,0,.069-.035l.006,0a.094.094,0,0,1,.052-.029.033.033,0,0,1,.016,0c.042.023.045.091.035.142s-.058.071-.107.1-.1.067-.1.1a.051.051,0,0,0,.021.041.179.179,0,0,0,.12.052c.158,0,.312-.245.455-.509l.069-.13c.107-.2.2-.379.264-.379a.035.035,0,0,1,.018.005c.044.026-.035.2-.111.359-.037.081-.076.164-.1.227-.015.043-.054.18-.1.353-.1.362-.256.906-.332,1.068-.011.021-.037.069-.022.1a.054.054,0,0,0,.043.027l.032,0c.137,0,.175-.172.212-.337a.936.936,0,0,1,.06-.2c.048-.095.1-.189.146-.282a7.151,7.151,0,0,0,.387-.822c.067-.179.368-.695.534-.695a.071.071,0,0,1,.027.005.041.041,0,0,1,.024.031,1.15,1.15,0,0,1-.219.546,1.883,1.883,0,0,0-.207.32c-.031.059-.058.123-.083.185a1.442,1.442,0,0,1-.142.281,1.558,1.558,0,0,0-.313.93.1.1,0,0,0,.094.067.053.053,0,0,0,.042-.017,2.474,2.474,0,0,0,.338-.716c.1-.277.182-.516.3-.516a.1.1,0,0,1,.025,0,.148.148,0,0,1,.087.075.13.13,0,0,0,.072.065.139.139,0,0,0,.035,0,.244.244,0,0,0,.155-.088l.007-.007a.271.271,0,0,1,.184-.094h.013a.037.037,0,0,1,.032.015c.019.03-.007.1-.032.167s-.054.143-.032.175a.045.045,0,0,0,.039.016.177.177,0,0,0,.045-.007c.044-.012.064-.069.086-.13s.054-.148.124-.148h.009a.081.081,0,0,1,.068.036c.033.057-.018.169-.056.25-.009.02-.018.038-.024.053-.023.058-.106.2-.232.411a30.83,30.83,0,0,0-4.125,11.363c-.051.347-.1.751-.151,1.18-.265,2.227-.629,5.276-2.063,5.62A2.055,2.055,0,0,1,18.862,40ZM2.8,29.859c-.039,0-.062.023-.07.071a.112.112,0,0,0,.066.1,1.159,1.159,0,0,1,.183.086.847.847,0,0,0,.234.1l.013,0a.325.325,0,0,0,.074.012.064.064,0,0,0,.048-.016.05.05,0,0,0,.011-.039c-.009-.143-.163-.189-.3-.229a1.012,1.012,0,0,1-.118-.04L2.929,29.9a.366.366,0,0,0-.13-.041Zm5.462-.139c.009,0,.015,0,.017.007a.393.393,0,0,0,.361.186.656.656,0,0,1,.226.051.119.119,0,0,0,.054.013.128.128,0,0,0,.111-.062.1.1,0,0,0-.006-.1.286.286,0,0,0-.194-.1.641.641,0,0,1-.117-.034.738.738,0,0,1-.106-.063.4.4,0,0,0-.214-.089H8.385a.385.385,0,0,0-.277.079.1.1,0,0,0-.021.081c0,.032.026.047.065.047a.35.35,0,0,0,.059-.007h.006A.258.258,0,0,1,8.261,29.72Zm-6.176-.195h0c-.05,0-.08.01-.089.03a.13.13,0,0,0,0,.11c.037.079.161.115.243.139l.024.007a.825.825,0,0,1,.119.052.489.489,0,0,0,.187.066.088.088,0,0,0,.076-.038.1.1,0,0,0,.009-.115.806.806,0,0,0-.566-.251Zm.87-.817c-.038,0-.089.018-.112.1-.012.043.041.057.1.073s.126.034.119.09-.077.074-.137.079a.146.146,0,0,0-.09.024.343.343,0,0,0-.085.207.158.158,0,0,0,.078.127.234.234,0,0,0,.037,0c.157,0,.279-.161.335-.3a.289.289,0,0,0-.041-.271.277.277,0,0,0-.2-.135ZM24.964,21.8c-.043,0-.074.036-.105.074-.011.013-.022.026-.033.038a.6.6,0,0,0-.165.418.159.159,0,0,0,.042.115.04.04,0,0,0,.025.009c.089,0,.249-.276.3-.475.016-.064.026-.144-.014-.165a.1.1,0,0,0-.049-.014Zm.235-.571c-.041,0-.09.045-.136.123-.062.107-.106.261-.07.324a.051.051,0,0,0,.047.026c.111,0,.152-.137.187-.259.007-.025.014-.049.022-.071a.172.172,0,0,0-.01-.122.045.045,0,0,0-.033-.022H25.2Zm-11.38-.661a.046.046,0,0,0-.033.014c-.117.11-.089.326-.024.49.073.185.227.383.392.383a.2.2,0,0,0,.084-.018.248.248,0,0,0,.13-.215,2.543,2.543,0,0,0-.347-1.175.059.059,0,0,0-.036-.013.042.042,0,0,0-.032.013.024.024,0,0,0-.005.02.978.978,0,0,0,.042.155,1.159,1.159,0,0,1,.038.131.562.562,0,0,0,.033.1c.035.086.072.175,0,.23a.06.06,0,0,1-.038.014.2.2,0,0,1-.108-.063l0,0C13.882,20.593,13.849,20.565,13.82,20.565Zm-3.149-3.09a.133.133,0,0,1,.11.042c.038.046.018.112,0,.182s-.044.144-.005.2a.529.529,0,0,1,.08.27c.011.106.02.2.126.222a.123.123,0,0,0,.028,0,.081.081,0,0,0,.068-.034.416.416,0,0,0,.016-.3c-.013-.044-.025-.088-.038-.132s-.029-.105-.045-.157a.183.183,0,0,1,.044-.181.477.477,0,0,0,.077-.15c.042-.145-.061-.255-.17-.372a.61.61,0,0,1-.207-.353,1.006,1.006,0,0,0-.091-.283c0-.158-.033-.255-.115-.3a.211.211,0,0,1,.009-.174.149.149,0,0,1,.116-.054h.005c.037,0,.053.043.069.095s.028.1.06.1l.015,0a.282.282,0,0,0,.157-.345c-.033-.182-.172-.377-.324-.377a.176.176,0,0,0-.08.019.062.062,0,0,0-.034.038c-.013.044.024.108.061.17s.074.127.059.17a.065.065,0,0,1-.041.038.111.111,0,0,1-.04.009c-.063,0-.079-.078-.1-.16s-.032-.158-.093-.164h-.016c-.131,0-.217.155-.279.269l-.013.024a1.029,1.029,0,0,0-.039.834.457.457,0,0,0,.3.284.134.134,0,0,0,.035.005.065.065,0,0,0,.057-.029.43.43,0,0,0-.026-.307.927.927,0,0,1-.071-.291.223.223,0,0,1,.044-.146.073.073,0,0,1,.054-.024.252.252,0,0,1,.115.024,1.87,1.87,0,0,0,.1.257l.017.04a2.716,2.716,0,0,1-.054.4,2.226,2.226,0,0,0-.048.352.078.078,0,0,1-.062.051H10.49c-.012,0-.015-.018-.017-.033a.088.088,0,0,0-.006-.023.063.063,0,0,0-.018-.023l-.006-.006c-.006-.007-.015-.018-.026-.018a.022.022,0,0,0-.015.007c-.079.075.019.21.083.3l.025.036c.007.01.021.015.045.015s.031,0,.05,0A.616.616,0,0,1,10.671,17.475ZM8.179,14.81H8.174c-.114,0-.185.1-.19.256s.076.362.2.374H8.2a.132.132,0,0,0,.1-.043.384.384,0,0,0,.075-.273C8.366,14.969,8.3,14.81,8.179,14.81Zm2.957-1.253a.141.141,0,0,0-.106.041c-.071.074-.065.231-.06.357v.031a1.4,1.4,0,0,0,.275.726.133.133,0,0,0,.095.066.073.073,0,0,0,.04-.013c.088-.057.068-.168.049-.276a.353.353,0,0,1,0-.187.865.865,0,0,0,0-.552.267.267,0,0,0-.138-.158A.4.4,0,0,0,11.136,13.557Zm-3.65-.063a.126.126,0,0,0-.077.023.52.52,0,0,0-.186.375.256.256,0,0,0,.076.21c.131.111.19.126.234.126a.31.31,0,0,0,.064-.009l.008,0a.407.407,0,0,1,.087-.01.483.483,0,0,1,.118.016.1.1,0,0,0,.024,0A.223.223,0,0,0,8,14.1a.1.1,0,0,0-.012-.075c-.014-.034-.028-.069,0-.095a.076.076,0,0,1,.058-.025.194.194,0,0,1,.072.018l.006,0a.156.156,0,0,0,.05.016h.008a.636.636,0,0,0,.324-.3.161.161,0,0,0-.009-.13.234.234,0,0,0-.231-.115c-.036,0-.064,0-.073-.017s0-.041.025-.085.1-.055.172-.059.166-.012.187-.085a.364.364,0,0,0-.072-.279.2.2,0,0,0-.151-.09.148.148,0,0,0-.033,0c-.053.012-.042.064-.032.105a.1.1,0,0,1,0,.053l-.016.036a.348.348,0,0,1-.1.149l-.009,0a.482.482,0,0,1-.156-.1.276.276,0,0,1-.058-.08c-.031-.054-.062-.109-.119-.109l-.019,0a.116.116,0,0,0-.1.081.348.348,0,0,0,.1.293c.066.068.03.129-.012.2l-.008.014a.148.148,0,0,1-.137.084.48.48,0,0,1-.09-.012A.475.475,0,0,0,7.486,13.494Zm-.216-.469a.153.153,0,0,0-.118.067.141.141,0,0,0-.029.122.2.2,0,0,0,.184.123.127.127,0,0,0,.1-.046.133.133,0,0,0,.018-.138.206.206,0,0,0-.142-.127ZM6.445,29.751a.118.118,0,0,1-.091-.033.154.154,0,0,1-.009-.155.249.249,0,0,1,.178-.167h.012a.17.17,0,0,1,.125.067.14.14,0,0,1,.031.12A.261.261,0,0,1,6.445,29.751Zm-2.32-.972c-.145,0-.292-.058-.295-.188a.081.081,0,0,1,.023-.06A.211.211,0,0,1,4,28.492a.6.6,0,0,1,.087.007.3.3,0,0,1,.235.179.061.061,0,0,1-.023.068A.388.388,0,0,1,4.125,28.78Zm-1.787-.189c-.313,0-.678-.191-.68-.436a.082.082,0,0,1,.023-.061.185.185,0,0,1,.132-.037,1.637,1.637,0,0,1,.757.268l.007.006a.482.482,0,0,1,.072.068c.024.03.027.054.012.073A.406.406,0,0,1,2.338,28.591ZM.3,28.545c-.139,0-.292-.07-.3-.174a.108.108,0,0,1,.027-.084.173.173,0,0,1,.128-.042.414.414,0,0,1,.323.145.077.077,0,0,1,0,.084A.2.2,0,0,1,.3,28.545Zm16.538-3.153c-.077,0-.146-.1-.16-.193s.015-.133.073-.151a.117.117,0,0,1,.035-.006c.074,0,.127.074.147.147a.167.167,0,0,1-.045.189A.1.1,0,0,1,16.837,25.392Zm.2-.372a.074.074,0,0,1-.069-.043,1.372,1.372,0,0,1-.138-.333,3.35,3.35,0,0,0-.11-.326c-.014-.037-.04-.091-.065-.142l-.031-.064c-.011-.023-.027-.049-.044-.077-.045-.075-.1-.161-.076-.22a.1.1,0,0,1,.065-.056.154.154,0,0,1,.053-.009.274.274,0,0,1,.186.1.686.686,0,0,1,.192.433.124.124,0,0,0,.055.118.353.353,0,0,1,.033.03,1.037,1.037,0,0,0,.091.081c.084.07.18.149.181.236a.167.167,0,0,1-.07.126C17.234,24.92,17.119,25.02,17.038,25.02Zm1.045-.1c-.056,0-.107-.057-.145-.1-.011-.012-.022-.024-.031-.032-.072-.066-.144-.129-.215-.192a3.5,3.5,0,0,1-.786-.869.02.02,0,0,1,0-.018.069.069,0,0,1,.038-.034l.012,0a.121.121,0,0,1,.068.036.128.128,0,0,0,.068.036.042.042,0,0,0,.018,0c.028-.014.028-.052.027-.092s0-.088.033-.106a.052.052,0,0,1,.023-.006.1.1,0,0,1,.066.038,6.015,6.015,0,0,1,.854,1.156l.012.017c.028.038.076.1.011.15A.091.091,0,0,1,18.083,24.918Zm-1.769-.535a.129.129,0,0,1-.086-.038.184.184,0,0,1-.039-.193.207.207,0,0,1,.14-.153l.03,0a.1.1,0,0,1,.084.036.194.194,0,0,1,.027.157C16.454,24.283,16.393,24.383,16.314,24.383Zm.125-.641c-.17,0-.33-.292-.338-.523,0-.077.012-.208.138-.216h.012c.159,0,.315.223.355.423.03.152-.008.262-.107.3A.154.154,0,0,1,16.438,23.742Zm-1.52-1.763a.283.283,0,0,1-.218-.145.158.158,0,0,1-.009-.163.168.168,0,0,1,.149-.087.233.233,0,0,1,.2.124.208.208,0,0,1-.027.224A.111.111,0,0,1,14.918,21.979Zm-1.3-2.718a.3.3,0,0,1-.154-.05.267.267,0,0,1-.093-.232.127.127,0,0,1,.072-.1.251.251,0,0,1,.1-.019.234.234,0,0,1,.217.124c.033.071-.026.151-.079.221-.013.018-.026.035-.037.051S13.631,19.261,13.621,19.261Zm1.2-.038c-.158,0-.232-.225-.3-.443a1.8,1.8,0,0,0-.1-.261.962.962,0,0,1-.081-.294c-.01-.057-.019-.116-.034-.171a2.012,2.012,0,0,0-.1-.273.438.438,0,0,0-.041-.07.217.217,0,0,1-.049-.11.385.385,0,0,0-.107-.256l0-.005-.021-.029c-.088-.12-.234-.319-.2-.453a.171.171,0,0,1,.113-.108.06.06,0,0,1,.021,0c.25,0,.942,1.444,1.029,2.147.024.2,0,.3-.084.324A.188.188,0,0,1,14.821,19.224Zm-.679-.549c-.073,0-.094-.092-.117-.188s-.044-.189-.115-.205a.169.169,0,0,0-.038,0,.419.419,0,0,0-.069.007.332.332,0,0,1-.059.009.043.043,0,0,1-.035-.013.106.106,0,0,1-.011-.08.558.558,0,0,0-.07-.3.939.939,0,0,1-.058-.15,1.628,1.628,0,0,0-.072-.2c-.071-.172-.144-.35-.051-.493A.1.1,0,0,1,13.529,17c.081,0,.157.149.194.22l.026.05a.654.654,0,0,1,.084.22.783.783,0,0,0,.111.282.624.624,0,0,1,.111.376.283.283,0,0,0,.066.161c.012.018.023.035.033.052l.018.032c.041.072.092.161.07.221a.089.089,0,0,1-.058.052A.122.122,0,0,1,14.142,18.674Zm-6.87-1.952a.072.072,0,0,1-.044-.013.283.283,0,0,1-.04-.348.059.059,0,0,1,.045-.018.054.054,0,0,1,.031.008.272.272,0,0,1,.094.165.234.234,0,0,1-.03.183A.069.069,0,0,1,7.272,16.723Zm-.234-.961c-.035,0-.079-.037-.121-.1a.61.61,0,0,1-.081-.516c.014-.032.029-.048.045-.048s.048.033.071.066a.323.323,0,0,0,.037.047.185.185,0,0,1,.031.175.21.21,0,0,0,0,.118c.007.015.018.032.029.051.034.058.077.13.056.172a.078.078,0,0,1-.066.036Zm5.724-.108a.276.276,0,0,1-.12-.026.106.106,0,0,1-.052-.128.2.2,0,0,1,.161-.151h.005a.248.248,0,0,1,.171.086.119.119,0,0,1,.021.1A.172.172,0,0,1,12.762,15.654ZM12.049,14.6h-.013c-.11-.006-.2-.107-.244-.27a.532.532,0,0,1,.137-.561.177.177,0,0,1,.1-.031c.145,0,.24.222.257.432a.5.5,0,0,1-.088.369A.19.19,0,0,1,12.049,14.6ZM6.994,12.663a.115.115,0,0,1-.032,0c-.126-.035-.155-.187-.184-.334a1.085,1.085,0,0,0-.052-.2c-.01-.024-.025-.055-.042-.088-.054-.107-.121-.24-.084-.3a.084.084,0,0,1,.074-.036h.006c.1,0,.123.111.147.229a.439.439,0,0,0,.112.264.162.162,0,0,0,.079.019.231.231,0,0,1,.126.036c.052.043.045.163.012.253S7.06,12.663,6.994,12.663Zm4.494-.3a.044.044,0,0,1-.018,0,.322.322,0,0,1-.164-.2.123.123,0,0,1,.038-.118A.1.1,0,0,1,11.412,12c.043,0,.087.036.12.1a.251.251,0,0,1,.023.218A.094.094,0,0,1,11.488,12.36Zm-2.522,0a.162.162,0,0,1-.081-.023.1.1,0,0,1-.039-.12c.022-.081.11-.178.188-.178h.015a.113.113,0,0,1,.1.132A.2.2,0,0,1,8.966,12.359Zm.915-.435a.082.082,0,0,1-.064-.034.185.185,0,0,1-.005-.16c.005-.021.01-.041.012-.06s0-.021,0-.033c0-.048.009-.108.049-.108.06,0,.068.08.075.156a.585.585,0,0,0,.011.078.147.147,0,0,1-.019.127A.081.081,0,0,1,9.881,11.924ZM6.7,11.6c-.1,0-.179-.134-.186-.249,0-.086.033-.139.1-.147h.013c.093,0,.174.117.189.222a.137.137,0,0,1-.09.17A.107.107,0,0,1,6.7,11.6Zm2.531-.07a.06.06,0,0,1-.046-.016c-.024-.025-.021-.077-.018-.142a.564.564,0,0,0-.068-.351.292.292,0,0,0-.1-.089.405.405,0,0,1-.1-.078c-.021-.022-.013-.1.007-.142.013-.03.03-.047.048-.047.227.006.465.327.493.576a.231.231,0,0,1-.17.282A.2.2,0,0,1,9.227,11.53Zm2.319-.029a.236.236,0,0,1-.075-.453.171.171,0,0,1,.088-.025.213.213,0,0,1,.192.157.259.259,0,0,1-.119.294A.148.148,0,0,1,11.546,11.5Zm-.959-.052a.222.222,0,0,1-.1-.024.1.1,0,0,1-.049-.074l0-.012a.577.577,0,0,1,.04-.485.143.143,0,0,1,.113-.066c.048,0,.122.03.2.173a.419.419,0,0,1-.031.369A.21.21,0,0,1,10.587,11.449Zm-4.022-.334H6.55a.1.1,0,0,1-.073-.049.142.142,0,0,1-.026-.1c.03-.078-.013-.1-.063-.125a.185.185,0,0,1-.109-.106.279.279,0,0,1,.048-.225.161.161,0,0,1,.128-.074l.029,0c.161.033.281.3.262.487C6.733,11.05,6.669,11.115,6.564,11.115Zm3.548-.067a.133.133,0,0,1-.1-.044.82.82,0,0,0-.083-.1c-.076-.087-.155-.176-.1-.252A.091.091,0,0,1,9.9,10.6c.11,0,.24.251.274.387a.051.051,0,0,1-.031.051A.087.087,0,0,1,10.112,11.049Zm-1.387-.066a.06.06,0,0,1-.046-.019.852.852,0,0,1-.109-.448l0-.053a.625.625,0,0,0-.064-.188c-.057-.127-.117-.259-.009-.338a.057.057,0,0,1,.035-.013c.027,0,.05.024.071.048l0,.005c.019.022.037.043.054.043a.051.051,0,0,0,.035-.046,1.523,1.523,0,0,0-.074-.482L8.6,9.423a2.164,2.164,0,0,1-.022-.5,3.037,3.037,0,0,0-.09-.986,8.972,8.972,0,0,0-.6-.955l-.008-.011A.389.389,0,0,0,7.784,6.9c-.049-.03-.1-.058-.1-.116A.685.685,0,0,1,7.7,6.56a.455.455,0,0,0-.033-.354.224.224,0,0,1,.005-.2A.458.458,0,0,0,7.692,5.6l-.007-.028a1.236,1.236,0,0,1-.027-.238c0-.029,0-.057-.005-.086a.163.163,0,0,1,0-.041c0-.02.007-.039,0-.046A.618.618,0,0,1,7.5,4.69a.847.847,0,0,0-.066-.351.411.411,0,0,1,.048-.388.867.867,0,0,0,.072-.183c.012-.057.13-.238.265-.238a.152.152,0,0,1,.084.026c.083.054.036.144-.01.23-.036.068-.07.133-.031.171a.968.968,0,0,1,.167.222c.053.091.092.156.207.163a.161.161,0,0,0,.1-.062l.008-.008A.179.179,0,0,1,8.462,4.2a.1.1,0,0,1,.033.006.234.234,0,0,1,.129.132.189.189,0,0,1,0,.155.073.073,0,0,1-.074.039l-.041,0-.04,0a.06.06,0,0,0-.05.017c-.017.02-.01.057-.006.08s.012.068.019.1a1.349,1.349,0,0,1,.023.135c.021.212-.023.22-.151.243a1.07,1.07,0,0,0-.236.065C8,5.2,7.981,5.3,8,5.381s.068.164.148.164h.01c.049,0,.054-.058.06-.109s.009-.083.037-.092A.139.139,0,0,1,8.3,5.336c.152,0,.342.237.363.453a.233.233,0,0,1-.2.276l-.016,0c-.066,0-.084-.089-.1-.183V5.877c-.017-.089-.037-.19-.113-.19H8.224a.127.127,0,0,0-.115.069.613.613,0,0,0,.1.475.228.228,0,0,1,.016.278.236.236,0,0,0,.034.3c.023.03.044.066.067.1.065.108.138.23.246.23l.022,0c.073-.011.091-.089.108-.164a.239.239,0,0,1,.072-.152l.007,0c.032,0,.077.137.094.292a.408.408,0,0,1-.031.274.052.052,0,0,1-.04.019l-.016,0c-.026-.006-.039-.04-.052-.076s-.035-.092-.08-.092H8.649a.077.077,0,0,0-.054.032.206.206,0,0,0-.026.14c.037.222.086.451.148.7.007.026.044.158.123.158a.088.088,0,0,0,.041-.011.074.074,0,0,0,.04-.044.206.206,0,0,0-.04-.137c-.024-.045-.047-.088-.033-.116a.048.048,0,0,1,.039-.028c.121.016.19.132.257.243a1.222,1.222,0,0,0,.086.131.4.4,0,0,0,.262.15.6.6,0,0,1,.477.465,1.174,1.174,0,0,0,.074.2c.071.165.145.336.029.456a.115.115,0,0,1-.076.043c-.067,0-.1-.116-.142-.229a.664.664,0,0,0-.07-.169.661.661,0,0,1-.074-.163c-.038-.106-.077-.217-.164-.217l-.022,0c-.036.007-.031.048-.027.084s.006.048,0,.058a.176.176,0,0,1-.125.04.88.88,0,0,1-.136-.015A.837.837,0,0,0,9.094,9a.154.154,0,0,0-.141.064c-.044.065,0,.143.041.211.011.019.022.037.03.054a.708.708,0,0,1,.068.464.475.475,0,0,0,.034.22l.013.043c.055.191-.021.259-.137.362a1.2,1.2,0,0,0-.18.186.354.354,0,0,0-.018.134c0,.1-.01.223-.063.237Zm2.751-.026a.115.115,0,0,1-.117-.089c-.013-.04.017-.064.043-.084a.125.125,0,0,0,.03-.029.169.169,0,0,0,.023-.16.081.081,0,0,0-.075-.038l-.031,0a.429.429,0,0,1-.079.008.314.314,0,0,1-.277-.2.257.257,0,0,0-.076-.072l-.012-.009a.219.219,0,0,0-.041-.023.249.249,0,0,1-.037-.02.418.418,0,0,1-.159-.275.176.176,0,0,1,.03-.138.043.043,0,0,1,.033-.017.14.14,0,0,1,.064.029.424.424,0,0,0,.248.078c.055,0,.1-.045.135-.089a.231.231,0,0,1,.112-.085.209.209,0,0,1,.037,0c.131,0,.159.144.184.271,0,.021.008.042.013.061a.774.774,0,0,0,.145.345.307.307,0,0,1,.043.385A.3.3,0,0,1,11.476,10.957Zm-3.168-.924a.186.186,0,0,1-.1-.039c-.083-.057-.058-.156-.033-.251a.342.342,0,0,0,.018-.161.309.309,0,0,0-.1-.121C8.02,9.4,7.944,9.328,8,9.246a.13.13,0,0,1,.109-.065c.124,0,.274.19.286.362,0,.013,0,.028,0,.045.011.132.03.35-.036.422A.07.07,0,0,1,8.307,10.033ZM7.47,9.87a.384.384,0,0,1-.084-.01A.04.04,0,0,1,7.36,9.84c-.023-.038,0-.122.015-.171l0-.008a1.084,1.084,0,0,0-.087-.748L7.275,8.88c-.025-.054-.054-.114-.023-.157a.107.107,0,0,1,.087-.053c.091,0,.181.134.212.258l.017.064c.068.262.17.657.049.812A.175.175,0,0,1,7.47,9.87Zm.44-.063c-.09,0-.16-.1-.173-.187a.179.179,0,0,1,.141-.208.139.139,0,0,1,.038-.006.129.129,0,0,1,.118.1A.27.27,0,0,1,8,9.772.138.138,0,0,1,7.911,9.807Zm.29-.655a.073.073,0,0,1-.058-.029.28.28,0,0,1-.039-.2.837.837,0,0,1,.074-.217c0-.009.032-.017.061-.017A.075.075,0,0,1,8.28,8.7c.032.026.078.081.072.119a.788.788,0,0,0-.008.087c0,.09-.009.183-.083.228A.118.118,0,0,1,8.2,9.151ZM6.7,8.669a.064.064,0,0,1-.05-.021c-.052-.058-.031-.226-.012-.388.009-.079.018-.152.02-.215a.424.424,0,0,0-.074-.216.456.456,0,0,1-.065-.154.239.239,0,0,1,.019-.18.149.149,0,0,1,.106-.052.219.219,0,0,0,.1-.115.084.084,0,0,0-.024-.1.068.068,0,0,0-.045-.02c-.036,0-.068.035-.1.075l-.006.007c-.029.035-.056.069-.083.069a.032.032,0,0,1-.016,0,.059.059,0,0,1-.028-.038.15.15,0,0,1,.021-.1.752.752,0,0,1,.131-.14c.094-.085.19-.174.164-.293-.016-.071-.1-.1-.163-.1H6.577c-.045,0-.076.056-.108.112s-.074.127-.136.127A.1.1,0,0,1,6.3,6.921c-.115-.037-.112-.167-.109-.292a.567.567,0,0,0-.015-.187A.47.47,0,0,1,6.2,6.013c.013-.022-.006-.059-.029-.1-.033-.061-.07-.13-.019-.177a.028.028,0,0,1,.02-.008.114.114,0,0,1,.058.032A.134.134,0,0,0,6.3,5.8a.042.042,0,0,0,.022-.006.193.193,0,0,0,.084-.146A.267.267,0,0,1,6.476,5.5a.549.549,0,0,0,.063-.088c.035-.056.068-.109.112-.109a.069.069,0,0,1,.035.011.189.189,0,0,1,.071.189.657.657,0,0,0,.057.311.986.986,0,0,1,.061.226c.015.125.038.24.06.351a1.708,1.708,0,0,1,.045.66c-.021.11-.033.208-.046.312-.016.127-.032.257-.064.413A.153.153,0,0,0,6.9,7.9a.166.166,0,0,0,.133.055A.3.3,0,0,0,7.194,7.9a.292.292,0,0,1,.174-.052.859.859,0,0,1,.133.014h.006a.893.893,0,0,0,.128.013A.338.338,0,0,0,7.7,7.874c.026,0,.089.082.092.128a.181.181,0,0,1-.088.128c-.061.032-.09.119-.121.212-.041.124-.084.252-.21.252a.648.648,0,0,1-.351-.179A.06.06,0,0,0,6.989,8.4c-.032,0-.055.04-.084.091a.328.328,0,0,1-.172.174A.124.124,0,0,1,6.7,8.669Zm1.492-.054A.155.155,0,0,1,8.115,8.6c-.112-.063-.133-.2-.154-.326a1.081,1.081,0,0,0-.031-.149A.915.915,0,0,1,7.9,7.969a.553.553,0,0,0-.058-.218.372.372,0,0,0-.152-.115.6.6,0,0,1-.127-.081.59.59,0,0,1-.138-.229.226.226,0,0,1-.018-.181.077.077,0,0,1,.059-.036h.016c.072,0,.082.084.092.165s.016.134.06.146a.1.1,0,0,0,.024,0c.074,0,.08-.111.08-.224V7.176c0-.1,0-.2.056-.2a.075.075,0,0,1,.031.008c.042.018.043.072.044.124a.419.419,0,0,0,0,.059.436.436,0,0,1,0,.082.185.185,0,0,0,.02.119.624.624,0,0,1,.114.319c.007.044.014.09.025.134.025.1.059.194.091.288.016.045.031.088.045.132a.5.5,0,0,0,.055.1c.046.074.095.151.05.226A.1.1,0,0,1,8.188,8.615Zm2.326-.364-.021,0a.775.775,0,0,1-.541-.684c-.008-.119-.079-.31-.238-.345A.541.541,0,0,0,9.6,7.2a.182.182,0,0,0-.122.045.445.445,0,0,1-.195.083l-.025,0c-.126,0-.216-.194-.249-.385-.031-.176-.016-.371.071-.4l.012,0c.04,0,.077.074.083.113.032.2.171.412.328.412a.194.194,0,0,0,.128-.052c.166-.142.04-.379-.082-.608s-.242-.456-.1-.606a.1.1,0,0,1,.069-.038.07.07,0,0,1,.051.025.237.237,0,0,1,.053.152,1.662,1.662,0,0,0,.193.751.544.544,0,0,1,.034.146.732.732,0,0,0,.022.115.569.569,0,0,1,.015.106c.008.093.017.2.106.207H10c.085,0,.109-.1.132-.2s.041-.177.106-.187l.028,0a.15.15,0,0,1,.132.08.366.366,0,0,1-.009.342.145.145,0,0,0,0,.093.4.4,0,0,1,.009.05.225.225,0,0,0,.076.131.2.2,0,0,1,.067.234.237.237,0,0,0,.039.163.261.261,0,0,1,.035.231A.125.125,0,0,1,10.514,8.251ZM9.509,8.061h0c-.081,0-.128-.1-.126-.2,0-.078.036-.169.129-.169H9.52c.088.007.125.1.121.183S9.59,8.061,9.509,8.061ZM7.237,6.719A.1.1,0,0,1,7.184,6.7a1.241,1.241,0,0,1-.172-.748c.01-.1.041-.163.089-.18a.064.064,0,0,1,.021,0c.063,0,.106.1.116.141.038.183.069.386.1.621a.218.218,0,0,1-.04.159A.074.074,0,0,1,7.237,6.719Zm1.926-.475c-.053,0-.115-.061-.149-.149a.205.205,0,0,1,.018-.22.069.069,0,0,1,.048-.019c.085,0,.2.136.213.247a.124.124,0,0,1-.117.14ZM7.05,5.718h0a.182.182,0,0,1-.116-.135.245.245,0,0,1,.039-.111c.028-.053.057-.107.024-.15a.044.044,0,0,0-.037-.016.192.192,0,0,0-.056.013.206.206,0,0,1-.055.013.037.037,0,0,1-.021-.005c-.058-.039-.065-.124-.07-.206s-.014-.191-.1-.222a.1.1,0,0,0-.033-.006c-.055,0-.1.05-.148.094l0,0c-.046.047-.09.091-.137.091a.073.073,0,0,1-.022,0,.356.356,0,0,1-.246-.234,1.3,1.3,0,0,1,.32-.971A1,1,0,0,0,6.477,3.6a.178.178,0,0,0-.019-.068.15.15,0,0,1-.005-.15c.042-.065.126-.069.216-.074a.3.3,0,0,0,.218-.065c.007-.008.016-.025.008-.035a.093.093,0,0,0-.076-.029.188.188,0,0,0-.089.022.562.562,0,0,1-.291.092.3.3,0,0,1-.228-.1.2.2,0,0,1-.06-.188c.033-.138.235-.26.412-.328a.151.151,0,0,1,.052-.012c.061,0,.064.069.066.149a.288.288,0,0,0,.051.195.283.283,0,0,0,.179.071.143.143,0,0,0,.131-.072c.047-.081-.02-.142-.079-.2a.234.234,0,0,1-.076-.094A.309.309,0,0,1,6.895,2.6a.2.2,0,0,0-.01-.157.66.66,0,0,0-.213-.183c-.05-.03-.087-.052-.089-.083s.024-.061.083-.109a.063.063,0,0,1,.043-.013.3.3,0,0,1,.048.006.326.326,0,0,0,.047.006.148.148,0,0,1,.044.011.167.167,0,0,0,.052.012.05.05,0,0,0,.039-.017c.047-.052.017-.125-.013-.2s-.049-.117-.027-.16a.3.3,0,0,1,.23-.18.135.135,0,0,1,.055.011c.055.022.05.116.035.159a.656.656,0,0,0,0,.631,1.122,1.122,0,0,1,.1.16,1.056,1.056,0,0,1,.016.6c-.024.1.035.164.1.233a.368.368,0,0,1,.126.3c-.006.056-.059.067-.141.067H7.334a.227.227,0,0,0-.2.064s0,.011.006.025a.993.993,0,0,1-.014.647.242.242,0,0,0,.041.162.274.274,0,0,1,.042.215s-.008,0-.021.008c-.034.009-.1.027-.093.086a.277.277,0,0,0,.076.166.17.17,0,0,1,.039.212.375.375,0,0,0-.021.176.557.557,0,0,1-.008.149A.19.19,0,0,1,7.05,5.718ZM5.639,5.528a.155.155,0,0,1-.052-.008.121.121,0,0,1-.075-.088.19.19,0,0,1,.03-.162.14.14,0,0,1,.111-.047.285.285,0,0,1,.162.056.107.107,0,0,1,.052.121A.26.26,0,0,1,5.639,5.528Zm.547-.015a.136.136,0,0,1-.1-.038.706.706,0,0,1-.146-.292c-.01-.029-.019-.058-.029-.086,0,0,0,0,0-.009a.2.2,0,0,1,.111-.072.4.4,0,0,1,.311.353.125.125,0,0,1-.036.093A.166.166,0,0,1,6.186,5.514ZM9.167,5.4a.17.17,0,0,1-.076-.016C9,5.332,9,5.219,8.995,5.11a.646.646,0,0,0-.012-.15.457.457,0,0,1,.12-.385.139.139,0,0,1,.1-.042.062.062,0,0,1,.026,0,.145.145,0,0,1,.05.121,1,1,0,0,1-.058.257c-.025.065.009.113.044.165a.251.251,0,0,1,.061.2A.152.152,0,0,1,9.167,5.4ZM4.847,5.308a.1.1,0,0,1-.065-.02c-.1-.078-.02-.265.037-.369l0-.008c.016-.031.058-.113.119-.113a.074.074,0,0,1,.026,0,.168.168,0,0,1,.094.1.356.356,0,0,1-.012.273A.261.261,0,0,1,4.847,5.308Zm4.242-.846c-.162,0-.3-.263-.393-.454L8.652,3.92A.188.188,0,0,1,8.7,3.745a.153.153,0,0,1,.078-.017.16.16,0,0,1,.11.033,3.4,3.4,0,0,1,.342.449.173.173,0,0,1-.008.189A.2.2,0,0,1,9.089,4.462Zm-.129-.805c-.072,0-.159-.094-.223-.162l-.03-.032a.96.96,0,0,1-.363-.684A.218.218,0,0,1,8.488,2.6a.357.357,0,0,1,.074-.008c.236,0,.412.236.491.438a.585.585,0,0,1-.039.608A.075.075,0,0,1,8.961,3.657Zm-1.286-.5H7.662a.067.067,0,0,1-.038-.029.206.206,0,0,1-.048-.125.743.743,0,0,0-.165-.53.111.111,0,0,0-.045-.032.1.1,0,0,1-.048-.036.654.654,0,0,1-.025-.392,1.614,1.614,0,0,0,.017-.183.828.828,0,0,1,.019-.149.233.233,0,0,0,.006-.036.492.492,0,0,0-.085-.207c-.042-.069-.078-.128-.044-.18a.018.018,0,0,1,.017-.007h.034a.886.886,0,0,1,.209-.036c.121,0,.144.068.187.192.012.034.025.072.041.113.006.016.013.033.019.05A.385.385,0,0,0,7.8,1.73a.472.472,0,0,1,.144.507.377.377,0,0,1-.133.179c-.154.048-.132.143-.111.235a.346.346,0,0,1,.013.1.338.338,0,0,0,.025.132.5.5,0,0,1,.025.1.2.2,0,0,1-.019.147A.085.085,0,0,1,7.674,3.16Zm1.057-.609a.058.058,0,0,1-.035-.01c-.047-.035-.046-.1-.044-.173s0-.14-.048-.173A.426.426,0,0,0,8.4,2.132c-.043,0-.074-.007-.089-.029s-.011-.068.015-.149c.035-.111.121-.243.245-.25h.014c.15,0,.17.179.19.352a.973.973,0,0,0,.046.24.247.247,0,0,1-.044.242A.063.063,0,0,1,8.731,2.551Zm-.543-.8a.157.157,0,0,1-.135-.079.636.636,0,0,1-.019-.516A.528.528,0,0,0,8.006.593.7.7,0,0,1,7.868.131a.182.182,0,0,1,.1-.122A.074.074,0,0,1,8,0c.054,0,.063.093.071.175a.59.59,0,0,0,.013.091c.012.043.026.086.039.128a1.2,1.2,0,0,1,.079.631.392.392,0,0,0,.04.209c.01.027.02.054.028.08a.965.965,0,0,0,.057.138c.037.077.068.143.046.2a.174.174,0,0,1-.109.087A.22.22,0,0,1,8.188,1.754Z" transform="translate(26 40) rotate(180)" fill="#6f5a4d"/>
  </g>
</svg>
