<svg id="Group_18018" data-name="Group 18018" xmlns="http://www.w3.org/2000/svg" xmlns:xlink="http://www.w3.org/1999/xlink" width="197" height="204.71" viewBox="0 0 197 204.71">
  <defs>
    <linearGradient id="linear-gradient" x1="0.144" y1="0.151" x2="0.836" y2="0.885" gradientUnits="objectBoundingBox">
      <stop offset="0.002" stop-color="#7c7c7b"/>
      <stop offset="0.022" stop-color="#979796"/>
      <stop offset="0.048" stop-color="#b4b4b3"/>
      <stop offset="0.077" stop-color="#cbcbca"/>
      <stop offset="0.107" stop-color="#dcdbdb"/>
      <stop offset="0.141" stop-color="#e5e4e4"/>
      <stop offset="0.185" stop-color="#e9e8e8"/>
      <stop offset="0.231" stop-color="#d7d6d6"/>
      <stop offset="0.481" stop-color="#7c7c7b"/>
      <stop offset="0.601" stop-color="#b2b1b1"/>
      <stop offset="0.733" stop-color="#e9e8e8"/>
      <stop offset="0.975" stop-color="#7c7c7b"/>
    </linearGradient>
    <linearGradient id="linear-gradient-2" y1="0.5" x2="1" y2="0.5" gradientUnits="objectBoundingBox">
      <stop offset="0.002" stop-color="#7c7c7b"/>
      <stop offset="0.03" stop-color="#979796"/>
      <stop offset="0.067" stop-color="#b4b4b3"/>
      <stop offset="0.107" stop-color="#cbcbca"/>
      <stop offset="0.15" stop-color="#dcdbdb"/>
      <stop offset="0.197" stop-color="#e5e4e4"/>
      <stop offset="0.259" stop-color="#e9e8e8"/>
      <stop offset="0.733" stop-color="#e9e8e8"/>
      <stop offset="0.975" stop-color="#7c7c7b"/>
    </linearGradient>
    <linearGradient id="linear-gradient-3" x1="-0.093" y1="0.263" x2="1.101" y2="0.6" gradientUnits="objectBoundingBox">
      <stop offset="0.002" stop-color="#7c7c7b"/>
      <stop offset="0.022" stop-color="#979796"/>
      <stop offset="0.048" stop-color="#b4b4b3"/>
      <stop offset="0.077" stop-color="#cbcbca"/>
      <stop offset="0.107" stop-color="#dcdbdb"/>
      <stop offset="0.141" stop-color="#e5e4e4"/>
      <stop offset="0.185" stop-color="#e9e8e8"/>
      <stop offset="0.733" stop-color="#e9e8e8"/>
      <stop offset="0.975" stop-color="#7c7c7b"/>
    </linearGradient>
  </defs>
  <path id="Path_36" data-name="Path 36" d="M2168.721,367.818c-.082-.091.131-.415.516-.884-.008.284-.032.624-.058.983-.213.015-.375,0-.458-.1m20.287,5.174c-.086,0-.172.191-.269.5.289-.309.42-.508.269-.5m12.479-129.079c.207.536-2.292,1.785-2.267,2.379.038.568,1.294,1.162,1.167,1.77-.075.514-.571.983-.771,1.536a11.66,11.66,0,0,1-.6,1.623c-.215.42-1.226,1.135-1.49,1.564.558.221,1.455,1.277,2.059,1.479.534.174,1.59-1.22,2.143-1.058s.6,2.376,1.173,2.514c.479.1,1.375-1.564,1.867-1.46.62.136,1.263.06,1.857.168.617.119,1.132.682,1.7.77.6.1,1.089,1.066,1.648,1.135.519.065,1.165-1.254,1.642-1.21.565.037,1.072,1.886,1.591,1.89.451.017,1.018-1.375,1.434-1.408.04-.568-1.984-1.7-1.848-2.239s3.562-.007,3.773-.512c.233-.5.811-.479,1.1-.916s-.812-1.765-.467-2.129c.454-.473,2.8-1.058,3.347-1.393-.574-.3-2.623-1.516-3.2-1.8s-2.226,1.694-2.82,1.419c-.528-.239-.842-.886-1.391-1.1-.53-.233-.131-2.79-.677-2.994s-1.025-.718-1.588-.922c-.539-.2-2.188,2.741-2.747,2.572-.558-.2-.478-2.353-1.043-2.532s-1.572,1.264-2.148,1.114c-.558-.153-.516-2.789-1.087-2.923s-1.469,1.021-2.052.9-.861-1.912-1.435-2.019c-.527-.1-1.267.957-1.787.882-.214-.039.218.195,0,.161.476.437-.126,1.563.213,2.039s2.506.184,2.7.7m31.235,14.929.055.4c.12.94.207,1.934.607,2.052.413.372,2.184-1.473,2.6-1.1.475.443-.336,2.245.135,2.693s.277,1.5.742,1.964c.448.468,2.134-.252,2.577.228s1.273.618,1.7,1.1c.424.5,1.478,1.017,1.9,1.529-.149.6-2.39.783-2.669,1.325-.129.23.179.821.563,1.447.526-.664,1.053-1.5,1.381-1.907.222-.135,3.2,2.807,2.911,3.333,0,.015-.02.015-.02.015-.108.032-.206.059-.333.084a31.364,31.364,0,0,1-3.479-.748,5.918,5.918,0,0,1,.437.843,1.169,1.169,0,0,1,.454.34c.224.308,1.352.1,2.452-.205a1.4,1.4,0,0,0,.615-.2c.639-.174,1.027-.374,1.156-.183.372.539-2.97,3.475-2.619,4.028s2.341.017,2.672.579.569,1.125.9,1.7c.308.561,5.031-1.185,5.327-.609s1.193,1.006,1.482,1.6-.867,1.952-.6,2.542-5.186,3.624-4.933,4.219c.238.6.546,1.082.769,1.686s1,.935,1.221,1.559c.223.681,3.285.423,3.5,1.114.191.626-2.429,2.009-2.257,2.645s4.643.168,4.8.813,1.362,1.114,1.5,1.766c.1.458-2.881,1.493-4.512,2.279-1.4.438-5.637,3.254-6.031,2.822-.447-.5,2.187-3.871,1.712-4.351-.394-.4-4.56,3.189-4.961,2.82-.483-.458,2.614-4.832,2.121-5.254s-1.357-.492-1.874-.877.363-2.9-.167-3.27-2.635,1.486-3.174,1.161c-.56-.338-3.537,3.686-4.1,3.376-.625-.34,1.024-4.927.367-5.23-.577-.284-.984-1.056-1.584-1.3s-3.029,4.529-3.634,4.308-1.009-.418-1.633-.6.287-5.753-.34-5.9c-.7-.17-1.093-2.5-1.794-2.634-.718-.131-2.4,5.658-3.129,5.562s-1.036-4.011-1.774-4.063-1.627,4.254-2.362,4.242c-.67-.012-1.391-6.506-2.063-6.486s-1.585-.718-2.248-.662c-.68.054,0,3.019-.68,3.1-.115-.568-3.523.824-3.625.262-.1-.654-1.03-1.3-1.1-1.946s5.129-1.757,5.094-2.378c-.049-.722-5.65-1.258-5.65-1.94,0-.7,7.9-1.206,7.945-1.884.025-.68-5.485-1.7-5.418-2.364.088-.669-1.215-1.671-1.091-2.31.128-.72.968-1.453,1.16-2.131s-.192-1.776.053-2.421-.836-2.3-.53-2.9c.24-.443,2.281.376,3.709.77a1.932,1.932,0,0,0-.212-.635.391.391,0,0,1,.255-.109,11.3,11.3,0,0,1-.8-1.446c-.309-.738-1.116-1.581-1.235-2.3-.165-.819.771-2.4.816-3.174a1.071,1.071,0,0,1,.577.254,11.108,11.108,0,0,0,.425-1.206c.132-.63.834-1,1.078-1.585a9.271,9.271,0,0,1,.782-1.564c.346-.524.176-1.361.584-1.791a7.349,7.349,0,0,1,1.607-1.383c.477.252,1.2.1,1.675.368.578.316,1.309.738,1.874,1.075a.834.834,0,0,1-.155.342c.178.731.08,2.041.481,2.3.622.385,2.605-1.329,3.2-.92s-.176,2.771.413,3.193,2.669-1.159,3.245-.71c.342.265.137,1.207.031,2.022.229-.3.429-.477.616-.452.346.062.424.445.52,1.254Zm-7.144-.636c-.661.154-.595,2.346-1.033,3.088.438-.022.9.281,1.374.146.7-.19,1-.888,1.732-.972s1.225.354,1.972.383c.523.019,1.185-1.609,1.809-2.574a3.324,3.324,0,0,0-1.151-.424,21.663,21.663,0,0,0-2.281-.391,15.581,15.581,0,0,0-2.423.744Zm-7.392,6.4c1.048.1,2.31.319,2.516.086.385-.445-.266-1.639.165-2.018.31-.277-.043-1.484-.212-2.428a2.009,2.009,0,0,0-1.063.3,15.051,15.051,0,0,0-1.2,1.561,6.308,6.308,0,0,0-.206,2.5Zm.159-7.219a9.935,9.935,0,0,0-1.615.817c.591.473,1.217,1.079,1.529,1.022.738-.108,1.173-1.282,1.762-1.506.653-.254,1.82-.11,2.305-.482.371-.29.253-1.058.277-1.7a4.525,4.525,0,0,1-.552.645,6.065,6.065,0,0,1-1.6,1.062c-.608.274-1.368-.025-2.112.138Zm.432,12.082c.16.17.815-.155,1.653-.691-.025-.024-.043-.062-.068-.086-.636-.653-2.5-.46-3.025-1.107a2.85,2.85,0,0,1-.433-1.073c-.557.613-1,1.192-.79,1.463.489.623,2.067.86,2.662,1.494Zm8.958,5.312c.076.036.2-.014.321-.125-.357-.618-.638-1.545-1.122-1.762-.663-.312-.038-2.922-.717-3.342-.578-.355-1.071-.563-1.644-.989-.276-.2-1.037.2-1.824.633-.688,1.245-1.321,2.428-1.116,2.587.522.409.671,1.7,1.2,2.041.584.379,1.419.992,2.01,1.284.667.352,2.233-.572,2.888-.327Zm12.195-.033c.4-.245.547-.943.583-1.814-.078.045-.181.1-.245.139a18.644,18.644,0,0,1-2.274,1.258c.807.408,1.524.656,1.936.417m18.879,38.514.167.473a52.51,52.51,0,0,0-.377-7.082c-.131-.264-1.98-.18-3.629.043h-.029c-.263-.1-.566-.222-.9-.34l-.022-.011v-.032c.051-.157.135-.323.193-.487.2-.421.382-.847.238-1.1a.539.539,0,0,1,.022-.41v-.008l.009-.009c.313-.2.456-.364.454-.514a.235.235,0,0,0-.085-.144V303.6l.031-.034c.465-.693.948-1.4.783-1.667-.185-.263-1.664.35-2.985.892h-.01l-.013,0c-.286-.15-.425-.286-.437-.428-.038-.352.9-.78,1.875-1.221.917-.415,1.874-.863,1.836-1.172-.044-.279-.687-.408-1.375-.542-.343-.075-.7-.144-1.007-.238l-.03-.017.013-.028c.51-.622.73-1,.623-1.1-.027-.047-.122-.077-.391.019h0c-.685.327-1.032.568-1,.719s.237.3.678.439l.032.011-.023.034c-.45.551-1.046,1.189-1.613,1.805-1.076,1.159-2.182,2.361-2,2.583.175.25,1.733-.385,2.751-.8l.014-.008.005.008c.246.1.564.215.848.314a6.328,6.328,0,0,1,1.245.523l.021.015-.01.021a5.953,5.953,0,0,0-.367.588v.017h-.006l-.427.205c-.678.349-1.388.7-1.378,1.017.006.282.679.546,1.35.791l.028.006-.01.024a.679.679,0,0,0,.01.4c.062.11.336.134.83.073h.021a6.5,6.5,0,0,1,.968,1.036,46.4,46.4,0,0,1,3.075,5.376m-147.792-16.469a.719.719,0,0,1,0-.477c.322-.48,2.425.127,2.77-.331a1.423,1.423,0,0,0,.124-.963c-2.491-1.609-6.958-4.146-6.737-4.488.28-.421,4.3,1.649,6.715,2.641.022-.022.022-.073.055-.1a.516.516,0,0,0,.044-.073c.539.224,1.092.456,1.6.678.024-.017.055-.019.069-.043.17-.228-.674-1.254-1.509-2.284a2.575,2.575,0,0,1-.4,1.464c-1.554-.649-2.775-1.084-2.7-1.4.144-.7-1.331-1.9-1.155-2.577.108-.434,1.732-.479,3-.623-.031-.6-.132-1.291.144-1.563.494-.519.193-2.256.728-2.742.271-.239,2.613,1.9,4.7,3.774,1.118.069,2.059.086,2.135-.189.232-.678-.753-1.583-.522-2.245s-1.556-1.985-1.293-2.63c.244-.667-4.213-3.254-3.936-3.9s8.011,2.048,8.307,1.407-5.207-3.983-4.886-4.611c.3-.632,1.414-.879,1.746-1.5.377-.684-2.059-3.019-1.658-3.684s5.439,1.427,5.845.776c.43-.658,2.155-.359,2.589-1s-2.469-3.585-2.01-4.215.514-1.606,1-2.207c.479-.623,2.594.074,3.1-.52.49-.6-3.623-5.275-3.1-5.849.516-.6,2.48-2.718,3.016-3.288.081.265,2.071,5.736,2.171,6,.188.517.8.929,1.093,1.441.281.475-.259,1.666.114,2.133.4.518-1.175,3.368-.668,3.854.416.415,4.748-3.37,5.231-2.987.547.436,2.644-1.751,3.265-1.36.6.391-.89,4.009-.212,4.368.64.334.233,3.118.936,3.426.692.29,3.4-4.7,4.132-4.443.715.247-.441,6.512.313,6.734.662.164,2.393-3.77,3.058-3.619.761.159,1.966-3,2.759-2.864.684.1.113,10.217.809,10.28.791.08,2.178-6.183,2.995-6.15.692.041,1.358,1.854,2.071,1.854.807-.005,1.469-3.065,2.281-3.121s1.752,1.974,2.556,1.873.879-4.417,1.677-4.568c.791-.133,2.644,5.263,3.478,5.3-.106.226-.17.389-.137.482.148.691,2.845.8,2.975,1.512.107.65,1.313,1.159,1.607,1.792a4.972,4.972,0,0,1,1.873-.592c-.006.179-.591.656-1.4,1.252,1.031.617,3.656,1.159,3.68,1.848.05.739-1.626,1.765-1.613,2.523.011.832-.873,3.918-.91,4.781-.59-.163-4.376.59-4.972.445a2.741,2.741,0,0,1-.693-.31c-.357.142-.615.3-.659.493-.113.634,2.933,1.929,2.788,2.587-.15.716,3,2.37,2.814,3.1-.171.643-.773,1.333-.968,1.989-.215.727.213,1.828-.019,2.568s-2.01,1.09-2.278,1.826c-.222.587-4.891-.5-5.119.082s-4.773-.7-5.024-.125,5.74,3.858,5.489,4.424c-.294.633-1.621.8-1.927,1.422s-2.353.3-2.687.908-2.869-.172-3.21.408c-.35.6,8.076,6.566,7.711,7.128-.364.578-7.527-3.282-7.905-2.73-.427.615,3.8,4.587,3.359,5.176s-4-1.2-4.465-.636-1.174.871-1.645,1.4-3.942-1.919-4.438-1.413,2.938,4.9,2.423,5.389,2.116,4.763,1.583,5.2-5.876-5.059-6.425-4.652c-.608.456-.966,1.023-1.593,1.437s.351,3.381-.289,3.74-1.629.206-2.274.514c-.654.325-1.043,1.449-1.709,1.714s-.789,2.7-1.475,2.91-2.486-3.175-3.177-3.015-2.165-5.277-2.871-5.183-.545,7.493-1.262,7.535-1.436-3.539-2.151-3.564-1.17-.755-1.884-.851-2.456,5.317-3.16,5.155c-.728-.163-1.37-1.52-2.071-1.754-.584-.2-.973-1.17-1.527-1.4-.589-.243-3.31,3.564-3.861,3.282-.629-.324-.276-3.185-.854-3.544-.6-.384-.239-2.428-.791-2.845s-.86-1.262-1.363-1.725-2.757-.22-3.22-.735c-.184-.626-2.325-1.452-2.489-2.087-.17-.7,3.945-2.469,3.785-3.178s-3.785-.747-3.91-1.452,6.235-2.534,6.134-3.237c-.114-.718-8.917-.254-9-.966-.1-.8,7.341-2.451,7.258-3.262-.055-.716,1.42-1.458,1.375-2.188-.042-.714-1.583-1.288-1.606-2.017s2.174-1.372,2.18-2.1c0-.361-1.269-.729-2.594-1.1a5.2,5.2,0,0,1,.521,2.152c.018-.312-1.531-1.665-2.964-2.95-.251-.119-.414-.244-.414-.363-1.067-.953-1.964-1.8-1.94-2.039.043-.349,1.751-.465,3.536-.572m18.522-9.62c.464-.205-.412-3.6-1.054-6.409a20.326,20.326,0,0,1-2.085,1.6c-.308.146-.363.856-.363,1.7,1.155,1,2.889,3.376,3.5,3.109Zm8.741-3.86c.307-.065.4-1.325.435-2.938-.709-1.8-1.376-3.339-1.721-3.273-.84.166-1.4,2.37-2.216,2.572a10.125,10.125,0,0,0-1.149.379c.72,1.132,1.425,2.189,1.826,2.1.873-.222,1.934,1.344,2.825,1.164Zm8.1-3.9c.327-.026.6-.94.867-2.108-.277-.507-.547-.86-.78-.845-.746.068-1.211,3.48-1.89,4.389.622-.376,1.1-1.37,1.8-1.435Zm16.791,5.054c.5.094,1.477-2.071,2.411-4.093-.082-.471-.2-.778-.376-.812-.464-.091-1.351,2.28-2.21,4.563.049.2.1.324.176.342m20.124-43.512c-.225.471-1.162,1.327-1.47,1.854a.965.965,0,0,0,.691.3c.515-.06.886-1.03.779-2.157m-37.662,11-.146-.8c-.6-1.473-1.645-3.6-1.35-3.811.439-.3,2.632,1.889,3.076,1.59a.747.747,0,0,1,.614.065c.24-.725.409-1.865.756-1.906a3.175,3.175,0,0,0,.521-.138c-.264-1-.5-1.951-.251-2.075.515-.316,3.327,3.441,3.924,3.282.465-.665.955-1.643,1.351-1.592.187.008.327.438.439,1.018.59-.13,2.034,1.709,2.574,1.449.548-.245-2.48-8.439-1.928-8.68s3.628,5.463,4.2,5.23,1.846,1.694,2.425,1.486.752-1.219,1.324-1.411-1.263-8.017-.677-8.181c.591-.187,1.934,1.916,2.517,1.75s2.9,6.469,3.5,6.325-.767-8.865-.171-9,1.557,1.045,2.167.925,1.746,2.762,2.355,2.667,1.745,4.045,2.354,3.979.219-9.549.829-9.6,1.9,7.972,2.543,7.933c.617-.041,1.135-.122,1.771-.151.385-.01.729.344,1.091.613a.737.737,0,0,0-.117.37c.011.285,1.351.2,2.9.066a6.566,6.566,0,0,1,.069-2.011c.069-.333.162-.77.265-1.213-.936.3-1.654.6-1.7.9-.016.041-.169-.019-.2.041.428-2.277.991-5.527,1.406-5.523.629.015,5.156,2.946,5.8,2.972a3.827,3.827,0,0,1-1.314.527,2.085,2.085,0,0,0,.563.149c.531.058,1.009.645,1.533.716.612.063,1.107.144,1.7.237.422.393,1.064.393,1.392.823.394.534,1.134.981,1.354,1.572.171.462-1.024,1.209-.968,1.718s.992,1.017.924,1.574a9.029,9.029,0,0,1-.138,1.776c-.172.542.138,1.4-.1,1.951a.356.356,0,0,1,.113.011c-.268.426-1.149,3.049-1.459,3.469-.341.482-2.139-.044-2.545.441-.36.423.914,2.382.522,2.8-.439.467-3.88-2.017-4.359-1.568-.413.4,3.374,5.478,2.921,5.865-.435.381-5.936-5.192-6.393-4.828-.472.376-1.394-.088-1.884.271s-.49,1.11-.975,1.454c-.5.342,2.827,6.42,2.317,6.746s-4.513-5.043-5.037-4.733,2.085,6.081,1.546,6.383c-.535.284-1,.873-1.558,1.144-.545.286-2.987-3.337-3.54-3.076s.891,5.08.325,5.325c-.621.258-1.048,1.454-1.676,1.7-.374.138-1.721-2.49-2.906-4.664a4,4,0,0,0-1.017-.617c-1.086.473-2.863,1.516-2.976,1.18-.208-.563,1.318-1.733,1.084-2.281a.1.1,0,0,1,0-.021.463.463,0,0,0-.278-.049c-.585.09-1.211-.96-1.789-.9s-.981,1.209-1.558,1.243-1.06,3.976-1.639,3.976c-.647.007-1.368-.94-1.995-.976s-.954-3.772-1.571-3.838-1.043-.591-1.65-.693c-.6-.088-2.224,5.2-2.814,5.073-.646-.144-1.544-.084-2.167-.265s.089-4.694-.522-4.908-.871-.9-1.443-1.149-1.388.3-1.916.017c-.583-.314-.872-.848-1.4-1.2s-2.814,1.666-3.278,1.3c-.515-.421,1.331-3.3.91-3.759-.472-.5-3.718,1.2-4.064.672-.356-.552.114-1.791-.092-2.373-.087-.22,3.284.707,3.228.477.375-.4-.624-.878-.227-1.263.421-.43.393-1.277.827-1.681s1.275-.334,1.722-.731a.764.764,0,0,0,.151-.624,6.514,6.514,0,0,1-.107-.951Zm37.042-2.021c.281.331,2.221-1.031,4.211-2.415a1.279,1.279,0,0,0-.107-.142,9.79,9.79,0,0,0-.967-.858c-1.789,1.6-3.4,3.1-3.138,3.415Zm7.1,2.563c.3.136,1.345-.609,2.442-1.376a2.606,2.606,0,0,1-1.252.073c-.617-.276-.439-2.1-.98-2.4a2.6,2.6,0,0,0-1.378-.1c-.48,1.155-.876,2.194-.626,2.349.552.334,1.151,1.146,1.794,1.456m-21.065,123.028c-.464-.112.254-4.824.472-7.608,1.037-.106,3.406-1.321,3.824-.89.39.393,4.046-2.649,4.435-2.277.458.417.414,1.165.879,1.555.533.434.921.806,1.481,1.21s3.54-3.11,4.112-2.729-1.89,5.088-1.3,5.439,1.079.638,1.681.955,3.24-4.1,3.874-3.813c.527.232-1.614,6.529-1.807,8.437.728-.71,1.827-1.718,2.385-2.312a18.7,18.7,0,0,0-.413,2.353,1.019,1.019,0,0,1,.547-.024c.2.08-.1.164-.59.265-.367,2.783-.736,6.441-1.162,6.441-.687,0-1.6,1.8-2.287,1.781s-1.6-.224-2.3-.256c-.779-.039-1.4-5.282-2.171-5.345-.692-.049-1.615,1.356-2.319,1.284s.258-13.5-.439-13.581-2.272,6.844-2.964,6.736c-.571-.1-1-.69-1.558-.791-.609-.114-2.581,6.672-3.184,6.552s-.594-3.249-1.193-3.383Zm17.9.865a1.475,1.475,0,0,0,.563-.1c-.2.03-.388.069-.563.1Zm-.954.249c-.008.008-.014.014-.008.014a.022.022,0,0,1,.008-.014m-3.7-88.362a.375.375,0,0,0-.026.11,20.619,20.619,0,0,0,2.241,4.1c.6.187,1.313.052,1.867.359a.474.474,0,0,0,.382,0c-2.211-2.514-4.2-4.733-4.464-4.57m7.281,3.288c-.521-.31-2,1.06-2.817,1.282,2.857,3.259,6.091,7.022,6.393,6.787.557-.38,4.212-6.559,4.771-6.92-.607-.382-7.73-.78-8.347-1.149m-8.482,3.171c1.532.708,8.891,8.492,9.452,8.032.4-.314-3.448-6.108-6.035-10.28a2.619,2.619,0,0,1-.251-.094c-.552-.3-2.323,2.008-3.165,2.342m-57.868,31.677c-.251-.7,1.664-1.886,1.443-2.585-.136-.448-1.425,1.617-2.417,3.039-.043.172-.095.342-.133.512.718-.46,1.163-.806,1.107-.966m57.611-31.725c-.013.019-.026.03-.038.049a.04.04,0,0,1,.012.011.4.4,0,0,0,.283-.011c-.124-.064-.211-.073-.257-.049m1.432-6.3a.179.179,0,0,1,.014-.11h.012c.263-1.009.389-1.764.2-1.854-.642-.289-3.29,3.993-3.938,3.714-.708-.3-1.055-1.32-1.77-1.6-.651-.245-3.183,4.916-3.831,4.682s-.275-2.92-.942-3.125c-.646-.232,2.128-11.465,1.481-11.665-.634-.178-5.806,2.092-6.449,1.919-.023.7,3.341,4.926,3.284,5.636s-1.38,1.29-1.469,2-8.3.075-8.415.794c-.106.647-.451.925-.588,1.591-.125.636,9.241,3.2,9.079,3.871-.139.635,1.47,1.785,1.294,2.432s-3.569.411-3.768,1.058c-.177.579-3.279.149-3.473.725-.187.559,2.935,2.232,2.725,2.794-.239.664,2.706,2.579,2.455,3.23s-1.845.8-2.115,1.437c-.288.621-.693,1.243-.98,1.858s2.077,2.663,1.771,3.263c-.357.682-1.545,1.1-1.916,1.75-.369.679-3.986-.512-4.383.129s-5.4-1.867-5.821-1.256,4.874,5.189,4.433,5.776-6.875-3.65-7.32-3.1c-.472.568-.094,1.471-.572,2.011s.5,2.135.006,2.634-2.341-.741-2.851-.282,8.748,12.344,8.22,12.778-5.38-4.168-5.93-3.778c-.544.411-.656,1.748-1.211,2.107s-1.01,1.355-1.576,1.684-6.79-10.306-7.372-10.024,4.678,13.467,4.094,13.707-3.73-5.879-4.321-5.677c-.609.2-.4,3.4-.993,3.553-.685.174-2.1-2.831-2.788-2.71-.608.1-.3,9.813-.915,9.867-.684.065-2.148-16.884-2.827-16.891-.615,0-.539-.309-1.155-.359s-2.782,13.68-3.378,13.583-.471-4.953-1.062-5.1c-.533-.138,1.042-6.826.511-7.006-.634-.217-3.342,5.785-3.932,5.527-.591-.239-1.294-.347-1.848-.641-.261-.142-.08-.985.176-1.94-.129.082-.267.155-.413.252.168-.209.352-.477.546-.764.334-1.17.665-2.359.378-2.553-.359-.235-2.129,1.62-3.4,2.746.729.433,1.434.843,1.746.992-2.611,1.493-6.536,3.476-6.36,3.927.276.688,6.195-.92,6.5-.234.288.679-9.563,6.055-9.236,6.731s3.121.391,3.445,1.038c.341.671,9.163-3.116,9.519-2.473s-.286,1.778.084,2.413,3.61-.623,4.011,0-4.133,4.4-3.724,5.009c.378.544-3.912,4.5-3.534,5.038.394.538,8.9-4.946,9.3-4.409.41.518-5.405,5.981-4.991,6.488s3.7-1.278,4.139-.776.175,1.637.616,2.133-1.735,3.579-1.268,4.062,4.167-2.158,4.646-1.693-.3,2.28.189,2.738-2.094,4.49-1.589,4.929,10.68-10.448,11.189-10.011c.514.415-9.538,13.932-9.011,14.342s10.976-12.118,11.516-11.722-7.139,12.14-6.587,12.521,7.447-8.51,8.007-8.142-.083,2.415.483,2.777,3.731-3.854,4.31-3.506c.576.33-3.475,8.667-2.883,8.977.577.325,5.16-7,5.751-6.684s-4.5,12.054-3.905,12.342,3.126-3.318,3.747-3.043c.6.277,1.716-.523,2.331-.258s1.97-1.355,2.618-1.116c.627.247.683,1.981,1.317,2.2s2.411-3.067,3.052-2.855,1.877-1.949,2.529-1.763,1.584-1.311,2.243-1.142c.132.041.169.425.158,1.04,1.9-2.342,8.394-8.508,8.043-8.963-.438-.561-10.481,6.174-10.895,5.594-.4-.574,4.012-4.423,3.644-5.017s-9.666,3.807-10,3.194,12.223-7.876,11.923-8.5c-.326-.686-5.538.992-5.833.3s-7.787,1.056-8.027.34c-.23-.7,8.891-4.405,8.7-5.125s2.337-1.869,2.19-2.6-4.031-.592-4.144-1.323c-.092-.666,2.545-1.548,2.474-2.219s-5.3-.88-5.342-1.566-2.142-1.406-2.142-2.086-2.939-1.66-2.908-2.34,6.136-1.067,6.2-1.746-5.232-2.138-5.136-2.813,3.735-.944,3.862-1.625,2.329-.949,2.479-1.62c.167-.671,8.723,1.036,8.9.361s-6.014-3.041-5.8-3.716,2.324-.5,2.575-1.162-4.911-3.432-4.634-4.081-3.428-3.254-3.126-3.9,12.665,4.751,12.992,4.112.463-1.05.815-1.682c.365-.609-8.463-6.665-8.068-7.277.339-.544,10.253,5.205,10.619,4.654.369-.529-7.656-6.812-7.253-7.346.384-.539,5.187,2.254,5.6,1.727s2.129.189,2.547-.333-9.134-9.62-8.69-10.123,6.1,3.521,6.569,3.039c.4-.449,5.615,3.807,6.035,3.376s-7.234-9.067-6.789-9.491c.41-.39,1.59-.187,2.01-.576.573-.519,1.244-1.159,1.826-1.664-.394-.3.854-3.991,1.47-6.35m12.168-.248c-.463.294.5,5.57.019,5.884.254.165,1.735-.957,3.23-2.088-1.614-2.162-3-3.953-3.249-3.8M2264.7,324.9c-.012,0-.037.034-.076.073a.122.122,0,0,0,.076-.073m-2.177,2.637c.051-.026,1.731-2.122,2.1-2.564a15.125,15.125,0,0,1-3.829.2c.781,1.359,1.462,2.483,1.728,2.366m-6.265,2.742c.685.378,1.319.733,1.749,1.024,0-.9-.044-1.982-.092-3.107-.84-.142-1.748-.3-2.591-.434.289.636.606,1.572.935,2.516m2.344,1.643c-.241.658,4.787,3.415,4.523,4.051s-2.138.753-2.421,1.387-.521,1.408-.814,2.028-10.58-3.767-10.891-3.155,6.013,4.642,5.681,5.245-3.021-.187-3.365.4.8,2.048.43,2.622c-.365.594-6.7-2.927-7.1-2.353s-.032,1.362-.436,1.915c-.4.569,8.272,7.858,7.869,8.4-.431.548-10.322-6.543-10.757-6.005s6.219,6.923,5.761,7.452c-.5.57-1.272.94-1.8,1.5-.47.5-4.2-2.187-4.679-1.706-.49.5,3.213,5.224,2.723,5.7-.446.428-5.745-4.452-7.108-5.023.146-.058.241-.133.255-.2a3.169,3.169,0,0,1,.108-.6c-3.792-.056-8.36-.2-8.412.189-.048.357,1.186.852,2.517,1.37,1.62-.221,3.992-.391,5.123-.645-.331.529-.064,1.555-.555,1.963-.133.1.161.755.705,1.684,2.152,1.039,5.075,2.271,4.956,2.71-.149.525-1.649.755-2.6,1.084,1.938,3.024,4.006,6.21,3.689,6.467-.548.433-6.6-6.144-7.156-5.733s-1.344.467-1.922.864c-.122.086-.06.478.125,1.043,2.072,1.377,3.97,2.666,3.808,2.963-.147.274-1.565-.436-3.19-1.29.92,2.249,2.238,5.12,1.838,5.387s-2.189-1.54-3.441-2.529c-.445.024-1.006.056-1.006.045-.235-.131-.559-.267-.7-.346-.052.116-.231.546-.231.555-.175.557-.245,1.176-.878,1.46-.639.3-3.072-3.462-3.719-3.185a.248.248,0,0,1-.116.013c.316,2.331.659,4.745.3,4.939.271-.407-3.16-6.3-2.917-6.715.043-.079.307-.037.7.08-.454-.477-.868-.833-1.1-.734-.663.258,2.621,10.871,1.969,11.118-.667.241-3.506-5.651-4.183-5.43-.661.22-.564,2.878-1.239,3.092-.666.2-.057,5.357-.736,5.527-.68.189-4.071-10.245-4.77-10.08s.862,10.454.169,10.6-1.254,1.984-1.964,2.1c-.689.129-1.64.045-2.339.148s-3.007-11.217-3.718-11.132-.294,11.095-1,11.155-2.26-4.093-2.975-4.054c-.548-.151-3.426,5.092-3.963,4.918-.594-.185,3.589-14.206,3.006-14.425s-1.933,2.112-2.5,1.87c-.64-.277-3.29,3.962-3.917,3.656s-.718-1.72-1.326-2.058c-.607-.355-4.87,5.009-5.453,4.635s-1.788-.588-2.352-1,5.263-9.432,4.723-9.874c-.565-.448-1.324-.381-1.845-.854s-4.875,3.048-5.376,2.532c-.4-.405,6.225-7.358,5.846-7.773-.427-.458-.427-.836-.829-1.309s-3.228,1.3-3.591.806-5.187,2.232-5.527,1.724,4.087-4.019,3.767-4.533c-.325-.531.7-1.553.4-2.1s-1.941-.138-2.213-.693c-.288-.618-9.172,2.519-9.442,1.882s7.559-4.452,7.334-5.1-5.369.282-5.569-.379,4.057-2.5,3.893-3.177-4.246-.529-4.37-1.213-1.068-1.376-1.162-2.071,5.671-1.953,5.619-2.666c-.044-.7-7.333-1.084-7.345-1.787-.012-.718-3.441-1.723-3.43-2.443s6.205-1.327,6.255-2.043,2.693-1.183,2.782-1.9,6.046-.346,6.166-1.073c.132-.71-14.3-4.379-14.133-5.093a6.473,6.473,0,0,1,.84-2.452c.413-.621,12.144,2.022,12.382,1.308.219-.719-10.7-5.4-10.442-6.1.264-.72,10.417,2.441,10.732,1.74.294-.7-9.312-6.271-8.981-6.97.3-.621,9.584,3.448,9.9,2.823s-2.914-3.163-2.569-3.776,8.3,3.46,8.666,2.854.518-1.03.919-1.617-6.03-5.858-5.607-6.434,5.668,2.57,6.126,1.985-5.825-6.57-5.35-7.142c.473-.555,4.484,1.9,4.994,1.353.488-.55,1.053-.991,1.569-1.531s1.149-.931,1.7-1.449-2.085-4.462-1.521-4.989c.478-.437.25-1.815.743-2.233.338-.3,2.925,2.078,5.118,3.962.721-1.29,1.625-2.846,2.431-4.265.518.706,1.041,1.4,1.532,2.058-.967,1.005-2.024,2.143-2.947,3.08,1.05.88,1.871,1.486,2.054,1.327.585-.486,2,.4,2.6-.075a1.027,1.027,0,0,0,.3-.8c-.642.458-1.143.736-1.319.613-.225-.187.17-1.191.677-2.367.254.311-.861-1.116-1.367-1.781.233-.238.454-.473.669-.7a8.221,8.221,0,0,1,.094-1.389c-.277-.65-.581-1.331-.884-2.011-.567.77-1.155,1.589-1.411,2.038-.473-.626-.93-1.254-1.376-1.847.438-.34,1.286-1.125,2.057-1.815-1.41-3.163-2.637-6-2.378-6.14.6-.318,3.034,2.461,3.638,2.159.621-.3,3.532,4.174,4.141,3.9s.221-2.976.842-3.222c.705-.271.253-3.949.944-4.189.708-.258,3.447,5.348,4.147,5.133s2.542,3.983,3.239,3.8c.176-.045.187-.714.125-1.7-.923-1.132-2.115-2.831-2.829-3.576a23.563,23.563,0,0,0,2.593.9c-.361-3.312-.879-7.316-.461-7.415.713-.151,2.463,4.1,3.173,3.972.412-.067-.156,2.264-.538,4.155.689.256,1.188.488,1.236.666,0,.024,0,.061,0,.1a1.964,1.964,0,0,0-.207-.017c-.355.009-.647.6-.944,1.187-.135.1-.258.211-.39.313.018.1.068.157.131.153a2.543,2.543,0,0,0,.2.2c.077-.155.622-.9.712-1.075.538-.42.7-.02.766-.338.05.011-.152-.387-.1-.37.9-1.107,1.867-2.316,1.942-2.015.117.518-1.355,1.454-1.723,2.1.468.238.925.639,1.411.643.687,0,1.471-3.65,2.157-3.609.513.022.734,3.22,1.1,4.871.432-.079.864-.153,1.295-.228.575-1.277,1.219-3.084,1.657-3.022.456.065.612,1.578.864,2.609a7.036,7.036,0,0,1,1.368-.08c.85-1.533,1.943-4.191,2.409-4.077.667.172.3,4.116.944,4.318s2.98-4.34,3.629-4.1c.714.263,1.795.217,2.491.51.638.271.789,2.01,1.4,2.318.683.339.119,3.219.787,3.608s3.678-2.894,4.321-2.463c.658.405,1.208,1.368,1.845,1.822s-.252,3.108.355,3.6.969,1.351,1.558,1.889c.527.473-.37,2.428.139,2.939.417.42,3.522-1.7,3.911-1.264.475.529-2.146,3.742-1.692,4.28.436.533,1.915.185,2.327.75s-1.95,2.946-1.569,3.521,5.927-2.177,6.28-1.585-5.173,4.46-4.859,5.066,6.994-2,7.285-1.381-3.984,2.824-3.731,3.455c-.021.738,5.269,1.329,5.244,2.068-.042.783-4.876,1.245-4.937,2.024s4.378,2.071,4.283,2.845.459,1.775.335,2.545c-.018.155-.266.266-.66.352.394.686.815,1.445,1.207,2.146-1.262,0-2.356.028-2.427.271-.169.68,3.219,2.334,3.015,3-.076.275-1.628.056-3.469-.241-.068-1.729-.153-3.546-.16-4.948-1.814.144-3.983.226-4.059.676a7.436,7.436,0,0,0-.1,1.372c.135.269.185.344.313.6.217.159-.833.092-2.119.14-.133-.036,2.553.462,2.405.43.175.3.369.514.568.514.153.01.348.309.56.781a26.869,26.869,0,0,0-2.718-.357c-.087.289-.206.512-.376.566.763.569,2.533,1.485,4.028,2.307.576,1.643,1.141,3.3,1.489,3.256.2-.019.26-.92.26-2.232.41.278.641.5.595.618Zm-55.4-28.063c.307.233,2.74-2.144,5.12-4.458a.811.811,0,0,1-.629-.11c-.664-.589.222-3.16-.345-3.892-.419,1.621-4.686,8.037-4.146,8.46Zm4.757.836c1.79-2.647,4.253-6,3.862-6.363a.853.853,0,0,0-.66-.1c-1.705,2.729-4.189,6.34-3.812,6.668.074.069.291-.012.611-.208Zm11.011-6.1c.312-.065.646-.166,1.009-.262a3.161,3.161,0,0,1,.308-1.679c-1.888,1.045-3.321,1.909-3.213,2.161,0,.015.015.015.026.021.82-.284,1.6-.524,1.853-.254a.035.035,0,0,0,.018.013Zm-.17,6.445c.271.512-.2,1.578-.238,2.338a.227.227,0,0,1,.192.035,1.052,1.052,0,0,0,.788.224c-.01-.946,1.183-2.559.788-3.289-.137-.255-.788-.241-1.657-.122a1.559,1.559,0,0,0,.127.813Zm-.509,9.1c.173.226,1.109-.11,2.241-.592-.351-.411-.692-.832-1.016-1.262-.815.94-1.363,1.655-1.225,1.854Zm14.664,52.85c.144-.338-2.358-1.733-4.363-2.923-.114.61,2.005,3.658,1.993,4.366a2.2,2.2,0,0,0,.724-.037c.424-.475,1.427-.884,1.646-1.406ZM2228,332.777c-.256-.753,5.371-3.824,5.081-4.564-.138-.355-1.32-.338-2.53-.327-1.648,1.239-4.791,3.046-4.6,3.553.274.738-1.329,1.9-1.072,2.626.075.239.777.254,1.693.194.833-.608,1.533-1.187,1.428-1.483Zm9.311,16.873c-.025-.677,1.257-1.716,1.2-2.4-.04-.592-3.57-1.026-4.445-1.587-2.612.51-4.859.985-4.85,1.286.041.725,4.075,1.037,4.086,1.749s-1.233,1.207-1.273,1.909c-.005.363,2.484.888,4.932,1.405,0-.037,0-.054,0-.077.01-.66.372-1.623.347-2.288Zm4.1-23.129c.208.12.989-.9,1.974-2.344-.051-.2-.119-.35-.228-.389-.689-.237-.573-1.888-1.281-2.187-.377-.17-1.558,1.387-2.672,2.775a2.238,2.238,0,0,0,.176.159c.694.43,1.335,1.6,2.031,1.985Zm5.882-.146c.238.09.767-.8,1.388-2.077a3.8,3.8,0,0,1-1.08-.544c-.346,1.441-.544,2.54-.309,2.621" transform="translate(-2086.684 -207.061)" fill="url(#linear-gradient)"/>
  <path id="Path_37" data-name="Path 37" d="M2122.512,230.228a.727.727,0,0,1-1.1-.949.727.727,0,1,1,1.1.949Zm-1.578.719a.631.631,0,0,0-1.014.064.727.727,0,1,0,1.1.949A.63.63,0,0,0,2120.934,230.947Zm-3.3-19.512a.727.727,0,1,0-.982-1.073.728.728,0,0,0,.982,1.073Zm8.049-7.241a.728.728,0,1,0-.858-1.176.728.728,0,0,0,.858,1.176Zm11.079,1.246a2.818,2.818,0,0,1-.9,4.115l-.812.457h0l-1.5,1.094a3.659,3.659,0,0,1-1.322.6,3.551,3.551,0,0,1-1.015,1.1l-2.634,1.8h0l-9.536,8.7.078.069c1.417,1.22,1.484,3.4-.29,5.462s-4.179,1.934-6.174.216a9.528,9.528,0,0,1-2.066-2.669l.153-1.559a11.262,11.262,0,0,0,2.421,3.159c1.576,1.356,3.395,1.686,4.772.085,1.119-1.3,1.45-2.774.4-3.788a2.068,2.068,0,0,1-2.5.727l-.566-1.222a1.989,1.989,0,0,0,2.375-.4l.445-.5-.005-.006,1.291-1.385-3.379-3.691.611-1.076,1.672,1.826c-.733-2.57-.025-5.027,1.473-6.211,1.779-1.417,4.2-1.189,6.333,1.221.221.268.513.611.824,1.029l1.041-.951,0,0-.006-.009s.97-.519,1.306-.764c.632-.459,1.078-.785,1.323-1.007a4.852,4.852,0,0,1-4.256-2.021,2.912,2.912,0,0,1,1.07-4.121,3.238,3.238,0,0,1,4.7.863,4.231,4.231,0,0,1,.719,3.633,6.277,6.277,0,0,0,.884-.58l.823-.6a.757.757,0,0,1,.2-.1h0l.5-.272c1.054-.667,1.214-1.546.482-2.7l-4.084-6.453.783-.966Zm-10.7,9.919a6.059,6.059,0,0,0-.706-.926c-1.858-2.055-3.688-2.564-5.294-1.139-1.633,1.449-1.76,5.207.049,7.517Zm5.164-8.049a2.277,2.277,0,0,0-3.34-.674,1.872,1.872,0,0,0-.49,2.8,3.411,3.411,0,0,0,1.66,1.191,4.448,4.448,0,0,0,2.471.128A3.16,3.16,0,0,0,2131.227,207.31Zm3.208-9.582,5.428,9.362,1.032-.6-5.6-9.661Zm24.05,3.429a.728.728,0,0,0,.455,1.382.728.728,0,1,0-.455-1.382Zm-2.17.715a.727.727,0,1,0,.453,1.382.727.727,0,0,0-.453-1.382Zm7.069-7.606-1.259-4.682-1.031.691,1.117,4.164c.356,1.321-.058,2.114-1.263,2.438l-.576.155h0l-.259.07v0l-.442.125a1.626,1.626,0,0,1-2.3-1.213l-1.522-4.622-1,.73,1.354,4.112c.427,1.3.041,2.119-1.141,2.509l-.391.076,0-.01-.308.071-2.343.977-4.058-9.206-.925.824,4.227,9.586c.811,1.838-.3,2.839-1.821,3.509-2.22.979-3.633.259-4.784-2.224l-.085-.19-.885.826c1.34,2.569,3.092,4.049,6.2,2.679,2.425-1.069,3.476-2.63,2.581-4.791l2.582-1,.444-.1a2.84,2.84,0,0,0,1.963-1.9,2.546,2.546,0,0,0,2.527.425l.739-.2,0-.008.586-.157A2.817,2.817,0,0,0,2163.384,194.266Zm-.359,5.531a.727.727,0,1,0,.379,1.4.727.727,0,0,0-.379-1.4Zm11.479-2.362a.727.727,0,1,0,.163,1.445.727.727,0,0,0-.163-1.445Zm2.271-.256a.728.728,0,0,0,.164,1.446.728.728,0,1,0-.164-1.446Zm6.208-5.745a2.818,2.818,0,0,1-2.784,3.161l-.934.053h0l-.434.034a2.547,2.547,0,0,1-2.388-.934,2.838,2.838,0,0,1-2.309,1.463l-.739.083-1.982.332c.206,2.058-.6,3.521-2.745,3.937a3.768,3.768,0,0,1-1.705-.058l-.865-1.19a4.834,4.834,0,0,0,2.362.177,2.162,2.162,0,0,0,1.731-2.628l-1.751.34c-1.853.359-3.267-.655-3.754-3.17-.49-2.533.383-4.025,2.286-4.395,1.99-.386,3.4.947,3.711,3.037l.553,2.855,1.984-.319V194.2l.3-.034h0l.408-.046c1.238-.14,1.783-.862,1.631-2.222l-.485-4.3,1.128-.51.544,4.835a1.625,1.625,0,0,0,2,1.657l.46-.032v0l.265-.015h0l.6-.034c1.245-.072,1.812-.763,1.735-2.13l-.44-7.624,1.153-.465Zm-12.9,3.322s-.374-1.938-.516-2.669c-.354-1.819-1.157-2.6-2.382-2.36-1.24.241-1.693,1.263-1.342,3.082.348,1.785,1.147,2.546,2.388,2.306Zm14.513-11.187.329,10.816,1.193-.036-.34-11.163Zm5.832,6.693,7.222.511.082-1.156-7.22-.511Zm16.493-4.937a3.287,3.287,0,0,0-4.052,2.756l1.282.248a2.121,2.121,0,0,1,2.565-1.863,1.813,1.813,0,0,1,1.546,2.414c-.416,2.157-3.444,3.75-6.644,5.445l-.182.948,7.009,1.351.212-1.107-5.01-.967c2.173-1.167,5.431-2.852,5.936-5.475A3.019,3.019,0,0,0,2206.917,185.325Zm4.449,7.32,1.225.358a2.3,2.3,0,0,1,2.531-.73,2.144,2.144,0,0,1,1.576,2.979,2.419,2.419,0,0,1-4.778-.589l-1.268-.37a3.723,3.723,0,0,0,7.292,1.292,3.239,3.239,0,0,0-2.312-4.37,3.106,3.106,0,0,0-2.654.355l.948-3.249,5,1.459.332-1.139-6.2-1.809Zm29.619,18.747-8.461-5.532-.625-.29a2.5,2.5,0,0,1-1.713-2.15,2.711,2.711,0,0,1-2.533-.05c-1.841-.853-2.226-2.445-1.153-4.754a4.572,4.572,0,0,1,1.719-2.1l-1.506-.7c-1.227-.568-2.081-.66-3.067,1.344l-2.983,6.424-1.242-.119,3.266-7.036c1.082-2.208,2.385-2.673,4.694-1.6l3.486,1.619c1.76.816,2.166,2.494,1.21,4.551-.771,1.665-1.4,2.783.4,3.622l.427.2.019.012,0-.005,1.926,1.237,2.607-3.985,1.217.321-2.824,4.32,3.058,2,3.033-4.638,1.217.321-3.249,4.972,1.593,1.043c1.044.682,1.926.472,2.676-.672l2.369-3.624,1.2.311-2.663,4.073A2.743,2.743,0,0,1,2240.986,211.392Zm-10.059-10.722c.753-1.617.488-2.733-.533-3.206-1.117-.518-2.06.036-2.811,1.654-.758,1.633-.57,2.713.544,3.23S2230.17,202.3,2230.927,200.67Zm32.037,27.542a2.821,2.821,0,0,1-4.2-.4l-.534-.769-.264-.356a2.91,2.91,0,0,1-.936-2.223,2.993,2.993,0,0,1-3.991-3.924,2.933,2.933,0,0,1-1.928-.982l-.676-.583h0l-1.463-1.227c-1.469,1.456-3.116,1.747-4.786.345a3.784,3.784,0,0,1-1.031-1.36l.38-1.422a4.858,4.858,0,0,0,1.35,1.947,2.161,2.161,0,0,0,3.132-.311l-1.365-1.146c-1.447-1.213-1.548-2.95.1-4.914s3.37-2.236,4.856-.99c1.552,1.3,1.4,3.233-.024,4.8l-1.871,2.228,1.5,1.262h0l0,0,.271.228,0,0,.338.287a1.712,1.712,0,0,0,2.485.183c1.532-1.379,3.218-1.8,4.719-.239,1.346,1.4,1.143,2.913-.185,4.406-.984.948-1.052,1.878-.151,2.789l.522.767.367.448c.786.967,1.679,1.021,2.739.157l5.921-4.824,1.053.662Zm-12.4-14.132c1.192-1.42,1.292-2.534.336-3.336s-2.05-.521-3.241.9c-1.169,1.392-1.257,2.494-.289,3.307l1.446,1.213S2250.084,214.651,2250.562,214.08Zm7.672,5.334c-.912-.949-1.884-.76-3.169.477s-1.539,2.224-.626,3.172,1.884.711,3.171-.526S2259.146,220.363,2258.233,219.414Zm12.11,5.57-8.648,6.507.719.954,8.924-6.716Z" transform="translate(-2088.974 -183.187)" fill="url(#linear-gradient-2)"/>
  <path id="Path_38" data-name="Path 38" d="M2101.568,482.041c-1.209-1.688-1.126-3.557.245-4.576l.838,1.17a1.917,1.917,0,0,0-.154,2.74,1.816,1.816,0,0,0,2.611.686c2.267-1.626-2.439-5.136.685-7.375,1.388-.994,3.132-.547,4.324,1.118,1.152,1.6,1.024,3.285-.161,4.334l-.865-1.206a1.87,1.87,0,0,0,.053-2.5,1.706,1.706,0,0,0-2.511-.648c-2.17,1.556,2.43,5.124-.681,7.355C2104.756,483.993,2102.876,483.863,2101.568,482.041Zm6.492,6.995a3.918,3.918,0,0,1,.533-5.8,3.869,3.869,0,0,1,5.8.28,3.727,3.727,0,0,1-.365,5.5,7.155,7.155,0,0,1-.642.5l-4.273-4.9a2.556,2.556,0,0,0-.186,3.669,2.234,2.234,0,0,0,2.631.737l.956,1.1A3.658,3.658,0,0,1,2108.06,489.036Zm1.886-5.131,3.375,3.869a2.386,2.386,0,0,0,.17-3.554A2.519,2.519,0,0,0,2109.946,483.905Zm10.49,5.9a3.374,3.374,0,0,1,1.107,3.249l1.015-1.085,1,.932L2118,498.841l-1-.932,1.034-1.106a3.4,3.4,0,0,1-3.348-.873,3.913,3.913,0,0,1,.079-5.715A3.854,3.854,0,0,1,2120.436,489.8Zm-.606,1.039a2.747,2.747,0,0,0-4.053.316,2.763,2.763,0,1,0,4.053-.316Zm2.523,11.622c-1.5-1.16-1.927-2.8-1.092-4.028l1.106.852a1.687,1.687,0,0,0,.673,2.262c.846.653,1.643.592,2.051.064,1.1-1.435-3.346-3.537-1.5-5.934.762-.987,2.314-1.082,3.748.023s1.773,2.586.874,3.9l-1.07-.825a1.564,1.564,0,0,0-.538-2.2c-.788-.607-1.548-.594-1.945-.077-1.179,1.528,3.2,3.576,1.471,5.916C2125.322,503.476,2123.777,503.559,2122.354,502.463Zm7.29,5.1a4.2,4.2,0,1,1,5.779-1.326A4.032,4.032,0,0,1,2129.644,507.564Zm.636-1a3.032,3.032,0,0,0,3.275-5.077,2.7,2.7,0,0,0-3.91,1.089C2128.541,504.316,2129.09,505.806,2130.281,506.561Zm12.36,2.786c.745-1.486.313-2.648-.907-3.259s-2.469-.273-3.251,1.294l-2.013,4.021-1.208-.6,3.639-7.273,1.208.6-.519,1.035a3,3,0,0,1,2.92,0,3.156,3.156,0,0,1,1.414,4.607l-2.146,4.286-1.193-.6Zm5.511,6.18c3.4-1.254,6.609-2.429,7.31-4.51a1.813,1.813,0,0,0-1.21-2.6,2.121,2.121,0,0,0-2.791,1.5l-1.239-.416a3.289,3.289,0,0,1,4.385-2.19,3.02,3.02,0,0,1,2.14,4.07c-.853,2.532-4.3,3.767-6.615,4.634l4.839,1.627-.36,1.069-6.767-2.274Zm17.5-5.05-.27,1.157-5.073-1.178-.765,3.3a3.109,3.109,0,0,1,2.63-.5,3.238,3.238,0,0,1,2.55,4.234,3.722,3.722,0,0,1-7.351-.885l1.286.3a2.418,2.418,0,0,0,4.8.322,2.144,2.144,0,0,0-1.738-2.887,2.3,2.3,0,0,0-2.487.87l-1.244-.289,1.371-5.9Zm5.123,5.619,5.9.543-.106,1.138-5.9-.543Zm15.739,6.727c-2.079.054-3.577-1.065-3.653-2.771l1.439-.037a1.918,1.918,0,0,0,2.184,1.665c1.3-.034,2.058-.8,2.031-1.776-.072-2.79-5.622-.862-5.721-4.706-.047-1.707,1.3-2.9,3.351-2.954,1.974-.052,3.295,1,3.5,2.566l-1.484.039a1.874,1.874,0,0,0-2.043-1.446c-1.114,0-1.973.6-1.944,1.714.069,2.671,5.607.863,5.705,4.691C2189.912,521.278,2188.749,522.764,2186.509,522.823Zm4.513-10.8a.906.906,0,1,1,1.012.82A.905.905,0,0,1,2191.022,512.024Zm.456,2.207,1.344-.141.847,8.09-1.343.14Zm3.1-3.23,1.338-.193,1.563,10.872-1.337.193Zm4.315,2.233,3.9,6.217,1.054-7.259,1.409-.3-1.451,8.616-1.54.323-4.8-7.3Zm13.2,5.225a3.918,3.918,0,0,1-5.091-2.832,3.87,3.87,0,0,1,2.6-5.191,3.729,3.729,0,0,1,4.882,2.555,7.32,7.32,0,0,1,.2.793l-6.208,1.928a2.557,2.557,0,0,0,3.28,1.654,2.235,2.235,0,0,0,1.738-2.11l1.389-.432A3.66,3.66,0,0,1,2212.09,518.459Zm-3.931-3.8,4.9-1.524a2.387,2.387,0,0,0-3.182-1.591A2.52,2.52,0,0,0,2208.159,514.66Zm10.911,1.189-1.255.5-3.022-7.55,1.253-.5.491,1.227a2.737,2.737,0,0,1,1.891-2.341l.519,1.3-.329.132c-1.2.48-1.9,1.381-1.195,3.13Zm6.456-14.478,1.2-.649,3.632,6.725a2.664,2.664,0,0,1-1.187,3.83,2.7,2.7,0,0,1-3.917-1.191l1.19-.642a1.5,1.5,0,0,0,2.157.775,1.429,1.429,0,0,0,.555-2.122Zm14.841,2.876-1.122.749-.669-1a2.986,2.986,0,0,1-1.428,2.541,3.172,3.172,0,0,1-4.713-1.05l-2.644-3.963,1.111-.742,2.545,3.817a2.181,2.181,0,0,0,3.272.815c1.164-.774,1.461-2.01.49-3.467l-2.477-3.718,1.121-.749Zm.378-10.849a3.848,3.848,0,0,1,5.635.747,3.916,3.916,0,0,1-.27,5.721,3.4,3.4,0,0,1-3.386.686l.957,1.155-1.041.862-7.013-8.456,1.041-.862,2.785,3.359A3.447,3.447,0,0,1,2240.745,493.4Zm.532,1.083a3.033,3.033,0,1,0,4.04.546A2.75,2.75,0,0,0,2241.278,494.48Zm1.891-6.049a.906.906,0,1,1,1.3.027A.908.908,0,0,1,2243.169,488.431Zm1.713,1.463.974-.936,5.634,5.868-.975.936Zm.468-4.457.937-.972,7.909,7.622-.938.972Zm13.061,2.13a3.918,3.918,0,0,1-5.815.369,3.871,3.871,0,0,1-.617-5.771,3.726,3.726,0,0,1,5.486-.488,7.112,7.112,0,0,1,.6.56l-4.181,4.977a2.555,2.555,0,0,0,3.653-.381,2.237,2.237,0,0,0,.322-2.714l.937-1.114A3.658,3.658,0,0,1,2258.411,487.567Zm-5.359-1.072,3.3-3.931a2.385,2.385,0,0,0-3.537.381A2.518,2.518,0,0,0,2253.051,486.5Zm11.228-6.663a3.918,3.918,0,0,1-5.75.935,3.87,3.87,0,0,1-1.177-5.684,3.727,3.727,0,0,1,5.412-1.021,7.244,7.244,0,0,1,.649.5l-3.674,5.362a2.555,2.555,0,0,0,3.6-.736,2.234,2.234,0,0,0,.057-2.733l.821-1.2A3.658,3.658,0,0,1,2264.28,479.833Zm-5.439-.543,2.9-4.236a2.386,2.386,0,0,0-3.484.725A2.519,2.519,0,0,0,2258.84,479.29Z" transform="translate(-2084.385 -318.115)" fill="url(#linear-gradient-3)"/>
  <path id="Union_11" data-name="Union 11" d="M4.372,101.735A91.992,91.992,0,0,0,16.807,55.411,91.986,91.986,0,0,0,0,2.261l1.373-.969.306-.216h0L1.8.991,1.669.8,2.8,0A95.581,95.581,0,0,1,20.413,55.431,95.6,95.6,0,0,1,7.558,103.459l-.149-.086-.054.094Z" transform="translate(174.097 50.801)" fill="url(#linear-gradient)"/>
  <path id="Path_42" data-name="Path 42" d="M2404.33,276.883a97.879,97.879,0,0,1,4.6,104.549l.613.352a98.58,98.58,0,0,0-4.635-105.307l-.582.4Z" transform="translate(-2225.582 -226.573)" fill="url(#linear-gradient)"/>
  <path id="Union_13" data-name="Union 13" d="M0,58.341A95.586,95.586,0,0,1,19.757,0l1.1.847-.013.02.237.182.012-.017.546.419a.1.1,0,0,1-.011.015l.964.738a92.448,92.448,0,0,0-5.039,104.954v-.006l.054.091-1.888,1.177c.034.053.067.108.1.162l-1.177.741A95.52,95.52,0,0,1,0,58.341Z" transform="translate(2.488 47.891)" fill="url(#linear-gradient)"/>
  <path id="Path_46" data-name="Path 46" d="M2090.276,270.272a98.551,98.551,0,0,0-5.329,111.521l.6-.374a97.847,97.847,0,0,1,5.289-110.719l-.562-.429Z" transform="translate(-2070.184 -223.687)" fill="url(#linear-gradient)"/>
</svg>
