<svg xmlns="http://www.w3.org/2000/svg" width="217" height="205" viewBox="0 0 217 205">
  <g id="Group_886" data-name="Group 886" transform="translate(-2582.949 -914.391)">
    <g id="Group_845" data-name="Group 845" transform="translate(2629.635 914.391)">
      <path id="Path_481" data-name="Path 481" d="M2783.379,931.154c-.311.647-1.6,1.822-2.018,2.545a1.321,1.321,0,0,0,.947.416c.707-.082,1.218-1.413,1.071-2.961" transform="translate(-2723.928 -922.32)" fill="#fff"/>
      <path id="Path_482" data-name="Path 482" d="M2680.124,938.319a9.374,9.374,0,0,0,.146,1.306,1.048,1.048,0,0,1-.206.857c-.614.544-1.76.428-2.363,1-.6.554-.56,1.717-1.138,2.307-.543.529.828,1.18.312,1.734.077.315-4.552-.957-4.431-.655.284.8-.362,2.5.128,3.256.475.728,4.932-1.606,5.579-.921.578.626-1.958,4.582-1.25,5.159.638.509,3.758-2.253,4.5-1.778.725.48,1.122,1.214,1.923,1.645.725.387,1.845-.359,2.629-.023s1.155,1.291,1.983,1.578-.155,6.5.716,6.737c.853.249,2.086.167,2.974.364.811.172,3.034-7.083,3.862-6.963.837.141,1.414.872,2.267.952s1.293,5.221,2.156,5.267,1.853,1.35,2.743,1.339c.792,0,1.447-5.411,2.249-5.457s1.337-1.637,2.137-1.707c.795-.087,1.655,1.355,2.457,1.232a.626.626,0,0,1,.379.067.09.09,0,0,0,.009.028c.319.752-1.776,2.358-1.49,3.13.155.462,2.595-.97,4.086-1.619a5.55,5.55,0,0,1,1.4.846c1.628,2.984,3.475,6.591,3.99,6.4.863-.336,1.448-1.978,2.3-2.333.777-.336-1.2-6.963-.447-7.31s4.111,4.616,4.861,4.223c.76-.372,1.406-1.18,2.138-1.57.74-.415-2.836-8.346-2.121-8.761s6.215,6.937,6.916,6.5-3.873-8.79-3.183-9.26c.665-.472.674-1.516,1.337-2s1.939.143,2.586-.372c.629-.5,8.179,7.15,8.777,6.627.621-.531-4.578-7.5-4.011-8.051.657-.616,5.381,2.794,5.984,2.153.537-.57-1.208-3.258-.716-3.839.557-.667,3.025.056,3.493-.606.429-.577,1.637-4.177,2.007-4.761a.489.489,0,0,0-.157-.015c.328-.751-.095-1.935.141-2.678a12.387,12.387,0,0,0,.187-2.438c.095-.764-1.188-1.452-1.267-2.16s1.562-1.724,1.329-2.358c-.3-.811-1.319-1.424-1.861-2.158-.449-.59-1.332-.59-1.909-1.129-.818-.128-1.5-.238-2.338-.326-.721-.1-1.375-.9-2.107-.982a2.811,2.811,0,0,1-.77-.206,5.229,5.229,0,0,0,1.8-.724c-.878-.036-7.094-4.059-7.956-4.079-.57-.005-1.345,4.456-1.931,7.581.044-.082.252,0,.276-.056.07-.405,1.053-.824,2.338-1.234-.138.608-.268,1.208-.363,1.665a9,9,0,0,0-.095,2.76c-2.128.188-3.966.3-3.983-.09a1,1,0,0,1,.163-.508c-.5-.369-.973-.854-1.5-.842-.871.041-1.586.152-2.43.208-.88.054-2.638-10.966-3.491-10.889-.837.075-.294,13.077-1.138,13.182-.838.09-2.38-5.59-3.233-5.462-.835.131-2.406-3.807-3.233-3.661-.835.164-2.146-1.437-2.975-1.27-.818.184,1.054,12.143.235,12.353s-3.993-8.9-4.8-8.682-2.646-2.658-3.457-2.4c-.8.226,1.723,10.955.93,11.23s-1.025,1.647-1.818,1.937-2.562-2.342-3.329-2.039c-.785.32-5-7.51-5.767-7.178s3.4,11.578,2.646,11.915c-.741.356-2.723-2.168-3.534-1.988-.155-.8-.345-1.388-.6-1.4-.544-.069-1.215,1.272-1.854,2.186-.818.218-4.68-4.939-5.386-4.5-.337.169-.02,1.475.344,2.848a4.561,4.561,0,0,1-.716.19c-.473.056-.707,1.621-1.036,2.616a1.028,1.028,0,0,0-.844-.089c-.612.411-3.62-2.6-4.224-2.183-.405.293,1.026,3.209,1.855,5.231l.2,1.1Zm50.854-2.774c-.363-.428,1.853-2.5,4.31-4.687a13.882,13.882,0,0,1,1.328,1.178,1.642,1.642,0,0,1,.145.195c-2.732,1.9-5.4,3.769-5.782,3.314Zm9.747,3.518c-.885-.426-1.707-1.539-2.466-2-.341-.212.2-1.639.862-3.225a3.549,3.549,0,0,1,1.889.139c.745.418.5,2.917,1.347,3.3a3.571,3.571,0,0,0,1.717-.1c-1.5,1.052-2.943,2.075-3.348,1.888" transform="translate(-2672.381 -914.391)" fill="#fff"/>
    </g>
    <g id="Group_849" data-name="Group 849" transform="translate(2582.949 922.075)">
      <path id="Path_483" data-name="Path 483" d="M2747.2,1260.478c.113.136.336.156.63.136.033-.492.068-.96.078-1.35-.527.644-.821,1.088-.708,1.214" transform="translate(-2661.163 -1085.798)" fill="#fff"/>
      <path id="Path_484" data-name="Path 484" d="M2799.737,1275.042c-.118,0-.236.262-.369.688.4-.423.578-.7.369-.688" transform="translate(-2686.02 -1093.26)" fill="#fff"/>
      <g id="Group_846" data-name="Group 846" transform="translate(143.432 14.074)">
        <path id="Path_485" data-name="Path 485" d="M2887.327,967.3c-.131-1.111-.238-1.637-.713-1.722-.254-.034-.531.21-.847.621.146-1.118.429-2.412-.041-2.776-.791-.616-3.649,1.565-4.455.974s.264-3.82-.567-4.382c-.816-.561-3.539,1.791-4.393,1.263-.549-.352-.413-2.15-.662-3.153a1.1,1.1,0,0,0,.216-.47c-.778-.462-1.778-1.042-2.574-1.475-.646-.367-1.642-.159-2.3-.505a10.141,10.141,0,0,0-2.209,1.9c-.56.59-.326,1.74-.8,2.458a12.69,12.69,0,0,0-1.073,2.147c-.336.808-1.3,1.311-1.48,2.175a15.324,15.324,0,0,1-.583,1.655,1.476,1.476,0,0,0-.793-.349c-.062,1.059-1.347,3.232-1.122,4.356.162.983,1.27,2.14,1.7,3.153a15.088,15.088,0,0,0,1.1,1.986.535.535,0,0,0-.352.149,2.658,2.658,0,0,1,.29.872c-1.961-.541-4.763-1.665-5.091-1.057-.421.823,1.081,3.089.726,3.977-.336.885.192,2.388-.072,3.322s-1.417,1.937-1.594,2.925c-.172.878,1.617,2.252,1.5,3.171-.092.908,7.473,2.312,7.437,3.245-.057.931-10.911,1.622-10.906,2.587,0,.936,7.691,1.673,7.757,2.663.049.852-7.08,2.4-6.995,3.263.1.883,1.377,1.773,1.514,2.671.141.772,4.822-1.139,4.979-.359.931-.108,0-4.177.931-4.251.914-.077,2.169.936,3.087.908s1.915,8.887,2.833,8.9c1.008.018,2.248-5.89,3.244-5.821,1.013.072,1.452,5.457,2.435,5.578,1,.131,3.311-7.815,4.3-7.635.965.182,1.5,3.381,2.463,3.615.862.2-.38,7.83.467,8.092.857.244,1.4.519,2.243.818s4.175-6.247,4.989-5.913,1.383,1.4,2.176,1.785c.9.416-1.363,6.712-.5,7.179.77.426,4.855-5.1,5.625-4.633.74.446,3.621-2.086,4.357-1.594.729.508-.477,3.941.231,4.487.71.529,1.881.618,2.571,1.2s-3.575,6.583-2.913,7.211c.552.505,6.271-4.423,6.811-3.871.655.659-2.961,5.293-2.348,5.972.541.593,6.356-3.274,8.278-3.874,2.237-1.078,6.326-2.5,6.195-3.128-.2-.895-1.858-1.555-2.066-2.424-.213-.885-6.354-.238-6.587-1.116s3.362-2.771,3.1-3.63c-.29-.949-4.493-.6-4.8-1.529-.3-.857-1.355-1.293-1.675-2.14-.306-.829-.729-1.49-1.055-2.314-.347-.816,7.138-4.972,6.772-5.791s1.2-2.678.827-3.489c-.4-.814-1.614-1.4-2.035-2.194-.406-.79-6.892,1.606-7.314.836-.451-.8-.78-1.575-1.231-2.339s-3.195-.029-3.67-.8,4.106-4.79,3.6-5.529c-.177-.261-.711.013-1.586.251a1.928,1.928,0,0,1-.845.27c-1.511.423-3.061.705-3.366.282a1.607,1.607,0,0,0-.621-.467,8.1,8.1,0,0,0-.6-1.157,43.2,43.2,0,0,0,4.779,1.027,4.679,4.679,0,0,0,.457-.115s.028,0,.028-.021c.4-.721-3.693-4.759-4-4.574-.449.551-1.172,1.706-1.894,2.617-.526-.86-.95-1.67-.772-1.986.382-.744,3.458-.99,3.664-1.819-.575-.7-2.022-1.408-2.6-2.1-.59-.661-1.747-.841-2.337-1.511-.609-.659-2.92.328-3.536-.313-.639-.644-.383-2.068-1.019-2.7s.467-3.089-.188-3.7c-.574-.509-3,2.024-3.572,1.513-.546-.161-.67-1.526-.832-2.817l-.077-.549Zm-9.807-.873a21.415,21.415,0,0,1,3.326-1.021,29.907,29.907,0,0,1,3.13.536,4.568,4.568,0,0,1,1.581.582c-.858,1.324-1.766,3.559-2.484,3.533-1.024-.041-1.7-.639-2.707-.526s-1.421,1.072-2.379,1.334c-.649.185-1.282-.231-1.886-.2.6-1.018.51-4.028,1.419-4.238Zm-10.149,8.787c-.005-1.419-.067-3.046.282-3.432a21.287,21.287,0,0,1,1.648-2.143,2.762,2.762,0,0,1,1.459-.41c.234,1.3.716,2.953.291,3.332-.59.521.3,2.16-.226,2.771-.282.321-2.014.026-3.454-.118Zm.218-9.908c1.021-.223,2.065.187,2.9-.19a8.329,8.329,0,0,0,2.192-1.457,6.294,6.294,0,0,0,.757-.885c-.031.875.128,1.929-.38,2.327-.667.51-2.269.313-3.164.661-.814.308-1.409,1.919-2.423,2.068-.428.077-1.288-.754-2.1-1.4a13.66,13.66,0,0,1,2.217-1.121Zm.593,16.584c-.816-.87-2.982-1.2-3.652-2.05-.287-.372.319-1.167,1.084-2.008a3.891,3.891,0,0,0,.592,1.472c.717.887,3.28.623,4.155,1.519.033.034.056.085.092.118-1.152.736-2.05,1.183-2.271.949Zm12.3,7.292c-.9-.336-3.048.931-3.962.449-.813-.4-1.958-1.242-2.761-1.763-.731-.47-.937-2.239-1.653-2.8-.282-.218.59-1.842,1.535-3.551,1.081-.59,2.125-1.147,2.5-.87.785.585,1.463.87,2.256,1.358.932.577.075,4.159.983,4.587.665.3,1.05,1.57,1.542,2.419-.17.151-.336.221-.444.172Zm16.745-.046c-.562.328-1.551-.013-2.659-.572a25.366,25.366,0,0,0,3.123-1.726c.087-.054.231-.128.336-.19-.052,1.2-.249,2.153-.8,2.489" transform="translate(-2857.668 -955.676)" fill="#fff"/>
        <path id="Path_486" data-name="Path 486" d="M2970.831,1100.675a63.767,63.767,0,0,0-4.224-7.379,8.738,8.738,0,0,0-1.329-1.421h-.025c-.68.084-1.058.051-1.142-.1a.929.929,0,0,1-.013-.554l.013-.033-.039-.008c-.921-.336-1.842-.7-1.852-1.085-.013-.436.959-.916,1.891-1.4l.588-.282h.007v-.023a7.8,7.8,0,0,1,.505-.808l.013-.028-.031-.021a8.589,8.589,0,0,0-1.707-.718c-.393-.136-.826-.287-1.165-.431l-.008-.01-.021.01c-1.4.572-3.536,1.445-3.777,1.1-.252-.305,1.268-1.955,2.743-3.546.78-.847,1.6-1.722,2.217-2.479l.031-.046-.043-.015c-.608-.2-.906-.4-.932-.6-.041-.208.436-.538,1.375-.987h0c.372-.131.5-.09.539-.026.147.141-.154.659-.854,1.514l-.021.038.044.023c.423.129.911.224,1.383.326.942.184,1.824.362,1.886.744.052.423-1.263,1.039-2.52,1.609-1.342.605-2.627,1.193-2.576,1.675.018.2.208.382.6.588l.016,0h.013c1.814-.744,3.846-1.586,4.1-1.224.228.362-.436,1.336-1.072,2.289l-.044.046v.052a.318.318,0,0,1,.115.2c.005.206-.192.436-.624.706l-.01.013v.01a.738.738,0,0,0-.031.562c.2.349-.056.933-.326,1.511-.08.225-.2.454-.264.669v.044l.031.015c.452.162.867.324,1.229.467h.038c2.264-.305,4.8-.421,4.983-.058.3.664.575,7.712.516,9.72l-.229-.649" transform="translate(-2905.356 -1014.351)" fill="#fff"/>
      </g>
      <path id="Path_487" data-name="Path 487" d="M2590.3,1023.907c-2.449.147-4.795.306-4.854.785-.035.326,1.2,1.49,2.663,2.8,0,.161.225.333.57.5,1.966,1.762,4.094,3.62,4.069,4.048.17-.316-.208-1.516-.716-2.953,1.819.513,3.56,1.019,3.56,1.514-.008.993-3.009,1.87-2.992,2.876.035,1,2.147,1.788,2.207,2.768.06,1-1.966,2.022-1.889,3,.114,1.113-10.1,3.381-9.966,4.477.123.977,12.207.341,12.365,1.327.137.964-8.6,3.484-8.424,4.444s5.148,1.029,5.37,1.993-5.43,3.4-5.2,4.361c.225.872,3.164,2.006,3.415,2.866.637.706,3.732.367,4.422,1.008s1.111,1.791,1.87,2.369.266,3.379,1.085,3.9c.794.493.311,4.421,1.174,4.864.757.387,4.49-4.838,5.3-4.505.759.316,1.294,1.645,2.1,1.922.964.321,1.845,2.183,2.844,2.406.966.224,3.354-7.212,4.338-7.076s1.6,1.126,2.585,1.167,1.982,4.933,2.956,4.893c.984-.057.742-10.214,1.732-10.342.966-.128,2.974,7.323,3.94,7.115.948-.22,3.414,4.431,4.362,4.138s1.1-3.625,2.026-3.994c.914-.364,1.449-1.906,2.345-2.353.888-.424,2.242-.2,3.121-.706.879-.493-.465-4.567.4-5.134s1.354-1.347,2.189-1.973c.75-.559,8.078,7,8.82,6.386s-2.888-6.483-2.173-7.14-4.009-6.707-3.328-7.4,5.43,2.668,6.094,1.939c.647-.729,1.631-1.16,2.26-1.924s5.524,1.667,6.129.872-5.2-6.26-4.613-7.1c.519-.757,10.353,4.541,10.853,3.748.5-.772-11.067-8.959-10.586-9.785.465-.8,3.948.264,4.406-.56s3.259-.385,3.69-1.247,2.241-1.083,2.646-1.953c.344-.777-7.872-5.272-7.534-6.073s6.568.972,6.9.172c.311-.8,6.725.693,7.026-.112.37-1.011,2.792-1.5,3.128-2.507.32-1.016-.267-2.527.027-3.525.268-.9,1.094-1.847,1.328-2.73.258-1.006-4.069-3.276-3.863-4.259.2-.9-3.981-2.681-3.828-3.55.061-.27.413-.483.905-.678a3.736,3.736,0,0,0,.949.426c.819.2,6.018-.834,6.828-.611.051-1.185,1.266-5.421,1.25-6.563-.016-1.042,2.286-2.45,2.214-3.464-.031-.946-3.636-1.69-5.051-2.537,1.105-.818,1.907-1.472,1.915-1.719a6.824,6.824,0,0,0-2.569.814c-.406-.87-2.061-1.568-2.208-2.461-.18-.978-3.879-1.127-4.084-2.076-.045-.128.042-.352.19-.661-1.147-.057-3.69-7.464-4.777-7.282-1.1.208-1.2,6.144-2.3,6.27s-2.4-2.64-3.508-2.571-2.026,4.277-3.131,4.284c-.981,0-1.9-2.488-2.844-2.545-1.12-.046-3.026,8.551-4.111,8.441-.957-.088-.173-13.978-1.112-14.111-1.086-.182-2.742,4.149-3.785,3.93-.913-.208-3.292,5.193-4.2,4.967-1.034-.305.553-8.9-.431-9.244-1.009-.351-4.723,6.5-5.672,6.1-.965-.423-.406-4.243-1.283-4.7-.932-.493,1.12-5.459.291-6-.853-.536-3.731,2.466-4.483,1.868-.664-.526-6.612,4.67-7.18,4.1-.7-.667,1.458-4.58.915-5.291-.509-.641.232-2.276-.157-2.927-.405-.7-1.24-1.267-1.5-1.978-.138-.364-2.871-7.874-2.982-8.238-.735.783-3.433,3.694-4.139,4.513-.714.788,4.932,7.207,4.26,8.028-.7.816-3.6-.141-4.26.714-.664.826-.757,2.165-1.37,3.03-.63.865,3.362,4.885,2.758,5.785-.594.88-2.964.47-3.552,1.372-.559.893-7.491-2-8.026-1.065-.55.913,2.795,4.118,2.276,5.057-.455.847-1.982,1.186-2.4,2.053-.439.862,7.111,5.457,6.707,6.329s-11.016-2.822-11.4-1.932,5.739,4.441,5.4,5.357c-.362.885,2.1,2.694,1.775,3.61s1.036,2.15.716,3.081c-.1.377-1.4.354-2.931.259-2.87-2.565-6.087-5.508-6.456-5.18-.734.667-.321,3.05-1,3.764-.378.372-.24,1.319-.2,2.145-1.741.2-3.974.259-4.121.854-.241.934,1.785,2.576,1.586,3.538-.1.431,1.571,1.029,3.707,1.919a3.564,3.564,0,0,0,.543-2.009c1.147,1.413,2.3,2.822,2.071,3.135-.019.033-.062.036-.1.059-.7-.306-1.456-.623-2.2-.931-.018.031-.044.077-.06.1-.044.042-.044.111-.077.142-3.32-1.363-8.837-4.2-9.217-3.625-.3.469,5.828,3.951,9.25,6.16a1.956,1.956,0,0,1-.172,1.321c-.474.629-3.362-.2-3.8.454a.98.98,0,0,0-.007.654m25.429-13.205c-.843.367-3.223-2.894-4.809-4.266,0-1.157.077-2.132.5-2.333.957-.423,1.887-1.567,2.861-2.2.88,3.859,2.086,8.515,1.448,8.8Zm12-5.3c-1.224.247-2.681-1.9-3.879-1.6-.551.129-1.517-1.321-2.508-2.876a14.3,14.3,0,0,1,1.578-.521c1.12-.277,1.887-3.3,3.042-3.53.475-.09,1.388,2.017,2.362,4.493-.044,2.214-.173,3.943-.595,4.033Zm11.121-5.352c-.957.09-1.621,1.454-2.474,1.97.932-1.247,1.568-5.931,2.595-6.024.318-.021.69.464,1.07,1.159-.373,1.6-.743,2.858-1.191,2.894Zm23.052,6.937c-.1-.025-.173-.2-.241-.47,1.18-3.133,2.4-6.388,3.034-6.262.243.046.406.467.519,1.114-1.284,2.776-2.632,5.747-3.312,5.618" transform="translate(-2582.949 -946.115)" fill="#fff"/>
      <path id="Path_488" data-name="Path 488" d="M2781.64,1054.389a.5.5,0,0,0-.035.151c.043.605,1.354,2.86,3.078,5.629.818.257,1.8.072,2.561.493a.652.652,0,0,0,.526,0c-3.036-3.451-5.769-6.5-6.13-6.273" transform="translate(-2677.577 -988.494)" fill="#fff"/>
      <path id="Path_489" data-name="Path 489" d="M2797.172,1062.906c-.716-.426-2.748,1.455-3.869,1.76,3.923,4.474,8.362,9.638,8.775,9.315.765-.521,5.784-9,6.551-9.5-.833-.523-10.61-1.07-11.458-1.578" transform="translate(-2683.181 -992.519)" fill="#fff"/>
      <path id="Path_490" data-name="Path 490" d="M2778.545,1068.3c2.1.972,12.208,11.656,12.976,11.024.544-.431-4.733-8.384-8.285-14.111a3.417,3.417,0,0,1-.345-.128c-.758-.416-3.19,2.755-4.346,3.214" transform="translate(-2676.141 -993.571)" fill="#fff"/>
      <path id="Path_491" data-name="Path 491" d="M2777.829,1071.082c-.015.026-.035.041-.051.066a.065.065,0,0,1,.017.016.539.539,0,0,0,.388-.016c-.171-.087-.292-.1-.353-.066" transform="translate(-2675.737 -996.408)" fill="#fff"/>
      <path id="Path_492" data-name="Path 492" d="M2747,1268.327c.818.184.818,4.467,1.637,4.644s3.535-9.149,4.371-8.993c.767.139,1.354.954,2.138,1.086.95.149,3.113-9.377,4.068-9.246.958.112-.353,18.534.6,18.641s2.232-1.829,3.182-1.762c1.06.087,1.912,7.283,2.982,7.337.957.043,2.215.328,3.154.352s2.2-2.445,3.139-2.445c.585,0,1.093-5.021,1.6-8.841.67-.139,1.086-.254.809-.364a1.4,1.4,0,0,0-.75.034,25.682,25.682,0,0,1,.567-3.23c-.767.816-2.276,2.2-3.274,3.173.266-2.619,3.205-11.263,2.482-11.581-.87-.387-4.482,5.673-5.319,5.234s-1.517-.844-2.31-1.311,2.559-6.942,1.793-7.466c-.786-.523-4.9,4.315-5.647,3.745-.766-.554-1.3-1.065-2.033-1.66-.639-.536-.577-1.563-1.207-2.135-.535-.51-5.552,3.664-6.087,3.125-.577-.592-3.827,1.075-5.25,1.221-.3,3.82-1.286,10.288-.646,10.442Zm24.568,1.188c.243-.046.5-.1.775-.141a2.035,2.035,0,0,1-.775.141Zm-1.309.341a.032.032,0,0,0-.01.021c-.009,0,0-.01.01-.021" transform="translate(-2661.055 -1083.069)" fill="#fff"/>
      <path id="Path_493" data-name="Path 493" d="M2694.86,1042.405a.245.245,0,0,1,.018-.151h.017c.362-1.385.535-2.422.276-2.545-.879-.4-4.518,5.48-5.4,5.1-.974-.418-1.45-1.811-2.432-2.2-.9-.336-4.37,6.748-5.259,6.427-.9-.326-.378-4.007-1.292-4.289-.889-.318,2.922-15.737,2.033-16.012-.871-.244-7.974,2.871-8.854,2.634-.032.96,4.587,6.761,4.509,7.736s-1.9,1.77-2.017,2.743-11.4.1-11.552,1.09c-.147.888-.62,1.27-.81,2.183-.173.872,12.688,4.393,12.467,5.314-.191.872,2.017,2.45,1.775,3.338s-4.9.564-5.173,1.453c-.24.8-4.5.2-4.768.995-.257.767,4.027,3.063,3.741,3.836-.328.911,3.715,3.54,3.371,4.433-.362.88-2.533,1.093-2.906,1.972-.4.852-.949,1.707-1.344,2.551-.413.852,2.854,3.656,2.431,4.479-.492.937-2.122,1.509-2.63,2.4-.508.932-5.474-.7-6.018.177s-7.412-2.563-7.991-1.724,6.691,7.122,6.087,7.928-9.439-5.011-10.052-4.249c-.646.78-.128,2.019-.784,2.76-.654.724.69,2.93.009,3.615s-3.215-1.016-3.914-.388c-.708.644,12.008,16.943,11.285,17.539s-7.388-5.721-8.139-5.185c-.749.564-.9,2.4-1.664,2.891s-1.389,1.86-2.163,2.312c-.793.446-9.319-14.147-10.121-13.76s6.422,18.485,5.621,18.813-5.12-8.068-5.931-7.792c-.836.277-.543,4.667-1.361,4.877-.941.239-2.881-3.887-3.829-3.72-.835.133-.413,13.469-1.258,13.543-.939.09-2.949-23.174-3.88-23.185-.845,0-.742-.423-1.587-.493-.826-.062-3.819,18.778-4.637,18.644s-.646-6.8-1.458-7c-.732-.19,1.431-9.369.7-9.616-.871-.3-4.587,7.94-5.4,7.586-.81-.328-1.776-.477-2.536-.879-.36-.2-.111-1.352.241-2.663-.179.113-.369.212-.57.346.233-.287.485-.655.752-1.049.456-1.606.912-3.238.517-3.505-.493-.323-2.922,2.224-4.664,3.769,1,.6,1.966,1.157,2.4,1.362-3.585,2.05-8.972,4.772-8.731,5.39.379.944,8.508-1.262,8.921-.32.4.931-13.128,8.31-12.681,9.238.431.908,4.286.536,4.732,1.424.467.921,12.578-4.277,13.07-3.394s-.4,2.44.113,3.313,4.958-.855,5.509,0c.534.844-5.674,6.034-5.113,6.876.519.746-5.37,6.172-4.852,6.914.543.739,12.215-6.788,12.766-6.052.561.711-7.423,8.21-6.853,8.905s5.076-1.755,5.681-1.064c.586.685.241,2.247.845,2.927.62.68-2.38,4.913-1.741,5.575s5.723-2.961,6.378-2.325-.414,3.13.259,3.759-2.871,6.163-2.181,6.766,14.664-14.342,15.362-13.742c.707.57-13.095,19.124-12.37,19.686.706.574,15.069-16.633,15.809-16.089s-9.8,16.663-9.042,17.187,10.224-11.681,10.992-11.176-.113,3.315.663,3.812,5.122-5.29,5.916-4.813c.792.454-4.77,11.9-3.958,12.323.792.446,7.085-9.6,7.9-9.175s-6.181,16.545-5.361,16.94c.835.4,4.291-4.554,5.145-4.177.828.38,2.354-.718,3.2-.354.862.352,2.707-1.86,3.595-1.532.861.339.939,2.719,1.81,3.025.888.287,3.309-4.21,4.189-3.918s2.577-2.675,3.473-2.419,2.174-1.8,3.078-1.567c.181.056.232.582.217,1.426,2.61-3.214,11.524-11.678,11.042-12.3-.6-.769-14.388,8.474-14.958,7.679-.543-.788,5.509-6.07,5-6.886s-13.268,5.226-13.733,4.385c-.449-.826,16.784-10.811,16.371-11.668-.448-.942-7.6,1.362-8.009.408-.388-.957-10.69,1.449-11.018.467-.318-.957,12.206-6.047,11.939-7.035s3.209-2.566,3.009-3.569c-.207-.988-5.534-.813-5.689-1.816-.128-.914,3.493-2.124,3.4-3.046s-7.284-1.208-7.336-2.15c-.035-.923-2.939-1.929-2.939-2.863s-4.035-2.278-3.993-3.212,8.425-1.465,8.51-2.4-7.181-2.935-7.053-3.861,5.13-1.3,5.3-2.23c.172-.916,3.2-1.3,3.4-2.224.226-.921,11.975,1.421,12.224.5.25-.911-8.257-4.174-7.956-5.1.3-.911,3.189-.69,3.534-1.6s-6.742-4.711-6.363-5.6-4.706-4.467-4.292-5.352c.422-.867,17.387,6.522,17.836,5.644s.637-1.442,1.121-2.309c.5-.836-11.621-9.149-11.078-9.988.466-.747,14.078,7.145,14.578,6.388.51-.726-10.51-9.349-9.957-10.083.526-.739,7.12,3.094,7.68,2.371.561-.706,2.924.259,3.5-.457s-12.541-13.205-11.93-13.9,8.371,4.834,9.018,4.172c.552-.615,7.707,5.226,8.286,4.634s-9.933-12.446-9.32-13.028c.56-.536,2.181-.256,2.758-.79.784-.713,1.707-1.591,2.509-2.284-.544-.415,1.172-5.478,2.017-8.715" transform="translate(-2590.168 -976.752)" fill="#fff"/>
      <path id="Path_494" data-name="Path 494" d="M2997.171,1149.777c-.018,0-.049.046-.105.1a.164.164,0,0,0,.105-.1" transform="translate(-2780.171 -1033.764)" fill="#fff"/>
      <path id="Path_495" data-name="Path 495" d="M2989.465,1153.487c.072-.035,2.379-2.912,2.884-3.52-.544.339-3.069.272-5.255.272,1.07,1.865,2.007,3.407,2.371,3.248" transform="translate(-2775.455 -1033.86)" fill="#fff"/>
      <path id="Path_496" data-name="Path 496" d="M2974.125,1160.689c.94.518,1.81,1.005,2.4,1.406,0-1.234-.062-2.719-.125-4.264-1.155-.2-2.4-.413-3.557-.6.4.872.832,2.158,1.283,3.454" transform="translate(-2768.713 -1037.313)" fill="#fff"/>
      <g id="Group_847" data-name="Group 847" transform="translate(81.475 53.813)">
        <path id="Path_497" data-name="Path 497" d="M2813.144,1054.026c-.636.4.683,7.646.026,8.077.349.226,2.382-1.314,4.434-2.866-2.217-2.968-4.114-5.426-4.46-5.211" transform="translate(-2774.567 -1042.527)" fill="#fff"/>
        <path id="Path_498" data-name="Path 498" d="M2867.258,1103.812c.062-.167-.256-.467-.818-.849,0,1.8-.074,3.038-.357,3.063-.477.056-1.252-2.214-2.043-4.469-2.052-1.129-4.483-2.386-5.53-3.166.233-.074.4-.379.516-.777a37.082,37.082,0,0,1,3.731.49c-.293-.649-.56-1.06-.77-1.072-.275,0-.539-.3-.78-.706.2.044-3.485-.639-3.3-.59,1.766-.066,3.206.026,2.908-.192-.174-.351-.244-.454-.429-.824a10.384,10.384,0,0,1,.134-1.883c.107-.618,3.082-.731,5.573-.929.01,1.924.128,4.418.221,6.791,2.528.408,4.657.708,4.762.331.277-.908-4.373-3.179-4.142-4.113.1-.333,1.6-.372,3.333-.372-.536-.962-1.116-2-1.657-2.945.542-.118.88-.269.906-.483.172-1.057-.582-2.427-.457-3.494s-5.979-2.848-5.884-3.905,6.724-1.7,6.78-2.778c.036-1.016-7.229-1.827-7.2-2.84-.349-.864,5.535-3.889,5.122-4.741s-9.556,2.724-10,1.9c-.431-.831,7.159-6.15,6.672-6.953s-8.09,2.945-8.622,2.176c-.523-.79,2.741-4.076,2.156-4.834-.568-.775-2.6-.3-3.2-1.029-.621-.739,2.974-5.149,2.324-5.875-.536-.593-4.8,2.312-5.37,1.734-.7-.7.531-3.384-.191-4.033-.808-.739-1.311-1.919-2.14-2.594s.372-4.323-.488-4.944-1.629-1.945-2.533-2.5c-.883-.59-5.024,3.9-5.933,3.381s-.143-4.487-1.08-4.952c-.834-.423-1.042-2.809-1.917-3.181-.957-.4-2.44-.339-3.421-.7-.89-.333-4.085,5.9-4.981,5.624s-.383-5.691-1.3-5.927c-.639-.157-2.14,3.492-3.3,5.6a9.676,9.676,0,0,0-1.879.11c-.346-1.416-.562-3.491-1.185-3.582-.6-.084-1.486,2.4-2.276,4.149-.593.1-1.183.205-1.779.313-.5-2.266-.8-6.655-1.506-6.686-.942-.056-2.017,4.954-2.961,4.954-.667-.005-1.294-.557-1.935-.883.506-.887,2.525-2.173,2.366-2.883-.105-.414-1.43,1.246-2.669,2.765-.069-.023.208.523.139.508-.085.436-.311-.113-1.05.464-.123.244-.873,1.263-.978,1.475a3.3,3.3,0,0,1-.274-.269c-.088.005-.156-.069-.18-.21.18-.141.349-.287.536-.431.406-.8.806-1.617,1.3-1.629a2.679,2.679,0,0,1,.282.023,1.3,1.3,0,0,0,0-.139c-.067-.244-.749-.562-1.7-.913.523-2.6,1.3-5.8.736-5.7-.975.18-3.377-5.66-4.357-5.452-.575.136.138,5.631.634,10.177a32,32,0,0,1-3.56-1.239c.98,1.021,2.618,3.353,3.885,4.908.082,1.36.07,2.279-.172,2.34-.957.251-3.475-5.516-4.448-5.216s-4.719-7.4-5.694-7.045c-.949.328-.328,5.378-1.3,5.75-.852.339-.311,4.041-1.155,4.423s-4.834-5.765-5.687-5.35c-.829.416-4.167-3.4-4.993-2.963-.355.187,1.329,4.087,3.266,8.428-1.06.947-2.225,2.024-2.825,2.491.611.813,1.24,1.675,1.889,2.535.352-.616,1.16-1.74,1.937-2.8.416.934.834,1.868,1.214,2.761a11.156,11.156,0,0,0-.128,1.906c-.3.305-.6.629-.921.954.7.913,2.225,2.871,1.878,2.445-.7,1.614-1.24,2.991-.932,3.248.244.17.932-.213,1.812-.841a1.412,1.412,0,0,1-.413,1.1c-.826.652-2.766-.564-3.569.1-.251.218-1.381-.613-2.82-1.821,1.267-1.285,2.717-2.848,4.044-4.228-.673-.9-1.391-1.855-2.1-2.825-1.106,1.947-2.348,4.084-3.339,5.854-3.01-2.586-6.562-5.854-7.026-5.439-.675.575-.362,2.466-1.019,3.066-.775.723,2.83,6.116,2.086,6.847-.757.711-1.619,1.242-2.335,1.988s-1.483,1.347-2.153,2.1c-.7.754-6.208-2.62-6.855-1.858-.653.785,7.964,9.015,7.343,9.8-.626.8-7.833-3.532-8.41-2.725-.579.79,8.241,8.01,7.7,8.831-.552.805-.744,1.4-1.263,2.219-.508.831-11.42-4.746-11.9-3.918s3.974,4.341,3.527,5.182c-.44.86-13.183-4.726-13.6-3.874-.456.96,12.733,8.6,12.329,9.567-.431.962-14.371-3.376-14.733-2.389-.362.96,14.637,7.389,14.337,8.377-.329.98-16.431-2.648-17-1.8a8.919,8.919,0,0,0-1.155,3.366c-.225.98,19.586,6.017,19.406,6.991-.163,1-8.329.478-8.465,1.473-.123.98-3.734,1.624-3.82,2.6-.069.982-8.553,1.822-8.588,2.8-.015.988,4.691,2.368,4.708,3.353.018.964,10.026,1.5,10.085,2.453.07.978-7.826,2.7-7.715,3.658.129.955,1.432,1.886,1.6,2.843.171.939,5.793.736,6,1.665.224.926-5.6,3.451-5.344,4.361.274.909,7.317-.372,7.646.521.31.9-10.423,6.132-10.07,7.007.372.875,12.57-3.433,12.966-2.584.372.763,2.647.216,3.036.952.411.749-.992,2.152-.546,2.881.441.706-5.646,5.516-5.171,6.221s7.085-3.05,7.587-2.365,4.379-1.763,4.931-1.106.552,1.167,1.136,1.8c.521.57-8.57,10.114-8.024,10.67.688.708,6.657-4.141,7.38-3.476.716.649,1.758.557,2.533,1.173.741.608-7.275,13.007-6.484,13.553.775.562,2.415.857,3.228,1.37s6.654-6.85,7.488-6.362c.836.464.957,2.4,1.82,2.825s4.5-5.4,5.381-5.018c.783.333,2.644-2.864,3.439-2.566s-4.942,19.545-4.129,19.8c.74.239,4.691-6.958,5.44-6.75.983-.054,3.1,5.649,4.085,5.565.965-.082.4-15.2,1.371-15.312s4.129,15.424,5.1,15.28c.957-.141,2.266-.026,3.21-.2.975-.158,1.745-2.681,2.7-2.881s-1.17-14.316-.231-14.549c.958-.226,5.612,14.1,6.546,13.836.934-.234.1-7.317,1.011-7.586.927-.292.793-3.941,1.7-4.243.929-.3,4.827,7.784,5.743,7.453.9-.339-3.613-14.906-2.7-15.26.321-.135.888.354,1.511,1.009-.539-.162-.9-.218-.959-.111-.331.572,4.378,8.659,4.006,9.218.493-.267.023-3.582-.413-6.781a.34.34,0,0,0,.159-.018c.888-.38,4.229,4.787,5.106,4.372.867-.39.965-1.24,1.2-2,0-.013.246-.6.318-.762.19.108.634.3.957.474,0,.016.77-.028,1.381-.061,1.719,1.357,4.167,3.83,4.724,3.471s-1.258-4.308-2.523-7.394c2.23,1.172,4.178,2.147,4.381,1.77.221-.408-2.387-2.176-5.23-4.066-.254-.775-.339-1.314-.172-1.432.793-.543,1.863-.608,2.638-1.185s9.072,8.464,9.826,7.869c.434-.354-2.4-4.726-5.066-8.877,1.309-.452,3.37-.767,3.572-1.488.167-.6-3.849-2.293-6.8-3.72-.747-1.275-1.153-2.17-.968-2.312.673-.559.305-1.968.762-2.694-1.552.349-4.811.583-7.033.885-1.827-.711-3.521-1.391-3.456-1.88.072-.536,6.343-.336,11.547-.259a4.6,4.6,0,0,0-.146.824c-.018.092-.149.2-.349.275,1.87.782,9.146,7.481,9.759,6.894.672-.652-4.414-7.14-3.739-7.823.659-.659,5.777,3.03,6.423,2.343.724-.772,1.789-1.28,2.471-2.063.629-.726-8.52-9.5-7.909-10.229.6-.739,14.175,8.995,14.766,8.243.556-.742-11.355-10.747-10.8-11.527.554-.759.077-1.855.6-2.63.539-.787,9.243,4.046,9.744,3.23.508-.788-1.075-2.784-.59-3.6s4.16.275,4.622-.549-8.238-6.358-7.8-7.2,14.535,5.177,14.953,4.331.742-1.922,1.119-2.784,2.962-1.026,3.323-1.9-6.539-4.656-6.208-5.559Zm-76.052-38.52c-.741-.58,5.117-9.387,5.691-11.612.778,1-.438,4.533.472,5.341a1.115,1.115,0,0,0,.865.152c-3.267,3.176-6.61,6.44-7.029,6.119Zm6.531,1.147c-.441.269-.739.38-.839.285-.518-.449,2.892-5.406,5.235-9.151a1.172,1.172,0,0,1,.906.133c.536.493-2.846,5.1-5.3,8.733Zm15.115-8.374a.045.045,0,0,1-.023-.018c-.347-.369-1.417-.041-2.543.349-.016-.008-.039-.008-.039-.028-.146-.346,1.822-1.531,4.411-2.966-.231.8-.644,1.632-.421,2.3-.5.131-.957.269-1.385.359Zm-.234,8.846a2.151,2.151,0,0,1-.172-1.116c1.191-.164,2.086-.182,2.274.167.542,1-1.1,3.217-1.083,4.515a1.449,1.449,0,0,1-1.083-.308.316.316,0,0,0-.265-.049c.059-1.044.7-2.506.328-3.209Zm-.7,12.492c-.19-.275.562-1.255,1.68-2.545.447.59.914,1.167,1.4,1.732-1.555.662-2.838,1.124-3.076.813Zm20.131,72.542c-.3.716-1.678,1.277-2.261,1.929a3.022,3.022,0,0,1-1,.051c.019-.972-2.89-5.157-2.732-5.993,2.751,1.634,6.187,3.548,5.989,4.013Zm-6.813-46.955c.144.405-.819,1.2-1.961,2.034-1.26.083-2.222.062-2.324-.266-.352-.993,1.847-2.592,1.473-3.605-.262-.7,4.054-3.176,6.315-4.877,1.661-.015,3.282-.038,3.475.449.4,1.016-7.329,5.231-6.977,6.265Zm12.785,23.16c.033.913-.465,2.235-.48,3.14,0,.031,0,.054,0,.105-3.362-.71-6.777-1.431-6.77-1.929.054-.962,1.756-1.64,1.748-2.62s-5.553-1.406-5.609-2.4c-.016-.413,3.071-1.065,6.656-1.765,1.2.769,6.048,1.364,6.1,2.178.077.937-1.683,2.363-1.647,3.292Zm5.625-31.747c-.957-.526-1.835-2.134-2.789-2.725-.082-.064-.146-.129-.241-.218,1.531-1.906,3.151-4.043,3.669-3.81.972.411.813,2.676,1.758,3,.148.054.244.254.313.533-1.352,1.978-2.425,3.382-2.71,3.217Zm8.073-.2c-.324-.11-.049-1.618.426-3.6a5.2,5.2,0,0,0,1.483.747c-.854,1.752-1.58,2.973-1.909,2.85" transform="translate(-2740.104 -1032.219)" fill="#fff"/>
      </g>
      <g id="Group_848" data-name="Group 848" transform="translate(125.215)">
        <path id="Path_499" data-name="Path 499" d="M2827.7,934.178c.285.736-3.146,2.45-3.113,3.266.053.78,1.776,1.6,1.6,2.43-.1.705-.786,1.349-1.06,2.109a15.792,15.792,0,0,1-.819,2.227c-.292.577-1.683,1.557-2.042,2.147.765.3,2,1.752,2.825,2.029.734.239,2.181-1.675,2.941-1.452s.83,3.261,1.612,3.45c.657.142,1.889-2.147,2.561-2,.852.188,1.735.082,2.551.231.847.164,1.555.937,2.338,1.057.824.136,1.5,1.462,2.261,1.558.716.09,1.6-1.722,2.256-1.661.775.052,1.473,2.589,2.184,2.594.621.023,1.4-1.888,1.971-1.932.054-.78-2.726-2.337-2.539-3.074.167-.749,4.889-.01,5.179-.7.32-.685,1.114-.657,1.509-1.257s-1.114-2.422-.639-2.922c.624-.649,3.842-1.452,4.594-1.911-.785-.415-3.6-2.081-4.4-2.473s-3.054,2.325-3.873,1.947c-.724-.328-1.157-1.216-1.909-1.516-.729-.32-.18-3.83-.929-4.11s-1.406-.985-2.179-1.265c-.741-.272-3.005,3.761-3.772,3.53-.767-.269-.656-3.23-1.432-3.476s-2.158,1.734-2.948,1.529c-.77-.21-.708-3.828-1.493-4.013s-2.017,1.4-2.818,1.237c-.8-.182-1.183-2.625-1.968-2.771-.724-.136-1.74,1.313-2.456,1.211-.292-.054.3.267,0,.221.657.6-.172,2.145.293,2.8.482.647,3.441.254,3.708.968" transform="translate(-2822.273 -928.971)" fill="#fff"/>
      </g>
    </g>
  </g>
</svg>
