<svg xmlns="http://www.w3.org/2000/svg" width="207.25" height="60" viewBox="0 0 207.25 60">
  <g id="Group_887" data-name="Group 887" transform="translate(-2582.949 -914.131)">
    <g id="Group_844" data-name="Group 844" transform="translate(2656.971 934.132)">
      <path id="Path_468" data-name="Path 468" d="M3078.369,1061.18c-1.593-.024-2.905-.313-2.905-2.505a3.584,3.584,0,0,1-3.4,2.505c-2.46,0-4.312-2.6-4.312-5.588,0-2.77,1.851-5.491,4.8-5.491a4.731,4.731,0,0,1,2.765.964c.258.169.4.265.4.265a1.82,1.82,0,0,0,.258-.6c.047-.1,0-.193.164-.361h1.172a8.063,8.063,0,0,0-.164,1.758v6.238c0,.651.117,1.831,1.218,1.927h2.625v.891h-2.625Zm-8.482-5.443c0,3.54,1.5,4.624,2.484,4.624a2.784,2.784,0,0,0,2.531-2.167,10.879,10.879,0,0,0,.258-2.915c0-2.047-.258-4.335-2.6-4.335C3070.73,1050.945,3069.887,1053.256,3069.887,1055.738Zm2.554-8.6a1.2,1.2,0,0,1-1.2,1.228,1.229,1.229,0,0,1,0-2.457A1.2,1.2,0,0,1,3072.441,1047.139Zm3.374,0a1.2,1.2,0,1,1-1.2-1.228A1.188,1.188,0,0,1,3075.815,1047.139Z" transform="translate(-3067.755 -1045.598)" fill="#fff" stroke="#fff" stroke-miterlimit="10" stroke-width="0.5"/>
      <path id="Path_469" data-name="Path 469" d="M3149.255,1089.427a1.2,1.2,0,0,1-1.2,1.228,1.174,1.174,0,0,1-1.2-1.228,1.154,1.154,0,0,1,1.2-1.2A1.182,1.182,0,0,1,3149.255,1089.427Zm6.115-3.42a3.567,3.567,0,0,1-2.929-1.878c-.562,1.445-2.015,1.878-3.468,1.878h-1.5v-.891h1.078c1.242,0,1.758-.843,1.758-2.24v-6.045c0-.529-.094-.626-1.031-.963l3.093-.6v6.141c0,1.518.984,3.71,2.624,3.71h1.312v.891Zm-2.741,3.42a1.2,1.2,0,1,1-2.39,0,1.2,1.2,0,1,1,2.39,0Z" transform="translate(-3134.662 -1070.425)" fill="#fff" stroke="#fff" stroke-miterlimit="10" stroke-width="0.5"/>
      <path id="Path_470" data-name="Path 470" d="M3216.95,1058.776a4.6,4.6,0,0,1-4.405,2.649,4.426,4.426,0,0,1-3.819-2.047,2.982,2.982,0,0,1-2.46,1.011h-.937v-.891h.96a2.032,2.032,0,0,0,.89-.361,7.869,7.869,0,0,0,1.383-3.348c.563-2.24,1.148-4.455,4.592-4.455,2.835,0,4.358,2.939,4.358,5.154a4.966,4.966,0,0,1-.07.867c.4,1.132,1.218,2.144,2.273,2.144h1.8c1.219,0,1.757-.916,1.757-2.312v-10.549c0-.554-.023-.723-1.078-1.06l3.116-.6v12.282c0,2.023-1.429,3.131-3.421,3.131h-1.711A3.629,3.629,0,0,1,3216.95,1058.776Zm-4.217-6.671c-1.5,0-1.968,1.734-2.437,3.612l-.047.145a11.945,11.945,0,0,1-.867,2.576.353.353,0,0,1,.117.145c.61.77,1.664,2,3.117,2,1.476,0,2.741-1.782,2.741-3.974,0-2.288-.821-4.431-2.531-4.5Z" transform="translate(-3184.108 -1044.807)" fill="#fff" stroke="#fff" stroke-miterlimit="10" stroke-width="0.5"/>
      <path id="Path_471" data-name="Path 471" d="M3350.372,1047.2c0-.578-.351-.795-1.687-.795v-.795l3.749-.169v12.428c0,1.276.563,1.95,1.546,2.023h1.172v.891h-1.312c-1.992,0-3.468-.723-3.468-3.011Z" transform="translate(-3305.351 -1045.202)" fill="#fff" stroke="#fff" stroke-miterlimit="10" stroke-width="0.5"/>
      <path id="Path_472" data-name="Path 472" d="M3391.7,1086.173a6.143,6.143,0,0,0,2.273-.506,16.948,16.948,0,0,1-2.367-4.094,20.774,20.774,0,0,0-1.593-2.36c-.187-.265-.422-.6-.492-.674a2.879,2.879,0,0,1,.3-.217,10.847,10.847,0,0,1,5.319-1.806c2.882,0,4.967,1.565,4.967,4.263,0,2.36-2.343,3.854-4.382,4.986a1.839,1.839,0,0,0,1.383.41h6.045v.891h-5.717a4.089,4.089,0,0,1-2.648-.6.023.023,0,0,1-.023-.024,4.5,4.5,0,0,1-2.507.626h-4.406v-.891Zm-.352-7.514a13.774,13.774,0,0,1,1.875,3.155,16.937,16.937,0,0,0,1.8,3.131c1.663-1.06,2.764-1.975,2.764-4.264,0-1.83-.89-3.155-2.624-3.155A7.863,7.863,0,0,0,3391.349,1078.659Z" transform="translate(-3338.481 -1071.481)" fill="#fff" stroke="#fff" stroke-miterlimit="10" stroke-width="0.5"/>
      <path id="Path_473" data-name="Path 473" d="M3484.286,1059.629h.515c1.313,0,1.851-.892,1.851-2.312v-10.525c0-.554,0-.722-1.03-1.06l3.093-.6v12.259c0,2.023-1.43,3.131-3.421,3.131h-1.007Z" transform="translate(-3420.034 -1044.937)" fill="#fff" stroke="#fff" stroke-miterlimit="10" stroke-width="0.5"/>
      <path id="Path_474" data-name="Path 474" d="M3527.663,1046.792c0-.554-.023-.722-1.007-1.06l3.069-.6v15.39h-2.062Z" transform="translate(-3455.868 -1044.937)" fill="#fff" stroke="#fff" stroke-miterlimit="10" stroke-width="0.5"/>
      <path id="Path_475" data-name="Path 475" d="M3598.616,1061.18c-1.593-.024-2.905-.313-2.905-2.505a3.583,3.583,0,0,1-3.4,2.505c-2.46,0-4.312-2.6-4.312-5.588,0-2.77,1.851-5.491,4.8-5.491a4.73,4.73,0,0,1,2.765.964c.258.169.4.265.4.265a1.831,1.831,0,0,0,.258-.6c.047-.1,0-.193.164-.361h1.172a8.048,8.048,0,0,0-.164,1.758v6.238c0,.651.117,1.831,1.218,1.927h2.624v.891h-2.624Zm-8.482-5.443c0,3.54,1.5,4.624,2.483,4.624a2.783,2.783,0,0,0,2.531-2.167,10.857,10.857,0,0,0,.258-2.915c0-2.047-.258-4.335-2.6-4.335C3590.978,1050.945,3590.134,1053.256,3590.134,1055.738Zm2.554-8.6a1.2,1.2,0,0,1-1.2,1.228,1.229,1.229,0,0,1,0-2.457A1.2,1.2,0,0,1,3592.688,1047.139Zm3.374,0a1.2,1.2,0,1,1-1.2-1.228A1.188,1.188,0,0,1,3596.062,1047.139Z" transform="translate(-3507.752 -1045.598)" fill="#fff" stroke="#fff" stroke-miterlimit="10" stroke-width="0.5"/>
      <path id="Path_476" data-name="Path 476" d="M3669.351,1089.427a1.2,1.2,0,0,1-1.195,1.228,1.174,1.174,0,0,1-1.2-1.228,1.154,1.154,0,0,1,1.2-1.2A1.182,1.182,0,0,1,3669.351,1089.427Zm-1.757-4.31h1.875c1.241-.025,1.757-.915,1.757-2.312v-5.853c0-.578-.024-.746-1.054-1.083l3.093-.6v7.61c0,2.023-1.406,3.131-3.4,3.131h-2.273Zm5.131,4.31a1.2,1.2,0,1,1-2.39,0,1.2,1.2,0,1,1,2.39,0Z" transform="translate(-3574.531 -1070.425)" fill="#fff" stroke="#fff" stroke-miterlimit="10" stroke-width="0.5"/>
      <path id="Path_477" data-name="Path 477" d="M3713.082,1076.951c0-.578-.024-.746-1.055-1.083l3.116-.6v6a23.136,23.136,0,0,1-.258,3.854h3.421v.891h-3.585c-.562,2.457-1.944,4.335-5.225,4.335-.3,0-.82-.024-1.687-.1,3.4-.939,5.085-2.649,5.272-7.177Z" transform="translate(-3609.078 -1070.425)" fill="#fff" stroke="#fff" stroke-miterlimit="10" stroke-width="0.5"/>
      <path id="Path_478" data-name="Path 478" d="M3777.172,1059.463h-4.218v-.891h3.772a3.132,3.132,0,0,0,1.851-.338c-1.968-1.324-3.444-3.155-3.444-5.419,0-2.288,2.2-4.07,5.014-4.07,2.859.025,4.874,1.9,4.874,4.167,0,2.649-2.249,4.142-4.312,5.3a2.007,2.007,0,0,0,1.313.361H3788v.891h-5.647a5.011,5.011,0,0,1-2.812-.578A4.464,4.464,0,0,1,3777.172,1059.463Zm2.179-14.354a1.2,1.2,0,0,1-1.2,1.228,1.229,1.229,0,0,1,0-2.457A1.2,1.2,0,0,1,3779.351,1045.109Zm.468,12.452c1.781-1.156,2.905-1.854,2.905-4.768,0-1.9-.96-3.228-2.718-3.228a2.732,2.732,0,0,0-2.812,2.626,6.144,6.144,0,0,0-.047.626A5.886,5.886,0,0,0,3779.819,1057.561Zm2.905-12.452a1.2,1.2,0,1,1-1.195-1.228A1.187,1.187,0,0,1,3782.725,1045.109Z" transform="translate(-3664.174 -1043.881)" fill="#fff" stroke="#fff" stroke-miterlimit="10" stroke-width="0.5"/>
      <path id="Path_479" data-name="Path 479" d="M3867.557,1059.629h.515c1.312,0,1.851-.892,1.851-2.312v-10.525c0-.554,0-.722-1.031-1.06l3.093-.6v12.259c0,2.023-1.429,3.131-3.421,3.131h-1.008Z" transform="translate(-3744.184 -1044.937)" fill="#fff" stroke="#fff" stroke-miterlimit="10" stroke-width="0.5"/>
      <path id="Path_480" data-name="Path 480" d="M3910.938,1046.792c0-.554-.023-.722-1.008-1.06l3.069-.6v15.39h-2.062Z" transform="translate(-3780.021 -1044.937)" fill="#fff" stroke="#fff" stroke-miterlimit="10" stroke-width="0.5"/>
    </g>
    <g id="Group_850" data-name="Group 850" transform="translate(2582.949 914.131)">
      <g id="Group_845" data-name="Group 845" transform="translate(13.795)">
        <path id="Path_481" data-name="Path 481" d="M2781.951,931.154c-.091.189-.467.533-.591.745a.387.387,0,0,0,.277.122c.207-.024.357-.414.313-.867" transform="translate(-2764.55 -928.568)" fill="#fff"/>
        <path id="Path_482" data-name="Path 482" d="M2674.647,921.395a2.714,2.714,0,0,0,.043.382.307.307,0,0,1-.06.251c-.18.159-.515.125-.692.294s-.164.5-.333.675c-.159.155.242.345.091.508.022.092-1.332-.28-1.3-.192.083.234-.106.732.038.953s1.444-.47,1.633-.27c.169.183-.573,1.341-.366,1.51.187.149,1.1-.659,1.316-.52s.328.355.563.481c.212.113.54-.105.769-.007s.338.378.581.462-.045,1.9.21,1.972.61.049.871.107c.237.05.888-2.073,1.13-2.038s.414.255.663.279.379,1.528.631,1.542.542.4.8.392c.232,0,.424-1.584.658-1.6s.391-.479.625-.5.485.4.719.36a.183.183,0,0,1,.111.02.026.026,0,0,0,0,.008c.093.22-.52.69-.436.916.045.135.76-.284,1.2-.474a1.624,1.624,0,0,1,.409.248c.477.873,1.017,1.929,1.168,1.874.253-.1.424-.579.674-.683.227-.1-.35-2.038-.131-2.14s1.2,1.351,1.423,1.236.411-.346.626-.46-.83-2.443-.621-2.564,1.82,2.031,2.024,1.9-1.133-2.573-.932-2.71.2-.444.391-.584.568.042.757-.109,2.394,2.093,2.569,1.94-1.34-2.2-1.174-2.357c.192-.18,1.575.818,1.751.63.157-.167-.353-.954-.209-1.124.163-.2.886.017,1.022-.177.126-.169.479-1.223.587-1.394a.139.139,0,0,0-.046,0c.1-.22-.028-.566.042-.784a3.644,3.644,0,0,0,.055-.714c.028-.224-.348-.425-.371-.632s.457-.5.389-.69c-.089-.237-.386-.417-.545-.632-.132-.173-.39-.173-.559-.33-.24-.038-.439-.07-.684-.1-.211-.029-.4-.264-.617-.288a.825.825,0,0,1-.225-.06,1.525,1.525,0,0,0,.527-.212c-.257-.01-2.076-1.188-2.329-1.194a7.281,7.281,0,0,0-.565,2.219c.013-.024.074,0,.081-.016.021-.119.308-.241.684-.361-.041.178-.078.354-.106.487a2.631,2.631,0,0,0-.028.808c-.623.055-1.161.088-1.166-.026a.292.292,0,0,1,.048-.149c-.146-.108-.285-.25-.439-.246-.255.012-.464.044-.711.061s-.772-3.21-1.022-3.187-.086,3.828-.333,3.859-.7-1.636-.947-1.6-.7-1.114-.946-1.072-.628-.42-.871-.372.308,3.554.069,3.616-1.169-2.606-1.406-2.541-.774-.778-1.012-.7.5,3.207.272,3.287-.3.482-.532.567-.75-.686-.974-.6-1.464-2.2-1.688-2.1.994,3.389.774,3.487-.8-.635-1.034-.582c-.045-.233-.1-.406-.176-.409-.159-.02-.356.372-.543.64-.24.064-1.37-1.445-1.577-1.319-.1.05-.006.432.1.834a1.322,1.322,0,0,1-.21.056c-.138.016-.207.474-.3.766a.3.3,0,0,0-.247-.026c-.179.12-1.059-.76-1.236-.639-.119.086.3.939.543,1.531l.058.321Zm14.885-.812c-.106-.125.542-.731,1.261-1.372a4.088,4.088,0,0,1,.389.345.512.512,0,0,1,.042.057c-.8.556-1.579,1.1-1.692.97Zm2.853,1.03c-.259-.125-.5-.451-.722-.585-.1-.062.059-.48.252-.944a1.039,1.039,0,0,1,.553.041c.218.122.146.854.395.965a1.045,1.045,0,0,0,.5-.029c-.44.308-.861.607-.98.553" transform="translate(-2672.381 -914.391)" fill="#fff"/>
      </g>
      <g id="Group_849" data-name="Group 849" transform="translate(0 2.249)">
        <path id="Path_483" data-name="Path 483" d="M2747.181,1259.619c.033.04.1.046.185.04.01-.144.02-.281.023-.4-.155.189-.24.318-.208.355" transform="translate(-2721.842 -1208.494)" fill="#fff"/>
        <path id="Path_484" data-name="Path 484" d="M2799.476,1275.042c-.035,0-.069.077-.108.2.116-.124.169-.2.108-.2" transform="translate(-2765.984 -1221.838)" fill="#fff"/>
        <g id="Group_846" data-name="Group 846" transform="translate(42.377 4.119)">
          <path id="Path_485" data-name="Path 485" d="M2866.349,959.079c-.038-.325-.07-.479-.209-.5-.074-.01-.156.062-.248.182.043-.327.126-.706-.012-.812-.231-.18-1.068.458-1.3.285s.077-1.118-.166-1.283-1.036.524-1.286.37c-.161-.1-.121-.629-.194-.923a.32.32,0,0,0,.063-.138c-.228-.135-.521-.3-.753-.432-.189-.107-.48-.047-.672-.148a2.979,2.979,0,0,0-.646.556c-.164.173-.1.509-.234.719a3.742,3.742,0,0,0-.314.629c-.1.236-.38.384-.433.637a4.445,4.445,0,0,1-.171.484.431.431,0,0,0-.232-.1c-.018.31-.395.946-.328,1.275.047.288.372.626.5.923a4.4,4.4,0,0,0,.323.581.156.156,0,0,0-.1.044.783.783,0,0,1,.085.255c-.574-.158-1.394-.487-1.49-.309-.123.241.316.9.213,1.164s.056.7-.021.972-.415.567-.466.856c-.05.257.473.659.438.928s2.187.677,2.177.95-3.194.475-3.193.757,2.251.49,2.271.779c.014.249-2.072.7-2.048.955s.4.519.443.782c.041.226,1.411-.333,1.457-.1.272-.032,0-1.223.272-1.244s.635.274.9.266.561,2.6.829,2.606c.295.005.657-1.724.949-1.7s.425,1.6.713,1.633.969-2.287,1.257-2.235.439.99.721,1.058c.252.057-.111,2.292.137,2.368s.41.152.656.24,1.222-1.828,1.46-1.731.405.408.637.523c.264.122-.4,1.965-.147,2.1.225.125,1.421-1.492,1.646-1.356s1.06-.611,1.275-.466-.139,1.154.068,1.314.551.181.753.352-1.046,1.927-.853,2.111c.162.148,1.835-1.295,1.994-1.133.191.193-.867,1.549-.687,1.748.159.174,1.861-.958,2.423-1.134.655-.315,1.852-.731,1.813-.915-.057-.262-.544-.455-.6-.71s-1.86-.07-1.928-.327.984-.811.907-1.063c-.085-.278-1.315-.174-1.405-.448-.088-.251-.4-.378-.491-.626s-.213-.436-.308-.677,2.089-1.456,1.982-1.695.352-.784.242-1.021-.472-.41-.6-.642-2.017.47-2.141.245-.228-.461-.36-.685-.935-.008-1.074-.233,1.2-1.4,1.052-1.618c-.052-.076-.208,0-.464.074a.564.564,0,0,1-.247.079c-.442.124-.9.206-.985.083a.472.472,0,0,0-.182-.137,2.393,2.393,0,0,0-.177-.339,12.628,12.628,0,0,0,1.4.3,1.335,1.335,0,0,0,.134-.034s.008,0,.008-.006c.118-.211-1.081-1.393-1.17-1.339-.131.161-.343.5-.554.766-.154-.252-.278-.489-.226-.581.112-.218,1.012-.29,1.073-.532-.168-.206-.592-.412-.762-.614s-.511-.246-.684-.442-.855.1-1.035-.092-.112-.605-.3-.789.137-.9-.055-1.082c-.168-.149-.879.593-1.046.443-.16-.047-.2-.447-.243-.824l-.022-.161Zm-2.87-.255a6.238,6.238,0,0,1,.973-.3,8.754,8.754,0,0,1,.916.157,1.339,1.339,0,0,1,.463.17c-.251.388-.517,1.042-.727,1.034-.3-.012-.5-.187-.792-.154s-.416.314-.7.39c-.19.054-.375-.068-.552-.059.177-.3.149-1.179.416-1.24Zm-2.971,2.572a2.537,2.537,0,0,1,.083-1,6.216,6.216,0,0,1,.482-.627.809.809,0,0,1,.427-.12c.068.379.21.864.085.975-.173.153.089.632-.066.811-.083.094-.59.008-1.011-.035Zm.064-2.9c.3-.065.6.055.849-.056a2.44,2.44,0,0,0,.642-.426,1.891,1.891,0,0,0,.221-.259c-.009.256.037.565-.111.681-.2.149-.664.091-.926.194-.238.09-.413.562-.709.605-.125.023-.377-.221-.614-.411a4,4,0,0,1,.649-.328Zm.174,4.854c-.239-.255-.873-.35-1.069-.6-.084-.109.093-.342.317-.588a1.142,1.142,0,0,0,.174.431c.209.26.96.182,1.216.444.01.01.017.025.027.035-.337.216-.6.346-.665.278Zm3.6,2.134c-.263-.1-.892.273-1.159.131-.238-.117-.573-.364-.808-.516-.214-.137-.274-.656-.484-.82-.083-.064.172-.539.449-1.039.316-.173.622-.336.733-.255.23.171.428.255.66.4.273.169.022,1.217.288,1.343.194.087.307.46.452.708-.05.044-.1.065-.13.05Zm4.9-.014c-.164.1-.454,0-.778-.167a7.448,7.448,0,0,0,.914-.505c.025-.016.067-.037.1-.055-.015.35-.073.63-.235.728" transform="translate(-2857.668 -955.676)" fill="#fff"/>
          <path id="Path_486" data-name="Path 486" d="M2962.1,1085.858a18.631,18.631,0,0,0-1.236-2.16,2.553,2.553,0,0,0-.389-.416h-.008c-.2.025-.309.015-.334-.029a.267.267,0,0,1,0-.162l0-.01-.011,0c-.269-.1-.539-.2-.542-.318s.281-.268.554-.408l.172-.083h0v-.007a2.218,2.218,0,0,1,.148-.237l0-.008-.009-.006a2.516,2.516,0,0,0-.5-.21c-.115-.04-.242-.084-.341-.126l0,0-.006,0c-.409.168-1.035.423-1.105.322s.371-.572.8-1.038c.228-.248.467-.5.649-.725l.009-.014-.013,0c-.178-.057-.265-.118-.273-.177s.128-.158.4-.289h0c.109-.038.146-.026.158-.008.043.042-.045.193-.25.443l-.006.011.013.007c.124.038.267.066.4.1.276.054.534.106.552.218s-.37.3-.738.471c-.393.177-.769.349-.754.49.005.057.061.112.176.172h.008c.531-.218,1.126-.464,1.2-.358s-.128.391-.314.67l-.013.013v.015a.092.092,0,0,1,.034.058c0,.06-.057.128-.183.206l0,0v0a.217.217,0,0,0-.009.165c.058.1-.017.273-.1.442-.023.066-.057.133-.078.2v.013l.009,0c.132.047.254.095.36.137h.011a3.442,3.442,0,0,1,1.459-.017,21.169,21.169,0,0,1,.151,2.845l-.067-.19" transform="translate(-2942.937 -1060.59)" fill="#fff"/>
        </g>
        <path id="Path_487" data-name="Path 487" d="M2585.1,982.4c-.717.043-1.4.089-1.421.23-.01.1.351.436.78.819,0,.047.066.1.167.146a6.391,6.391,0,0,1,1.191,1.185,2.088,2.088,0,0,0-.21-.864c.532.15,1.042.3,1.042.443,0,.291-.881.547-.876.842s.628.523.646.81-.575.592-.553.879c.033.326-2.957.99-2.917,1.31.036.286,3.573.1,3.619.388s-2.518,1.02-2.465,1.3,1.507.3,1.571.583-1.589,1-1.521,1.277c.066.255.926.587,1,.839.187.207,1.092.107,1.294.3s.325.524.547.693.078.989.317,1.143.091,1.294.344,1.424c.222.113,1.314-1.416,1.552-1.319.222.092.379.481.613.563.282.094.54.639.833.7s.982-2.111,1.27-2.071.469.33.757.342.58,1.444.865,1.432.217-2.99.507-3.027.87,2.143,1.153,2.082,1,1.3,1.277,1.211.321-1.061.593-1.169.424-.558.687-.689.656-.058.914-.207-.136-1.337.116-1.5.4-.394.64-.578c.22-.164,2.365,2.049,2.582,1.869s-.845-1.9-.636-2.09-1.173-1.963-.974-2.165,1.589.781,1.783.568.477-.339.662-.563,1.617.488,1.794.255-1.522-1.832-1.35-2.079c.152-.221,3.03,1.329,3.177,1.1s-3.24-2.622-3.1-2.864,1.156.077,1.29-.164.954-.113,1.08-.365.656-.317.774-.572c.1-.227-2.3-1.543-2.205-1.777s1.922.285,2.019.05,1.969.2,2.056-.033c.109-.3.817-.44.916-.734s-.079-.74.008-1.032c.079-.264.321-.541.388-.8.076-.294-1.191-.959-1.13-1.247.058-.264-1.165-.785-1.121-1.039.018-.079.121-.141.265-.2a1.093,1.093,0,0,0,.278.125c.24.058,1.761-.244,2-.179.015-.347.371-1.587.366-1.921,0-.3.669-.717.648-1.014-.009-.277-1.064-.495-1.478-.743.324-.24.558-.431.56-.5a2,2,0,0,0-.752.238c-.119-.255-.6-.459-.646-.72-.052-.286-1.135-.33-1.2-.608-.013-.038.012-.1.055-.194-.335-.017-1.08-2.185-1.4-2.131s-.35,1.8-.674,1.835-.7-.773-1.027-.753-.593,1.252-.917,1.254c-.287,0-.555-.728-.832-.745-.328-.014-.885,2.5-1.2,2.471-.281-.026-.051-4.091-.326-4.13-.318-.053-.8,1.214-1.108,1.15-.268-.061-.964,1.52-1.229,1.454-.3-.089.162-2.606-.126-2.706s-1.382,1.9-1.66,1.785-.119-1.242-.376-1.376c-.273-.144.328-1.6.085-1.755s-1.092.722-1.312.547c-.194-.154-1.935,1.367-2.1,1.2-.2-.2.427-1.341.267-1.549-.149-.188.068-.666-.045-.857s-.363-.371-.439-.579c-.041-.107-.841-2.3-.873-2.411-.215.229-1,1.081-1.211,1.321s1.444,2.109,1.247,2.35-1.055-.041-1.247.209-.222.634-.4.887.984,1.43.807,1.693-.867.137-1.04.4-2.192-.584-2.349-.312.818,1.205.666,1.48c-.134.248-.58.347-.7.6s2.081,1.6,1.963,1.853-3.225-.826-3.338-.566,1.68,1.3,1.582,1.568.616.789.519,1.057.3.629.21.9c-.03.11-.409.1-.858.076-.84-.751-1.782-1.612-1.89-1.516-.214.2-.094.893-.293,1.1-.111.109-.07.386-.058.628-.51.058-1.163.076-1.206.25-.071.273.523.754.464,1.036-.031.126.459.3,1.085.562a1.045,1.045,0,0,0,.159-.588c.336.414.674.826.606.918-.006.01-.018.01-.028.017-.2-.089-.426-.182-.643-.273l-.018.029c-.013.012-.013.032-.022.041-.972-.4-2.587-1.23-2.7-1.061a18.127,18.127,0,0,0,2.707,1.8.571.571,0,0,1-.05.387c-.139.184-.984-.06-1.113.133a.284.284,0,0,0,0,.191m7.443-3.865c-.247.107-.944-.847-1.407-1.249,0-.339.022-.624.146-.683a8.183,8.183,0,0,0,.838-.644c.257,1.13.611,2.492.424,2.575Zm3.512-1.551c-.358.072-.784-.557-1.135-.468-.161.038-.444-.387-.734-.842a4.207,4.207,0,0,1,.462-.152c.328-.081.552-.967.89-1.033.139-.026.407.59.692,1.315-.013.648-.051,1.154-.174,1.18Zm3.255-1.566c-.28.026-.474.426-.724.577.273-.365.459-1.736.76-1.763.093-.006.2.136.313.339-.109.469-.218.837-.349.847Zm6.748,2.031c-.031-.008-.051-.058-.071-.138.345-.917.7-1.87.888-1.833.071.013.119.137.152.326-.376.813-.771,1.682-.969,1.645" transform="translate(-2582.949 -959.626)" fill="#fff"/>
        <path id="Path_488" data-name="Path 488" d="M2781.615,1054.38a.15.15,0,0,0-.01.044,8.313,8.313,0,0,0,.9,1.648c.24.075.527.021.75.144a.191.191,0,0,0,.154,0,9.816,9.816,0,0,0-1.794-1.836" transform="translate(-2750.961 -1035.094)" fill="#fff"/>
        <path id="Path_489" data-name="Path 489" d="M2794.435,1062.862c-.209-.125-.8.426-1.132.515a19.161,19.161,0,0,0,2.568,2.727c.224-.152,1.693-2.635,1.917-2.78-.244-.153-3.106-.313-3.354-.462" transform="translate(-2760.855 -1042.261)" fill="#fff"/>
        <path id="Path_490" data-name="Path 490" d="M2778.545,1066c.615.285,3.573,3.412,3.8,3.227.159-.126-1.386-2.454-2.425-4.13a1.068,1.068,0,0,1-.1-.038c-.222-.122-.934.806-1.272.941" transform="translate(-2748.373 -1044.131)" fill="#fff"/>
        <path id="Path_491" data-name="Path 491" d="M2777.793,1071.07c0,.008-.01.012-.015.019l0,0a.158.158,0,0,0,.114,0c-.05-.026-.085-.029-.1-.019" transform="translate(-2747.725 -1049.214)" fill="#fff"/>
        <path id="Path_492" data-name="Path 492" d="M2746.849,1257.837c.24.054.24,1.307.479,1.359s1.035-2.678,1.28-2.632c.224.041.4.279.626.318.278.043.911-2.745,1.191-2.706s-.1,5.425.177,5.456.654-.535.931-.516c.31.026.56,2.132.873,2.148.28.013.648.1.923.1s.643-.716.919-.716a9.4,9.4,0,0,0,.468-2.588c.2-.041.317-.074.237-.107a.407.407,0,0,0-.219.01,7.522,7.522,0,0,1,.166-.946c-.225.239-.666.644-.958.929.078-.767.938-3.3.727-3.39-.255-.113-1.312,1.66-1.557,1.532s-.444-.247-.676-.384.749-2.032.525-2.185-1.433,1.263-1.653,1.1-.381-.312-.6-.486c-.187-.157-.169-.457-.353-.625-.156-.149-1.625,1.072-1.782.915-.169-.173-1.12.315-1.537.357-.088,1.118-.376,3.011-.189,3.056Zm7.191.348c.071-.013.146-.029.227-.041a.593.593,0,0,1-.227.041Zm-.383.1a.009.009,0,0,0,0,.006s0,0,0-.006" transform="translate(-2721.514 -1203.615)" fill="#fff"/>
        <path id="Path_493" data-name="Path 493" d="M2626.5,1032.727a.07.07,0,0,1,.005-.044h0c.106-.406.157-.709.081-.745-.257-.116-1.322,1.6-1.582,1.492-.285-.123-.425-.53-.712-.643-.262-.1-1.279,1.975-1.539,1.881s-.111-1.173-.378-1.255.855-4.606.595-4.687-2.334.84-2.592.771c-.01.281,1.343,1.979,1.32,2.264s-.555.518-.591.8-3.335.03-3.381.319c-.043.26-.181.372-.237.639s3.714,1.286,3.649,1.555.59.717.52.977-1.434.165-1.514.425c-.07.233-1.317.06-1.4.291s1.179.9,1.095,1.123c-.1.266,1.088,1.036.987,1.3s-.742.32-.851.577-.278.5-.394.747.836,1.07.712,1.311c-.144.274-.621.442-.77.7s-1.6-.206-1.761.052-2.169-.75-2.339-.5,1.958,2.085,1.781,2.321-2.762-1.467-2.942-1.244-.038.591-.229.808.2.857,0,1.058-.941-.3-1.146-.113,3.515,4.959,3.3,5.134-2.163-1.675-2.382-1.518-.265.7-.487.846-.406.545-.633.677-2.728-4.141-2.962-4.027,1.879,5.411,1.645,5.507-1.5-2.362-1.736-2.281-.159,1.366-.4,1.428c-.276.07-.843-1.138-1.121-1.089-.245.039-.121,3.942-.368,3.964-.275.026-.864-6.783-1.136-6.786-.247,0-.217-.124-.465-.144s-1.117,5.5-1.357,5.457-.189-1.99-.427-2.049c-.214-.055.419-2.742.205-2.815-.255-.087-1.343,2.324-1.58,2.22s-.52-.14-.742-.257c-.105-.057-.032-.4.071-.779-.052.033-.108.062-.167.1.068-.084.142-.192.22-.307.134-.47.267-.948.151-1.026-.144-.095-.855.651-1.365,1.1.292.174.575.339.7.4-1.049.6-2.626,1.4-2.555,1.578.111.276,2.49-.37,2.611-.094s-3.843,2.432-3.711,2.7,1.254.157,1.385.417,3.682-1.252,3.826-.994-.116.714.033.97,1.451-.25,1.612,0-1.66,1.766-1.5,2.013c.152.218-1.572,1.807-1.421,2.024s3.576-1.987,3.737-1.771-2.173,2.4-2.006,2.606,1.486-.514,1.662-.312.071.658.248.857-.7,1.438-.51,1.632,1.675-.867,1.867-.68-.121.916.076,1.1-.84,1.8-.638,1.98,4.292-4.2,4.5-4.022-3.833,5.6-3.621,5.762,4.411-4.869,4.628-4.709-2.869,4.877-2.646,5.031,2.992-3.419,3.217-3.271-.033.97.194,1.116,1.5-1.548,1.731-1.409-1.4,3.482-1.158,3.607,2.073-2.811,2.311-2.686-1.809,4.843-1.569,4.959,1.256-1.333,1.506-1.223.689-.21.936-.1.793-.545,1.053-.448.275.8.53.885.969-1.232,1.227-1.147.754-.783,1.016-.708.636-.527.9-.459c.053.017.068.171.064.417.764-.941,3.373-3.418,3.232-3.6-.177-.225-4.212,2.481-4.378,2.248s1.613-1.777,1.464-2.016-3.884,1.53-4.02,1.283,4.912-3.164,4.792-3.415c-.132-.276-2.226.4-2.344.119s-3.129.424-3.225.137,3.573-1.77,3.495-2.059.939-.751.881-1.045-1.62-.238-1.666-.531c-.038-.267,1.022-.622.995-.891s-2.132-.354-2.147-.629-.861-.565-.861-.838-1.181-.667-1.168-.94,2.466-.429,2.491-.7-2.1-.859-2.064-1.13,1.5-.379,1.552-.653.936-.381,1-.651,3.505.416,3.578.145-2.417-1.222-2.329-1.493.934-.2,1.035-.467-1.974-1.379-1.863-1.64-1.377-1.307-1.256-1.566,5.089,1.909,5.221,1.652.187-.422.328-.676-3.4-2.678-3.243-2.924c.136-.219,4.121,2.091,4.267,1.87s-3.076-2.736-2.914-2.951,2.084.906,2.248.694.856.076,1.024-.134-3.671-3.865-3.492-4.067,2.45,1.415,2.639,1.221c.162-.18,2.256,1.53,2.426,1.356s-2.908-3.643-2.728-3.813c.164-.157.638-.075.807-.231.229-.209.5-.466.734-.669a10.207,10.207,0,0,1,.59-2.551" transform="translate(-2595.857 -1013.514)" fill="#fff"/>
        <path id="Path_494" data-name="Path 494" d="M2997.1,1149.777c-.005,0-.014.014-.031.029a.048.048,0,0,0,.031-.029" transform="translate(-2933.187 -1115.822)" fill="#fff"/>
        <path id="Path_495" data-name="Path 495" d="M2987.788,1151c.021-.01.7-.852.844-1.03a6.069,6.069,0,0,1-1.538.08c.313.546.588,1,.694.951" transform="translate(-2924.753 -1115.985)" fill="#fff"/>
        <path id="Path_496" data-name="Path 496" d="M2973.218,1158.247c.275.152.53.294.7.411,0-.361-.018-.8-.037-1.248-.338-.057-.7-.121-1.041-.174.115.255.243.631.375,1.011" transform="translate(-2912.699 -1122.137)" fill="#fff"/>
        <g id="Group_847" data-name="Group 847" transform="translate(24.242 15.747)">
          <path id="Path_497" data-name="Path 497" d="M2813.017,1054.017c-.186.118.2,2.238.008,2.364.1.066.7-.385,1.3-.839-.649-.869-1.2-1.588-1.306-1.525" transform="translate(-2801.726 -1050.651)" fill="#fff"/>
          <path id="Path_498" data-name="Path 498" d="M2777.322,1053.174c.018-.049-.075-.137-.24-.249,0,.527-.021.889-.1.9-.14.016-.366-.648-.6-1.308-.6-.331-1.312-.7-1.619-.927.068-.022.115-.111.151-.228a10.854,10.854,0,0,1,1.092.143c-.086-.19-.164-.31-.225-.314-.08,0-.158-.087-.228-.207.059.013-1.02-.187-.966-.173.517-.019.938.008.851-.056-.051-.1-.071-.133-.125-.241a3.052,3.052,0,0,1,.039-.551c.031-.181.9-.214,1.632-.272,0,.563.037,1.293.064,1.988.74.119,1.363.207,1.394.1.081-.266-1.28-.931-1.212-1.2.028-.1.468-.109.976-.109-.157-.281-.327-.586-.485-.862.158-.035.258-.079.265-.141.05-.309-.17-.71-.134-1.023s-1.75-.833-1.723-1.143,1.968-.5,1.985-.813c.01-.3-2.116-.535-2.107-.831-.1-.253,1.62-1.138,1.5-1.388s-2.8.8-2.927.555,2.1-1.8,1.953-2.035-2.368.862-2.524.637.8-1.193.631-1.415-.761-.087-.936-.3.87-1.507.68-1.72c-.157-.174-1.4.676-1.572.508-.2-.2.156-.99-.056-1.181-.236-.216-.384-.562-.626-.759s.109-1.265-.143-1.447-.477-.569-.741-.732-1.471,1.143-1.737.99-.042-1.313-.316-1.449c-.244-.124-.3-.822-.561-.931-.28-.118-.714-.1-1-.205-.26-.1-1.2,1.726-1.458,1.646s-.112-1.666-.38-1.735c-.187-.046-.626,1.022-.967,1.638a2.829,2.829,0,0,0-.55.032c-.1-.415-.165-1.022-.347-1.048s-.435.7-.666,1.214l-.521.092c-.146-.663-.234-1.948-.441-1.957-.276-.016-.59,1.45-.867,1.45-.2,0-.379-.163-.566-.258.148-.26.739-.636.693-.844-.031-.121-.419.365-.781.809-.02-.007.061.153.041.149-.025.128-.091-.033-.307.136-.036.071-.255.37-.286.432a.963.963,0,0,1-.08-.079c-.026,0-.046-.02-.052-.062.052-.041.1-.084.157-.126.119-.234.236-.473.38-.477a.811.811,0,0,1,.082.007.367.367,0,0,0,0-.04c-.02-.072-.219-.165-.5-.267.153-.76.382-1.7.216-1.669-.286.053-.989-1.657-1.275-1.6a11.429,11.429,0,0,0,.186,2.979,9.384,9.384,0,0,1-1.042-.363c.287.3.766.982,1.137,1.436.024.4.02.667-.05.685-.28.073-1.017-1.615-1.3-1.527s-1.381-2.166-1.667-2.062-.1,1.574-.379,1.683c-.249.1-.091,1.183-.338,1.295s-1.415-1.687-1.665-1.566-1.22-.995-1.462-.867a10.674,10.674,0,0,0,.956,2.467c-.31.277-.651.593-.827.729.179.238.363.49.553.742.1-.18.34-.509.567-.818.122.273.244.547.355.808a3.26,3.26,0,0,0-.038.558c-.086.089-.176.184-.27.279.2.267.651.84.55.716-.2.472-.363.875-.272.951.071.05.272-.062.53-.246a.414.414,0,0,1-.121.321c-.242.191-.81-.165-1.045.03-.073.064-.4-.18-.825-.533.371-.376.8-.834,1.184-1.238-.2-.263-.407-.543-.615-.827-.324.57-.687,1.2-.977,1.714-.881-.757-1.92-1.714-2.057-1.592-.2.168-.106.722-.3.9-.227.212.828,1.79.611,2s-.474.364-.683.582-.434.394-.63.615-1.818-.767-2.007-.544,2.331,2.639,2.149,2.869-2.293-1.034-2.462-.8,2.412,2.345,2.253,2.585-.218.411-.369.65-3.343-1.389-3.482-1.147,1.163,1.271,1.032,1.517-3.859-1.383-3.98-1.134c-.133.281,3.727,2.518,3.609,2.8s-4.207-.988-4.312-.7,4.284,2.163,4.2,2.452-4.809-.775-4.976-.526a2.6,2.6,0,0,0-.338.985c-.066.287,5.733,1.761,5.68,2.046s-2.438.14-2.478.431-1.093.475-1.118.762-2.5.533-2.513.821,1.373.693,1.378.982,2.935.438,2.952.718-2.291.791-2.258,1.071.419.552.467.832,1.7.215,1.757.487-1.64,1.01-1.565,1.276,2.142-.109,2.238.152-3.051,1.795-2.948,2.051,3.679-1,3.795-.756c.109.223.775.063.889.279s-.291.63-.16.843-1.653,1.614-1.513,1.821,2.074-.893,2.221-.692,1.282-.516,1.443-.324.162.342.333.526c.153.167-2.508,2.96-2.348,3.123.2.207,1.948-1.212,2.16-1.018s.515.163.741.343-2.13,3.807-1.9,3.967.707.251.945.4,1.948-2.005,2.192-1.862.28.7.532.827,1.317-1.58,1.575-1.469c.229.1.773-.838,1.007-.751s-1.447,5.721-1.209,5.8c.217.07,1.373-2.036,1.593-1.976.288-.016.908,1.654,1.2,1.629s.115-4.45.4-4.482,1.208,4.515,1.494,4.473.663-.008.94-.059.511-.785.789-.843-.343-4.19-.067-4.259,1.643,4.126,1.916,4.05.027-2.142.3-2.22.232-1.154.5-1.242,1.413,2.278,1.681,2.182-1.058-4.363-.791-4.467c.094-.04.26.1.443.3-.158-.047-.263-.064-.281-.032-.1.167,1.282,2.534,1.173,2.7a5.424,5.424,0,0,0-.121-1.985.1.1,0,0,0,.047-.005c.26-.111,1.238,1.4,1.495,1.28s.282-.363.352-.586c0,0,.072-.177.093-.223.056.031.186.086.28.139,0,0,.226-.008.4-.018.5.4,1.22,1.121,1.383,1.016s-.368-1.261-.739-2.164c.653.343,1.223.629,1.282.518s-.7-.637-1.531-1.19c-.074-.227-.1-.385-.051-.419.232-.159.545-.178.772-.347s2.655,2.477,2.876,2.3a11.118,11.118,0,0,0-1.483-2.6c.383-.132.986-.225,1.046-.436.049-.177-1.127-.671-1.991-1.089-.219-.373-.337-.635-.283-.677.2-.164.089-.576.223-.788-.455.1-1.408.17-2.059.259-.535-.208-1.031-.407-1.012-.551a15.934,15.934,0,0,1,3.38-.076,1.367,1.367,0,0,0-.042.241c-.005.027-.044.057-.1.08.548.229,2.677,2.19,2.857,2.018.2-.191-1.292-2.09-1.094-2.29s1.691.887,1.88.686c.212-.226.524-.375.724-.6.184-.213-2.494-2.78-2.315-2.994s4.149,2.633,4.322,2.413-3.324-3.146-3.161-3.374.022-.543.175-.77,2.705,1.184,2.852.945-.315-.815-.173-1.053,1.218.08,1.353-.161-2.411-1.861-2.283-2.107,4.255,1.515,4.377,1.268.217-.563.328-.815.867-.3.973-.557-1.914-1.363-1.817-1.627Zm-22.261-11.275c-.217-.17,1.5-2.748,1.666-3.4.228.294-.128,1.327.138,1.563a.326.326,0,0,0,.253.044c-.956.93-1.935,1.885-2.057,1.791Zm1.912.336c-.129.079-.216.111-.245.083-.152-.131.846-1.582,1.532-2.679a.343.343,0,0,1,.265.039c.157.144-.833,1.493-1.552,2.556Zm4.424-2.451a.01.01,0,0,1-.007-.005c-.1-.108-.415-.012-.744.1,0,0-.012,0-.012-.008-.042-.1.533-.448,1.292-.868-.068.233-.189.478-.123.674-.146.038-.28.079-.405.105Zm-.069,2.589a.627.627,0,0,1-.05-.327c.348-.048.611-.053.665.049.159.294-.32.942-.317,1.322a.423.423,0,0,1-.317-.09.092.092,0,0,0-.077-.014c.017-.306.205-.734.1-.939Zm-.2,3.656c-.055-.08.165-.367.492-.745q.2.259.409.507c-.455.194-.831.329-.9.238Zm5.893,21.233c-.088.209-.491.374-.662.565a.882.882,0,0,1-.292.015c.006-.285-.845-1.509-.8-1.754.805.478,1.811,1.038,1.753,1.174Zm-1.994-13.744c.042.119-.24.351-.574.6-.369.024-.65.018-.68-.078-.1-.291.541-.759.431-1.055-.077-.2,1.187-.93,1.848-1.428.486,0,.961-.011,1.017.131.116.3-2.146,1.531-2.042,1.834Zm3.742,6.779c.01.267-.136.654-.141.919,0,.009,0,.016,0,.031a5.939,5.939,0,0,1-1.981-.565c.016-.281.514-.48.511-.767s-1.625-.411-1.642-.7a6.14,6.14,0,0,1,1.948-.517c.352.225,1.77.4,1.787.637.023.274-.493.692-.482.964Zm1.646-9.292c-.281-.154-.537-.625-.817-.8-.024-.019-.043-.038-.071-.064.448-.558.922-1.183,1.074-1.115.284.12.238.783.514.879.044.016.072.074.092.156-.4.579-.709.99-.793.942Zm2.363-.059c-.095-.032-.014-.474.125-1.053a1.53,1.53,0,0,0,.434.219c-.25.513-.462.87-.558.834" transform="translate(-2740.104 -1032.219)" fill="#fff"/>
        </g>
        <g id="Group_848" data-name="Group 848" transform="translate(36.917)">
          <path id="Path_499" data-name="Path 499" d="M2823.862,930.495c.084.215-.921.717-.911.956s.52.467.47.711c-.03.206-.23.395-.31.617a4.662,4.662,0,0,1-.24.652c-.086.169-.493.456-.6.628.224.089.585.513.827.594.215.07.638-.49.861-.425s.243.954.472,1.01c.192.042.553-.628.75-.586.249.055.508.024.747.068s.455.274.684.309.438.428.662.456.469-.5.66-.486c.227.015.431.758.639.759.181.007.409-.553.577-.565.016-.228-.8-.684-.743-.9s1.431,0,1.516-.206.326-.192.442-.368-.326-.709-.187-.855a10.752,10.752,0,0,1,1.344-.559c-.23-.122-1.053-.609-1.287-.724s-.894.68-1.134.57c-.212-.1-.339-.356-.559-.444s-.053-1.121-.272-1.2-.412-.288-.638-.37-.879,1.1-1.1,1.033-.192-.945-.419-1.017-.632.508-.863.448-.208-1.12-.437-1.175-.591.41-.825.362-.346-.768-.576-.811c-.212-.04-.509.384-.719.354-.086-.016.088.078,0,.065.192.176-.051.628.086.819s1.007.074,1.085.283" transform="translate(-2822.273 -928.971)" fill="#fff"/>
        </g>
      </g>
    </g>
  </g>
</svg>
