<svg xmlns="http://www.w3.org/2000/svg" width="207" height="60" viewBox="0 0 207 60">
  <g id="Group_843" data-name="Group 843" transform="translate(-4093.482 -905.567)">
    <g id="Group_836" data-name="Group 836" transform="translate(4167.099 925.567)">
      <path id="Path_436" data-name="Path 436" d="M4598.027,1044.326a13,13,0,0,1,4.265.5,1.253,1.253,0,0,1,.559.5,2.54,2.54,0,0,1,.268,1.364,1.7,1.7,0,0,1-.341,1.268l-.207.117q-.279,0-.921-.746a4.6,4.6,0,0,0-3.58-1.7,3.958,3.958,0,0,0-3.332,1.673,8.54,8.54,0,0,0,.062,8.971,4.067,4.067,0,0,0,3.425,1.758,2.814,2.814,0,0,0,2-.6,3.324,3.324,0,0,0,.621-2.365,2.248,2.248,0,0,0-.311-1.193,3.043,3.043,0,0,0-.408-.464c-.218-.216-.326-.353-.326-.41q0-.458,2.039-.458a6.6,6.6,0,0,1,1.728.143.542.542,0,0,1,.424.539,1.847,1.847,0,0,1-.269.484,2.784,2.784,0,0,0-.311.549q-.041.139-.17,1.828a5.7,5.7,0,0,1-.363,2.029,2.232,2.232,0,0,1-1.153.629,12.94,12.94,0,0,1-3.468.746h-.413a7.238,7.238,0,0,1-2.732-.517,6.256,6.256,0,0,1-2.184-1.443,6.813,6.813,0,0,1-1.449-2.387,8.452,8.452,0,0,1-.548-2.994v-.458a8.03,8.03,0,0,1,.58-2.973,6.492,6.492,0,0,1,3.621-3.8A7.477,7.477,0,0,1,4598.027,1044.326Z" transform="translate(-4590.928 -1043.516)" fill="#fff"/>
      <path id="Path_437" data-name="Path 437" d="M4691.868,1054.249q0-.224.471-.575a1.791,1.791,0,0,0,.637-1.1,49.232,49.232,0,0,0,.166-5.706q0-4.954-.109-5.615a1.344,1.344,0,0,0-.533-.948q-.684-.458-.684-.564v-.128c0-.12.1-.227.3-.319a6.184,6.184,0,0,1,2.484-.416h.207q.528,0,.611.735.01.1.009,1.609v2.291l-.009.437v.672l-.012.437v3.377q0,3.154.1,3.906a1.774,1.774,0,0,0,.461,1.092c.027.021.172.114.434.277s.393.33.393.5q0,.373-1.283.373l-.424.021h-.424l-1.7.032h-.218Q4691.869,1054.632,4691.868,1054.249Z" transform="translate(-4676.831 -1038.874)" fill="#fff"/>
      <path id="Path_438" data-name="Path 438" d="M4745.466,1079.719v.533a5.925,5.925,0,0,1-.331,1.843,4.567,4.567,0,0,1-2.763,2.919,4.636,4.636,0,0,1-1.738.362h-.342a4.418,4.418,0,0,1-3.3-1.364,4.586,4.586,0,0,1-.972-1.63,6.166,6.166,0,0,1-.374-2.152v-.181a6.6,6.6,0,0,1,.352-2.089,4.445,4.445,0,0,1,2.681-2.855,4.618,4.618,0,0,1,1.729-.362h.518a4.147,4.147,0,0,1,1.811.426,4.51,4.51,0,0,1,2.349,2.578A5.718,5.718,0,0,1,4745.466,1079.719Zm-7.522-.043v.394a6,6,0,0,0,.681,3,2.6,2.6,0,0,0,.818.9,1.8,1.8,0,0,0,1,.33h.206a1.991,1.991,0,0,0,1.631-.943,4.494,4.494,0,0,0,.688-2.679v-.756a5.783,5.783,0,0,0-.688-2.915,2.01,2.01,0,0,0-1.745-1.2h-.32a1.9,1.9,0,0,0-1.613,1.055A5.224,5.224,0,0,0,4737.943,1079.676Z" transform="translate(-4714.15 -1069.416)" fill="#fff"/>
      <path id="Path_439" data-name="Path 439" d="M4812.268,1054.637q0-.117.119-1.076a19.089,19.089,0,0,0,.12-2.323v-3.069l.01-.522v-2.131l-.01-.522v-.522l-.011-.256c-.007-.178-.01-.472-.01-.884q0-1.267-.657-1.588t-.657-.618q0-.224.3-.373a5.347,5.347,0,0,1,2.287-.373q.621,0,.8.725a20.608,20.608,0,0,1,.1,2.887q0,2.473.382,2.472a3.876,3.876,0,0,0,1.056-.341,4.4,4.4,0,0,1,1.708-.341,3.536,3.536,0,0,1,2.831,1.343,5.285,5.285,0,0,1,1.123,3.506v.277a5.789,5.789,0,0,1-.362,2.024,4.566,4.566,0,0,1-2.41,2.7,4.48,4.48,0,0,1-1.874.415h-.248a5.755,5.755,0,0,1-1.232-.2,6.891,6.891,0,0,0-1.645-.2l-.849.075Q4812.267,1055.713,4812.268,1054.637Zm4.823-7.81h-.3a2.05,2.05,0,0,0-1.071.315,2.348,2.348,0,0,0-.808.772,6.784,6.784,0,0,0-.284,2.621v1.694a3.708,3.708,0,0,0,.465,2.179,1.912,1.912,0,0,0,1.6.6h.217a2.022,2.022,0,0,0,1.77-1.07,4.482,4.482,0,0,0,.673-2.435l.021-.245v-.756a4.841,4.841,0,0,0-.663-2.621A1.909,1.909,0,0,0,4817.09,1046.827Z" transform="translate(-4778.46 -1040.157)" fill="#fff"/>
      <path id="Path_440" data-name="Path 440" d="M4895.132,1076.85q0-.788,1.216-1.411a5.447,5.447,0,0,1,2.52-.624h.083a5.292,5.292,0,0,1,1.987.309,2.9,2.9,0,0,1,1.729,2.621q.021.2.021,2.68a16.8,16.8,0,0,0,.129,2.9,1.009,1.009,0,0,0,.7.629q.574.2.575.383a.637.637,0,0,1-.372.586,3.061,3.061,0,0,1-1.464.4,1.49,1.49,0,0,1-1.073-.341,5.7,5.7,0,0,0-.672-.607q-.041,0-1.169.539a4.728,4.728,0,0,1-1.977.538,2.7,2.7,0,0,1-2-.725,2.394,2.394,0,0,1-.724-1.758v-.266a2.56,2.56,0,0,1,.931-1.95,7.171,7.171,0,0,1,3.353-1.311,3.867,3.867,0,0,0,1.108-.319,1.359,1.359,0,0,0,.455-1.215,1.936,1.936,0,0,0-.476-1.406,1.692,1.692,0,0,0-1.273-.49,2.02,2.02,0,0,0-1.535.954q-.74.953-1.352.953Q4895.133,1077.926,4895.132,1076.85Zm5.031,3.441h-.177a3.893,3.893,0,0,0-2.262.624,1.836,1.836,0,0,0-.906,1.55v.213a1.569,1.569,0,0,0,.328.974,1,1,0,0,0,.842.432l.125.021h.309a2.112,2.112,0,0,0,1.76-.906,2.941,2.941,0,0,0,.3-1.62v-.192l.01-.256v-.255Q4900.493,1080.291,4900.163,1080.291Z" transform="translate(-4849.536 -1069.477)" fill="#fff"/>
      <path id="Path_441" data-name="Path 441" d="M4968.763,1054.249c0-.149.156-.341.469-.575a1.8,1.8,0,0,0,.637-1.1,49.232,49.232,0,0,0,.166-5.706q0-4.954-.109-5.615a1.337,1.337,0,0,0-.532-.948q-.684-.458-.683-.564v-.128q0-.181.3-.319a6.177,6.177,0,0,1,2.484-.416h.206q.528,0,.61.735.012.1.011,1.609v2.291l-.011.437v.672l-.009.437v3.377q0,3.154.1,3.906a1.776,1.776,0,0,0,.459,1.092c.027.021.173.114.436.277s.393.33.393.5c0,.248-.427.373-1.283.373l-.423.021h-.425l-1.7.032h-.217C4969.054,1054.632,4968.763,1054.5,4968.763,1054.249Z" transform="translate(-4912.6 -1038.874)" fill="#fff"/>
      <path id="Path_442" data-name="Path 442" d="M5045,1045.712a.463.463,0,0,1,.445-.484,20.094,20.094,0,0,1,2.422-.08q1.978,0,1.976.469a1.18,1.18,0,0,1-.207.517,1.526,1.526,0,0,0-.207.8,6.743,6.743,0,0,0,.373,1.646q1.542,4.934,2.168,6.531a7.008,7.008,0,0,0,.72,1.6q.195,0,.662-1.14a56.552,56.552,0,0,0,2.276-6.648,8.2,8.2,0,0,0,.341-1.7,1.605,1.605,0,0,0-.134-.7,6,6,0,0,0-.311-.548.919.919,0,0,1-.176-.394q0-.458,1.7-.458h.714q1.6,0,1.6.437,0,.372-.663.81a2.54,2.54,0,0,0-.875.842q-.211.4-2.043,5.385t-2.365,6.217q-.532,1.236-1.242,1.236t-1.288-1.268q-.021-.032-2.089-5.674t-2.309-6.04a1.913,1.913,0,0,0-.621-.645Q5045,1045.871,5045,1045.712Z" transform="translate(-4977.562 -1044.188)" fill="#fff"/>
      <path id="Path_443" data-name="Path 443" d="M5148.595,1049.236q-.537-.267-.538-.5a.424.424,0,0,1,.217-.373,4.682,4.682,0,0,1,2.391-.469h.3a.563.563,0,0,1,.631.533q.041.287.041,3.873a28.838,28.838,0,0,0,.146,4.113,1.277,1.277,0,0,0,.693.81q.549.281.548.57,0,.4-2.566.405l-.31.01h-1.263c-.5,0-.755-.128-.755-.384q0-.32.46-.618a1.711,1.711,0,0,0,.637-.66,5.206,5.206,0,0,0,.2-1.843l.011-.341v-.33l.01-.5v-.331l.011-.33a13.906,13.906,0,0,0-.161-2.947A1.321,1.321,0,0,0,5148.595,1049.236Zm3.291-4.752a1.23,1.23,0,0,1-.388.869,1.107,1.107,0,0,1-.771.4.589.589,0,0,1-.134.021l-.228.021a1.384,1.384,0,0,1-.927-.351,1.142,1.142,0,0,1-.409-.906v-.192a1.191,1.191,0,0,1,.43-.932,1.452,1.452,0,0,1,.988-.379h.052l.352.042a.968.968,0,0,1,.667.357,1.043,1.043,0,0,1,.347.719l.021.1Z" transform="translate(-5065.309 -1042.417)" fill="#fff"/>
      <path id="Path_444" data-name="Path 444" d="M5192.283,1054.249q0-.224.471-.575a1.8,1.8,0,0,0,.636-1.1,49.171,49.171,0,0,0,.166-5.706q0-4.954-.109-5.615a1.343,1.343,0,0,0-.533-.948c-.457-.306-.684-.493-.684-.564v-.128q0-.181.3-.319a6.179,6.179,0,0,1,2.484-.416h.207q.528,0,.609.735.012.1.012,1.609v2.291l-.012.437v.672l-.009.437v3.377q0,3.154.1,3.906a1.777,1.777,0,0,0,.461,1.092c.027.021.172.114.434.277s.394.33.394.5q0,.373-1.283.373l-.425.021h-.424l-1.7.032h-.218C5192.575,1054.632,5192.283,1054.5,5192.283,1054.249Z" transform="translate(-5102.921 -1038.874)" fill="#fff"/>
      <path id="Path_445" data-name="Path 445" d="M5236.11,1054.249q0-.224.47-.575a1.794,1.794,0,0,0,.638-1.1,49.293,49.293,0,0,0,.165-5.706q0-4.954-.108-5.615a1.341,1.341,0,0,0-.533-.948q-.683-.458-.684-.564v-.128q0-.181.3-.319a6.189,6.189,0,0,1,2.485-.416h.206c.352,0,.556.245.611.735q.011.1.01,1.609v2.291l-.01.437v.672l-.011.437v3.377q0,3.154.1,3.906a1.768,1.768,0,0,0,.459,1.092c.028.021.173.114.436.277s.393.33.393.5q0,.373-1.283.373l-.423.021h-.425l-1.7.032h-.218Q5236.11,1054.632,5236.11,1054.249Z" transform="translate(-5140.239 -1038.874)" fill="#fff"/>
      <path id="Path_446" data-name="Path 446" d="M5280.44,1076.85q0-.788,1.217-1.411a5.445,5.445,0,0,1,2.519-.624h.083a5.291,5.291,0,0,1,1.987.309,2.9,2.9,0,0,1,1.728,2.621q.019.2.02,2.68a16.859,16.859,0,0,0,.129,2.9,1.013,1.013,0,0,0,.7.629q.574.2.574.383a.636.636,0,0,1-.374.586,3.054,3.054,0,0,1-1.464.4,1.49,1.49,0,0,1-1.072-.341,5.726,5.726,0,0,0-.672-.607q-.041,0-1.169.539a4.728,4.728,0,0,1-1.977.538,2.7,2.7,0,0,1-2-.725,2.393,2.393,0,0,1-.724-1.758v-.266a2.56,2.56,0,0,1,.931-1.95,7.176,7.176,0,0,1,3.353-1.311,3.884,3.884,0,0,0,1.107-.319,1.359,1.359,0,0,0,.455-1.215,1.937,1.937,0,0,0-.476-1.406,1.691,1.691,0,0,0-1.273-.49,2.023,2.023,0,0,0-1.537.954q-.74.953-1.35.953Q5280.441,1077.926,5280.44,1076.85Zm5.029,3.441h-.175a3.888,3.888,0,0,0-2.261.624,1.834,1.834,0,0,0-.906,1.55v.213a1.573,1.573,0,0,0,.326.974,1.009,1.009,0,0,0,.844.432l.124.021h.311a2.108,2.108,0,0,0,1.759-.906,2.935,2.935,0,0,0,.3-1.62v-.192l.01-.256v-.255Q5285.8,1080.291,5285.469,1080.291Z" transform="translate(-5177.617 -1069.477)" fill="#fff"/>
      <path id="Path_447" data-name="Path 447" d="M5363.591,1075.5q0,.607-.744.772t-.746.634l.031.224.041.255.052.277a7.28,7.28,0,0,1,.052.991,2.88,2.88,0,0,1-.352,1.321,4.2,4.2,0,0,1-3.788,2.067,5.108,5.108,0,0,0-1.148.16.736.736,0,0,0-.539.714q0,.5.8.7.114.032,2.06.2a7.882,7.882,0,0,1,2.6.5,2.2,2.2,0,0,1,1.376,2.035,3.368,3.368,0,0,1-1.516,2.845,6.613,6.613,0,0,1-3.968,1.1,5.558,5.558,0,0,1-2.878-.682,2.533,2.533,0,0,1-.853-.8,1.842,1.842,0,0,1-.326-1.028,2.312,2.312,0,0,1,.548-1.577,9.258,9.258,0,0,0,.879-1.066,2.7,2.7,0,0,0-.383-.565,1.7,1.7,0,0,1-.383-1.044,1.949,1.949,0,0,1,.5-1.177,3.569,3.569,0,0,0,.5-.709,8.557,8.557,0,0,0-.621-1.092,3.73,3.73,0,0,1-.621-1.933,3.4,3.4,0,0,1,.383-1.63q1.085-2.035,4.046-2.035h.3l1.438.1.529.021q.268.011.548.011l1.1-.074Q5363.591,1075.011,5363.591,1075.5Zm-6.364,9.589a1.653,1.653,0,0,0-1.231.522,1.8,1.8,0,0,0-.507,1.31v.085a1.689,1.689,0,0,0,.694,1.428,3.073,3.073,0,0,0,1.893.522h.269a3.7,3.7,0,0,0,2.329-.682,1.991,1.991,0,0,0,.879-1.6l-.01-.085a1.162,1.162,0,0,0-.486-.975,1.847,1.847,0,0,0-1.148-.368,5.415,5.415,0,0,0-.6-.053l-.353-.032h-.176l-.621-.042-.424-.032Zm.92-9.472h-.268a1.417,1.417,0,0,0-1.067.65,2.361,2.361,0,0,0-.518,1.513l-.021.17-.01.266v.277l.01.085a3.113,3.113,0,0,0,.466,1.79,1.568,1.568,0,0,0,1.386.682h.073a1.571,1.571,0,0,0,1.221-.575,2.22,2.22,0,0,0,.508-1.524v-.416a3.631,3.631,0,0,1-.031-.415,2.9,2.9,0,0,0-.544-1.758A1.515,1.515,0,0,0,5358.147,1075.619Z" transform="translate(-5240.442 -1069.599)" fill="#fff"/>
      <path id="Path_448" data-name="Path 448" d="M5431.917,1081.122a2.658,2.658,0,0,0,.889,2.035,3.2,3.2,0,0,0,2.257.82,2.881,2.881,0,0,0,1-.165c.3-.111.628-.243.983-.4a2.512,2.512,0,0,1,.668-.234c.275,0,.415.153.415.458q0,.618-1.533,1.321a5.021,5.021,0,0,1-2.131.458h-.227a4.513,4.513,0,0,1-3.23-1.215,4.423,4.423,0,0,1-1.075-1.688,6.253,6.253,0,0,1-.384-2.211l.011-.245v-.245a4.776,4.776,0,0,1,.455-2.014,5.69,5.69,0,0,1,1.107-1.63,4.456,4.456,0,0,1,3.219-1.353,3.648,3.648,0,0,1,3.746,2.259,3.5,3.5,0,0,1,.291,1.311v.213a.966.966,0,0,1-.59.985,11.314,11.314,0,0,1-2.783.411c-1.464.107-2.256.178-2.381.213A.857.857,0,0,0,5431.917,1081.122Zm4.306-2.823v-.33a2.12,2.12,0,0,0-.549-1.422,1.713,1.713,0,0,0-1.346-.634h-.2a1.72,1.72,0,0,1-.2.021,1.777,1.777,0,0,0-1.371.852,2.959,2.959,0,0,0-.647,1.822v.138c0,.227.13.341.393.341.1.021.159.032.166.032l.238.011h.063l.073-.011,2-.117.373-.042Q5436.222,1078.96,5436.223,1078.3Z" transform="translate(-5304.991 -1069.477)" fill="#fff"/>
    </g>
    <g id="Group_842" data-name="Group 842" transform="translate(4093.483 905.567)">
      <g id="Group_837" data-name="Group 837" transform="translate(13.823)">
        <path id="Path_449" data-name="Path 449" d="M4300.179,923.352c-.091.189-.468.533-.591.745a.389.389,0,0,0,.278.122c.207-.024.355-.414.313-.867" transform="translate(-4282.774 -920.766)" fill="#fff"/>
        <path id="Path_450" data-name="Path 450" d="M4188.648,912.945a2.868,2.868,0,0,0,.043.382.307.307,0,0,1-.061.251c-.179.159-.516.126-.691.294s-.165.5-.334.675c-.159.155.243.345.092.508.023.092-1.333-.28-1.3-.192.083.234-.106.732.038.953s1.444-.47,1.633-.27c.169.183-.573,1.341-.366,1.51.187.149,1.1-.659,1.316-.52s.328.355.563.482c.212.113.54-.105.77-.007s.338.378.58.462-.045,1.9.21,1.972.61.049.871.107c.237.05.887-2.074,1.13-2.038s.414.255.664.279.379,1.528.632,1.542.542.395.8.392c.233,0,.423-1.584.66-1.6s.391-.479.625-.5.485.4.719.361a.185.185,0,0,1,.112.02.025.025,0,0,0,0,.008c.093.22-.52.69-.437.917.045.135.76-.284,1.2-.474a1.637,1.637,0,0,1,.41.248c.476.874,1.017,1.929,1.168,1.874.252-.1.424-.579.673-.683.228-.1-.35-2.038-.131-2.14s1.2,1.351,1.424,1.236.412-.346.626-.46-.831-2.443-.621-2.565,1.819,2.031,2.024,1.9-1.133-2.573-.932-2.711.2-.444.392-.584.567.042.757-.109,2.4,2.093,2.57,1.94-1.34-2.2-1.174-2.357c.192-.18,1.575.818,1.751.63.158-.167-.353-.954-.209-1.123.164-.2.886.016,1.022-.177.125-.169.479-1.223.588-1.394a.14.14,0,0,0-.046,0c.1-.22-.028-.566.042-.784a3.643,3.643,0,0,0,.055-.714c.028-.224-.348-.425-.371-.632s.456-.5.389-.691c-.089-.237-.387-.417-.545-.632-.131-.173-.39-.173-.559-.33-.24-.038-.438-.07-.684-.1-.211-.029-.4-.264-.617-.288a.813.813,0,0,1-.225-.06,1.543,1.543,0,0,0,.527-.212c-.257-.011-2.077-1.188-2.33-1.194a7.3,7.3,0,0,0-.564,2.219c.012-.024.073,0,.079-.017.021-.119.31-.241.686-.361-.041.178-.079.354-.106.487a2.648,2.648,0,0,0-.028.808c-.623.055-1.161.088-1.166-.026a.3.3,0,0,1,.048-.149c-.146-.108-.285-.25-.438-.246-.255.012-.465.044-.711.061s-.772-3.21-1.023-3.188-.086,3.828-.332,3.859-.7-1.637-.947-1.6-.705-1.115-.947-1.072-.627-.421-.872-.372.31,3.555.07,3.616-1.17-2.606-1.406-2.542-.775-.778-1.012-.7.505,3.207.272,3.288-.3.482-.531.567-.75-.686-.975-.6-1.463-2.2-1.688-2.1,1,3.39.774,3.488-.8-.635-1.035-.582c-.045-.234-.1-.406-.176-.409-.159-.02-.355.373-.543.64-.239.064-1.37-1.446-1.577-1.319-.1.049-.005.432.1.834a1.273,1.273,0,0,1-.21.056c-.138.017-.207.475-.3.766a.3.3,0,0,0-.247-.026c-.179.12-1.06-.76-1.237-.639-.118.086.3.94.543,1.531l.058.322Zm14.888-.812c-.106-.126.543-.731,1.262-1.372a3.99,3.99,0,0,1,.39.345.636.636,0,0,1,.042.057c-.8.556-1.58,1.1-1.693.971Zm2.854,1.03c-.259-.125-.5-.451-.722-.585-.1-.062.059-.48.252-.944a1.038,1.038,0,0,1,.553.041c.218.122.147.854.4.965a1.042,1.042,0,0,0,.5-.029c-.44.308-.862.608-.98.553" transform="translate(-4186.382 -905.94)" fill="#fff"/>
      </g>
      <g id="Group_841" data-name="Group 841" transform="translate(0 2.249)">
        <path id="Path_451" data-name="Path 451" d="M4264.083,1264.539c.033.04.1.046.185.04.01-.144.02-.281.022-.4-.154.189-.239.319-.207.355" transform="translate(-4238.708 -1213.415)" fill="#fff"/>
        <path id="Path_452" data-name="Path 452" d="M4318.4,1280.573c-.034,0-.068.077-.107.2.116-.124.169-.2.107-.2" transform="translate(-4284.863 -1227.37)" fill="#fff"/>
        <g id="Group_838" data-name="Group 838" transform="translate(42.461 4.12)">
          <path id="Path_453" data-name="Path 453" d="M4387.536,952.227c-.038-.325-.069-.479-.209-.5-.074-.01-.156.062-.248.182.042-.327.125-.706-.012-.813-.232-.18-1.069.458-1.305.285s.078-1.118-.166-1.283-1.036.524-1.286.37c-.161-.1-.122-.63-.194-.923a.326.326,0,0,0,.063-.138c-.228-.135-.521-.3-.754-.432-.189-.107-.481-.046-.672-.148a2.991,2.991,0,0,0-.647.556c-.164.173-.095.509-.234.719a3.792,3.792,0,0,0-.314.629c-.1.237-.379.384-.433.637a4.469,4.469,0,0,1-.171.484.43.43,0,0,0-.232-.1c-.018.31-.394.946-.329,1.275.048.288.373.626.5.923a4.457,4.457,0,0,0,.322.581.158.158,0,0,0-.1.043.761.761,0,0,1,.085.256c-.574-.159-1.395-.488-1.49-.31-.124.241.316.9.212,1.164s.056.7-.021.973-.415.567-.467.856c-.05.257.474.659.439.928s2.188.677,2.177.95-3.194.475-3.192.757,2.251.49,2.271.78c.015.249-2.073.7-2.048.955s.4.519.443.782c.042.226,1.412-.333,1.458-.105.272-.031,0-1.223.272-1.245s.635.274.9.266.56,2.6.83,2.606c.295.005.658-1.724.949-1.7s.425,1.6.713,1.633.968-2.288,1.257-2.235.438.99.721,1.058c.251.057-.111,2.292.136,2.369s.411.152.657.24,1.222-1.829,1.46-1.731.4.409.637.523c.264.122-.4,1.965-.147,2.1.226.125,1.422-1.492,1.647-1.356s1.061-.611,1.276-.466-.14,1.154.068,1.314.551.181.753.352-1.046,1.927-.854,2.111c.162.148,1.836-1.295,2-1.133.19.193-.868,1.55-.688,1.749.159.173,1.861-.958,2.423-1.134.655-.315,1.852-.731,1.813-.916-.057-.262-.543-.455-.6-.71s-1.86-.07-1.928-.327.983-.811.907-1.063c-.085-.278-1.315-.174-1.405-.448-.087-.251-.4-.379-.49-.626s-.213-.437-.309-.678,2.09-1.456,1.982-1.7.352-.784.243-1.021-.473-.41-.6-.642-2.018.47-2.142.245-.229-.461-.36-.685-.936-.008-1.075-.233,1.2-1.4,1.053-1.619c-.053-.077-.208,0-.465.074a.558.558,0,0,1-.247.079c-.442.124-.9.206-.985.083a.48.48,0,0,0-.182-.137,2.369,2.369,0,0,0-.177-.339,12.558,12.558,0,0,0,1.4.3,1.29,1.29,0,0,0,.133-.034s.009,0,.009-.006c.117-.211-1.081-1.393-1.171-1.339-.131.161-.343.5-.554.766-.154-.252-.278-.489-.226-.581.112-.218,1.012-.29,1.073-.532-.169-.206-.593-.413-.763-.615s-.512-.246-.685-.442-.855.1-1.035-.092-.112-.605-.3-.789.138-.9-.054-1.082c-.168-.149-.88.593-1.046.443-.16-.047-.2-.447-.244-.825l-.022-.161Zm-2.871-.255a6.287,6.287,0,0,1,.973-.3,8.727,8.727,0,0,1,.917.157,1.329,1.329,0,0,1,.463.17c-.25.388-.517,1.042-.727,1.034-.3-.012-.5-.187-.792-.154s-.416.314-.7.391c-.19.054-.375-.068-.552-.059.176-.3.148-1.179.415-1.241Zm-2.972,2.573a2.558,2.558,0,0,1,.083-1,6.145,6.145,0,0,1,.482-.627.807.807,0,0,1,.428-.12c.068.379.209.865.085.976-.173.152.088.632-.066.811-.083.094-.59.008-1.012-.035Zm.064-2.9c.3-.065.6.055.849-.056a2.443,2.443,0,0,0,.642-.427,1.831,1.831,0,0,0,.222-.259c-.01.256.037.565-.111.681-.2.149-.664.092-.926.194-.238.09-.413.562-.71.605-.125.023-.377-.221-.614-.411a4,4,0,0,1,.648-.328Zm.173,4.855c-.238-.255-.872-.35-1.069-.6-.083-.109.093-.342.318-.588a1.146,1.146,0,0,0,.172.431c.21.26.961.183,1.217.445.01.01.016.025.027.035-.337.215-.6.346-.666.278Zm3.6,2.135c-.263-.1-.893.273-1.16.131-.238-.117-.572-.364-.808-.516-.214-.137-.274-.656-.484-.82-.083-.064.172-.539.449-1.039.316-.173.623-.336.733-.255a7.6,7.6,0,0,0,.661.4c.273.169.021,1.218.288,1.343.194.087.307.46.452.708-.05.044-.1.065-.13.05Zm4.9-.014c-.166.1-.454,0-.779-.167a7.471,7.471,0,0,0,.915-.505c.025-.016.067-.038.1-.056-.014.35-.072.63-.233.729" transform="translate(-4378.854 -948.824)" fill="#fff"/>
          <path id="Path_454" data-name="Path 454" d="M4487.2,1083.817a18.678,18.678,0,0,0-1.236-2.16,2.566,2.566,0,0,0-.39-.416h-.007c-.2.025-.31.015-.335-.03a.274.274,0,0,1,0-.162l0-.01-.011,0c-.27-.1-.539-.2-.542-.318s.281-.268.554-.408l.172-.083h0v-.007a2.3,2.3,0,0,1,.147-.237l0-.008-.009-.006a2.529,2.529,0,0,0-.5-.21c-.115-.04-.242-.084-.341-.126l0,0-.007,0c-.409.167-1.035.423-1.1.322s.37-.572.8-1.038c.229-.248.467-.5.649-.725l.008-.013-.012,0c-.178-.057-.266-.118-.273-.177s.128-.158.4-.289h0c.109-.038.147-.026.158-.007.042.041-.045.193-.25.443l-.006.011.013.007c.124.037.267.065.405.1.275.054.533.106.551.218s-.369.3-.738.471c-.393.177-.769.349-.754.49,0,.057.061.112.176.172h.009c.531-.218,1.126-.464,1.2-.358s-.128.392-.315.67l-.012.014v.015a.093.093,0,0,1,.034.058c0,.06-.057.128-.182.207l0,0v0a.217.217,0,0,0-.009.165c.058.1-.017.273-.1.443-.023.066-.057.133-.077.2v.013l.009,0c.132.047.254.095.359.137h.012a3.443,3.443,0,0,1,1.459-.017,21.18,21.18,0,0,1,.15,2.846l-.067-.19" transform="translate(-4468.028 -1058.545)" fill="#fff"/>
        </g>
        <path id="Path_455" data-name="Path 455" d="M4095.634,975.918c-.717.043-1.4.089-1.42.23-.011.1.35.436.779.819,0,.047.066.1.167.146a6.4,6.4,0,0,1,1.191,1.185,2.086,2.086,0,0,0-.209-.865c.532.15,1.042.3,1.042.443,0,.291-.881.548-.875.842s.628.524.646.811-.575.592-.553.88c.034.326-2.957.99-2.917,1.31.036.286,3.574.1,3.619.388s-2.519,1.02-2.466,1.3,1.508.3,1.572.583-1.59,1-1.521,1.277c.066.255.926.587,1,.839.187.207,1.094.108,1.3.3s.325.524.547.693.079.989.318,1.143.09,1.294.344,1.424c.222.113,1.315-1.417,1.551-1.319s.379.481.614.563c.282.094.54.639.832.7s.982-2.111,1.271-2.072.469.33.756.342.581,1.444.866,1.432.218-2.99.507-3.028.871,2.144,1.154,2.083,1,1.3,1.276,1.211.321-1.061.593-1.169.425-.558.688-.689.656-.058.914-.207-.137-1.337.116-1.5.4-.394.641-.578c.22-.164,2.366,2.05,2.583,1.87s-.846-1.9-.636-2.09-1.174-1.963-.975-2.165,1.59.781,1.785.568.478-.34.662-.563,1.617.488,1.794.256-1.521-1.833-1.351-2.08c.151-.222,3.031,1.329,3.177,1.1s-3.24-2.623-3.1-2.865,1.155.078,1.289-.164.954-.113,1.08-.365.657-.317.775-.572c.1-.227-2.3-1.543-2.206-1.778s1.923.285,2.019.051,1.969.2,2.057-.033c.109-.3.818-.44.917-.734s-.079-.74.007-1.032c.08-.264.321-.541.39-.8.075-.294-1.191-.959-1.131-1.247.058-.264-1.166-.785-1.121-1.039.017-.079.121-.141.265-.2a1.1,1.1,0,0,0,.277.125c.239.059,1.762-.244,2-.179.014-.347.37-1.587.365-1.921,0-.305.669-.718.648-1.014-.01-.277-1.065-.495-1.479-.743.323-.24.558-.431.56-.5a2.005,2.005,0,0,0-.752.238c-.119-.255-.6-.459-.646-.72-.053-.286-1.136-.33-1.2-.608-.014-.037.012-.1.055-.194-.335-.017-1.08-2.185-1.4-2.132s-.351,1.8-.675,1.836-.7-.773-1.027-.753-.593,1.252-.917,1.254c-.287,0-.554-.729-.833-.745-.327-.013-.885,2.5-1.2,2.471-.28-.026-.05-4.092-.325-4.131-.318-.053-.8,1.215-1.108,1.151-.268-.061-.963,1.52-1.229,1.454-.3-.089.163-2.607-.126-2.706s-1.382,1.9-1.66,1.785-.12-1.242-.376-1.377c-.272-.144.329-1.6.085-1.755s-1.093.722-1.312.547c-.194-.154-1.936,1.367-2.1,1.2-.2-.2.427-1.341.268-1.549-.149-.188.067-.666-.046-.857-.119-.206-.363-.371-.439-.579-.04-.107-.84-2.305-.874-2.412-.215.229-1,1.082-1.211,1.321s1.444,2.11,1.247,2.35-1.055-.041-1.247.209-.221.634-.4.887.985,1.43.808,1.694-.868.138-1.04.4-2.194-.584-2.35-.312.818,1.205.667,1.48c-.134.248-.581.347-.7.6s2.081,1.6,1.963,1.853-3.226-.826-3.338-.566,1.681,1.3,1.582,1.568.616.789.519,1.057.3.63.21.9c-.031.11-.408.1-.858.076-.841-.751-1.782-1.612-1.89-1.516-.215.2-.094.893-.293,1.1-.111.109-.071.386-.059.628-.51.058-1.163.076-1.206.25-.071.274.522.754.464,1.036-.03.126.46.3,1.086.562a1.041,1.041,0,0,0,.159-.588c.336.414.675.826.606.918,0,.01-.018.01-.027.017-.2-.089-.426-.182-.644-.273a.329.329,0,0,1-.018.029c-.013.012-.013.032-.022.041-.972-.4-2.588-1.23-2.7-1.061a18.16,18.16,0,0,0,2.708,1.8.574.574,0,0,1-.05.387c-.14.184-.985-.06-1.114.133a.287.287,0,0,0,0,.192m7.445-3.866c-.246.108-.944-.847-1.407-1.249,0-.339.022-.624.146-.683a8.317,8.317,0,0,0,.837-.644c.257,1.13.611,2.493.423,2.575Zm3.514-1.551c-.358.072-.785-.558-1.136-.468-.161.037-.444-.387-.734-.842a4.129,4.129,0,0,1,.462-.152c.328-.081.553-.967.89-1.034.14-.026.407.59.693,1.315-.014.648-.051,1.154-.175,1.181Zm3.256-1.567c-.28.026-.475.426-.724.577.273-.365.458-1.736.759-1.763.093-.006.2.136.313.339-.109.469-.217.837-.348.847Zm6.749,2.031c-.03-.007-.051-.058-.07-.137.345-.917.7-1.87.888-1.833.071.013.119.137.152.326-.376.813-.771,1.682-.969,1.645" transform="translate(-4093.482 -953.144)" fill="#fff"/>
        <path id="Path_456" data-name="Path 456" d="M4299.851,1051.356a.153.153,0,0,0-.01.044,8.257,8.257,0,0,0,.9,1.648c.24.075.527.021.75.145a.192.192,0,0,0,.154,0,9.824,9.824,0,0,0-1.794-1.837" transform="translate(-4269.153 -1032.07)" fill="#fff"/>
        <path id="Path_457" data-name="Path 457" d="M4313.126,1060.165c-.209-.125-.8.426-1.133.515a19.215,19.215,0,0,0,2.568,2.727c.224-.153,1.693-2.635,1.918-2.78-.245-.154-3.106-.313-3.354-.462" transform="translate(-4279.497 -1039.565)" fill="#fff"/>
        <path id="Path_458" data-name="Path 458" d="M4296.662,1063.394c.615.285,3.573,3.412,3.8,3.228.159-.126-1.386-2.455-2.426-4.131a1.039,1.039,0,0,1-.1-.038c-.222-.121-.934.807-1.271.941" transform="translate(-4266.447 -1041.521)" fill="#fff"/>
        <path id="Path_459" data-name="Path 459" d="M4295.88,1068.692c-.005.008-.011.012-.015.02a.015.015,0,0,1,0,0,.16.16,0,0,0,.114,0c-.051-.026-.086-.029-.1-.02" transform="translate(-4265.771 -1046.837)" fill="#fff"/>
        <path id="Path_460" data-name="Path 460" d="M4263.734,1262.533c.24.054.24,1.308.48,1.359s1.035-2.678,1.28-2.633c.225.041.4.279.626.318.278.043.911-2.745,1.19-2.707s-.1,5.426.176,5.458.655-.536.932-.516c.311.026.56,2.132.873,2.148.28.013.648.1.924.1s.644-.716.919-.716a9.472,9.472,0,0,0,.467-2.588c.2-.04.317-.074.236-.107a.41.41,0,0,0-.22.01,7.57,7.57,0,0,1,.167-.946c-.225.239-.666.644-.958.929.078-.767.938-3.3.726-3.39-.255-.113-1.312,1.661-1.557,1.532s-.444-.247-.677-.384.75-2.032.525-2.186-1.433,1.263-1.654,1.1-.38-.312-.594-.486c-.187-.157-.169-.457-.353-.625-.158-.149-1.625,1.073-1.782.915-.169-.173-1.121.315-1.538.358-.088,1.118-.375,3.012-.189,3.057Zm7.193.348c.071-.013.146-.029.226-.041a.586.586,0,0,1-.226.041Zm-.384.1a.012.012,0,0,0,0,.006s0,0,0-.006" transform="translate(-4238.36 -1208.313)" fill="#fff"/>
        <path id="Path_461" data-name="Path 461" d="M4137.632,1028.709a.07.07,0,0,1,.005-.044h0c.106-.406.156-.709.081-.745-.257-.116-1.323,1.6-1.582,1.492-.286-.123-.425-.531-.712-.643-.263-.1-1.28,1.976-1.54,1.882s-.111-1.174-.378-1.256.855-4.607.6-4.687-2.334.84-2.592.771c-.009.281,1.343,1.979,1.32,2.265s-.554.518-.59.8-3.336.03-3.382.319c-.042.26-.181.372-.237.639s3.715,1.286,3.649,1.556.591.717.521.977-1.434.165-1.514.425c-.071.233-1.318.06-1.4.291s1.179.9,1.1,1.123c-.1.266,1.088,1.036.986,1.3s-.741.32-.85.577-.278.5-.394.747.835,1.071.712,1.312c-.145.274-.622.441-.771.7s-1.6-.206-1.762.052-2.17-.75-2.339-.5,1.959,2.085,1.781,2.321-2.764-1.467-2.943-1.244-.038.591-.229.808.2.858,0,1.058-.942-.3-1.146-.114,3.515,4.96,3.3,5.134-2.163-1.675-2.383-1.518-.264.7-.486.846-.406.544-.633.677-2.728-4.142-2.963-4.028,1.88,5.412,1.645,5.508-1.5-2.363-1.736-2.281-.159,1.366-.4,1.428c-.275.07-.843-1.138-1.121-1.089-.245.039-.121,3.943-.368,3.965-.275.026-.864-6.785-1.136-6.788-.248,0-.217-.124-.465-.144s-1.118,5.5-1.357,5.458-.189-1.99-.427-2.05c-.214-.055.419-2.743.206-2.815-.255-.087-1.343,2.325-1.58,2.221s-.521-.14-.743-.258c-.105-.057-.032-.4.071-.78-.053.033-.108.063-.167.1.068-.084.141-.191.22-.307.134-.47.267-.948.151-1.026-.144-.094-.854.651-1.365,1.1.292.174.575.339.7.4-1.05.6-2.627,1.4-2.556,1.578.111.276,2.491-.37,2.612-.094s-3.843,2.433-3.712,2.7,1.255.157,1.385.417,3.683-1.252,3.827-.993-.116.714.033.969,1.452-.25,1.613,0-1.661,1.767-1.5,2.013c.152.219-1.572,1.807-1.42,2.024s3.576-1.987,3.737-1.772-2.172,2.4-2.006,2.607,1.486-.514,1.664-.312.07.658.248.857-.7,1.438-.51,1.632,1.675-.867,1.867-.68-.121.916.076,1.1-.84,1.8-.638,1.981,4.293-4.2,4.5-4.023-3.833,5.6-3.621,5.763,4.411-4.869,4.628-4.71-2.87,4.878-2.647,5.031,2.993-3.42,3.218-3.271-.033.97.194,1.116,1.5-1.549,1.732-1.409-1.4,3.483-1.159,3.607,2.074-2.811,2.312-2.686-1.81,4.844-1.57,4.959,1.256-1.333,1.506-1.223.689-.21.937-.1.792-.545,1.054-.448.274.8.529.885.968-1.232,1.227-1.146.754-.784,1.017-.708.636-.527.9-.459c.053.016.069.17.064.417.764-.941,3.374-3.419,3.232-3.6-.177-.226-4.212,2.481-4.379,2.248s1.613-1.777,1.465-2.016-3.885,1.53-4.02,1.284,4.913-3.165,4.792-3.416c-.131-.276-2.226.4-2.344.119s-3.129.424-3.226.137,3.574-1.771,3.5-2.06.939-.751.88-1.045-1.62-.238-1.666-.531c-.037-.268,1.022-.622,1-.892s-2.133-.354-2.148-.629-.861-.565-.861-.838-1.181-.667-1.168-.94,2.467-.429,2.491-.7-2.1-.859-2.064-1.131,1.5-.379,1.552-.653.936-.381,1-.651,3.506.416,3.579.145-2.417-1.222-2.329-1.493.934-.2,1.035-.467-1.974-1.379-1.863-1.64-1.378-1.308-1.256-1.567,5.09,1.909,5.222,1.653.185-.422.327-.676-3.4-2.678-3.243-2.924c.137-.218,4.122,2.092,4.268,1.87s-3.077-2.737-2.915-2.952,2.084.906,2.248.694.856.076,1.024-.134-3.671-3.866-3.492-4.068,2.451,1.415,2.639,1.221c.162-.18,2.256,1.53,2.426,1.356s-2.908-3.644-2.729-3.814c.164-.157.639-.075.808-.231.229-.208.5-.466.735-.668a10.168,10.168,0,0,1,.59-2.552" transform="translate(-4106.982 -1009.504)" fill="#fff"/>
        <path id="Path_462" data-name="Path 462" d="M4523.687,1150.452c-.005,0-.014.013-.032.029a.048.048,0,0,0,.032-.029" transform="translate(-4459.687 -1116.497)" fill="#fff"/>
        <path id="Path_463" data-name="Path 463" d="M4513.991,1151.68c.021-.01.7-.853.844-1.031a6.072,6.072,0,0,1-1.538.079c.313.546.587,1,.694.951" transform="translate(-4450.867 -1116.667)" fill="#fff"/>
        <path id="Path_464" data-name="Path 464" d="M4498.867,1159.21c.275.152.53.294.7.412,0-.361-.018-.8-.037-1.248-.339-.057-.7-.121-1.042-.174.116.255.244.632.375,1.011" transform="translate(-4438.261 -1123.1)" fill="#fff"/>
        <g id="Group_839" data-name="Group 839" transform="translate(24.323 15.739)">
          <path id="Path_465" data-name="Path 465" d="M4332.469,1050.979c-.186.118.2,2.238.008,2.365.1.066.7-.385,1.3-.839-.648-.869-1.2-1.588-1.306-1.525" transform="translate(-4321.176 -1047.612)" fill="#fff"/>
          <path id="Path_466" data-name="Path 466" d="M4293.957,1049.294c.019-.049-.075-.137-.24-.249,0,.527-.021.889-.1.9-.139.017-.366-.648-.6-1.308-.6-.33-1.313-.7-1.619-.927.068-.022.116-.111.151-.228a10.842,10.842,0,0,1,1.092.144c-.085-.19-.164-.31-.225-.314-.081,0-.158-.086-.229-.207.06.013-1.02-.187-.966-.173.517-.019.938.008.851-.056-.051-.1-.071-.133-.125-.241a3.076,3.076,0,0,1,.039-.551c.032-.181.9-.214,1.632-.272,0,.563.038,1.293.065,1.988.739.12,1.363.207,1.394.1.081-.266-1.281-.931-1.213-1.2.029-.1.468-.109.977-.109-.158-.281-.328-.587-.486-.862.158-.035.258-.079.265-.141.05-.309-.171-.711-.134-1.023s-1.75-.834-1.722-1.143,1.968-.5,1.984-.813c.01-.3-2.116-.535-2.107-.832-.1-.253,1.621-1.139,1.5-1.388s-2.8.8-2.929.555,2.1-1.8,1.954-2.035-2.369.862-2.524.637.8-1.194.631-1.415-.761-.087-.936-.3.871-1.507.68-1.72c-.157-.173-1.4.677-1.572.508-.2-.2.155-.991-.056-1.181-.237-.216-.384-.562-.626-.759s.109-1.266-.144-1.447-.477-.569-.741-.732-1.471,1.143-1.737.99-.042-1.314-.316-1.449c-.243-.124-.3-.823-.561-.931-.28-.118-.714-.1-1-.205-.261-.1-1.2,1.727-1.459,1.647s-.112-1.666-.38-1.735c-.187-.046-.627,1.022-.968,1.638a2.835,2.835,0,0,0-.55.032c-.1-.415-.164-1.022-.347-1.048s-.435.7-.667,1.215c-.173.03-.347.06-.521.092-.146-.663-.234-1.948-.441-1.957-.275-.016-.59,1.45-.866,1.45-.2,0-.379-.163-.566-.258.147-.26.74-.636.692-.844-.031-.121-.419.365-.781.81-.021-.007.061.153.04.149-.025.128-.091-.033-.307.136-.036.071-.256.37-.286.432a.922.922,0,0,1-.081-.079c-.025,0-.045-.02-.052-.062.052-.041.1-.084.157-.126.119-.234.236-.473.38-.477.027,0,.053,0,.083.007,0-.016,0-.031,0-.04-.021-.071-.22-.165-.5-.267.153-.76.382-1.7.216-1.67-.286.053-.988-1.657-1.275-1.6a11.389,11.389,0,0,0,.185,2.98,9.485,9.485,0,0,1-1.042-.363c.287.3.767.982,1.137,1.437.025.4.021.667-.05.685-.28.074-1.017-1.615-1.3-1.527s-1.381-2.166-1.667-2.063-.1,1.574-.379,1.683c-.249.1-.091,1.183-.338,1.295s-1.416-1.688-1.665-1.566-1.22-1-1.462-.867a10.663,10.663,0,0,0,.957,2.467c-.31.277-.652.593-.828.729.179.238.364.491.553.742.1-.18.339-.509.567-.819.122.273.245.547.355.808a3.13,3.13,0,0,0-.037.558c-.087.089-.176.184-.271.279.2.267.652.84.551.716-.2.473-.364.876-.273.951.072.05.273-.062.53-.246a.413.413,0,0,1-.121.321c-.242.191-.81-.165-1.044.03-.074.064-.4-.18-.827-.533.372-.376.8-.834,1.184-1.238-.2-.263-.406-.543-.615-.827-.324.57-.687,1.2-.977,1.714-.882-.757-1.921-1.714-2.058-1.592-.2.168-.106.722-.3.9-.228.212.828,1.791.61,2s-.474.364-.684.582-.434.394-.63.615-1.817-.767-2.007-.544,2.332,2.639,2.15,2.87-2.293-1.034-2.462-.8,2.412,2.345,2.254,2.585-.218.411-.369.65-3.344-1.39-3.483-1.147,1.163,1.271,1.033,1.517-3.859-1.384-3.98-1.134c-.134.281,3.727,2.518,3.609,2.8s-4.208-.988-4.313-.7,4.285,2.163,4.2,2.453-4.811-.775-4.978-.526a2.618,2.618,0,0,0-.338.985c-.065.287,5.733,1.761,5.682,2.047s-2.438.14-2.478.431-1.093.476-1.119.762-2.5.533-2.514.821,1.373.693,1.379.982,2.934.438,2.952.718-2.291.792-2.259,1.071.42.552.468.832,1.7.216,1.756.487-1.64,1.01-1.564,1.277,2.142-.109,2.238.152-3.052,1.8-2.948,2.051,3.68-1,3.8-.756c.109.224.775.063.89.279s-.291.63-.16.844-1.653,1.615-1.514,1.821,2.073-.893,2.22-.693,1.283-.516,1.443-.324.163.342.333.526c.152.167-2.509,2.961-2.349,3.124.2.207,1.949-1.212,2.16-1.018s.515.163.742.343-2.13,3.808-1.9,3.968.707.251.945.4,1.948-2.005,2.192-1.863.28.7.533.827,1.317-1.58,1.575-1.469c.23.1.774-.838,1.006-.751s-1.447,5.722-1.208,5.8c.216.07,1.373-2.037,1.592-1.976.288-.016.909,1.654,1.2,1.629s.115-4.451.4-4.482,1.208,4.516,1.494,4.473.663-.008.939-.059.511-.785.79-.844-.343-4.191-.068-4.259,1.643,4.126,1.917,4.051.028-2.142.3-2.221.233-1.154.5-1.242,1.413,2.279,1.681,2.182-1.058-4.364-.791-4.468c.094-.04.261.1.442.3-.157-.047-.263-.064-.281-.032-.1.168,1.282,2.535,1.173,2.7a5.425,5.425,0,0,0-.122-1.985.1.1,0,0,0,.047-.005c.26-.111,1.238,1.4,1.495,1.28s.283-.363.353-.586c0,0,.072-.177.093-.223.055.032.186.086.28.139,0,0,.226-.008.4-.018.5.4,1.221,1.121,1.383,1.016s-.368-1.261-.738-2.165c.652.343,1.222.629,1.282.518s-.7-.637-1.531-1.19c-.074-.227-.1-.385-.05-.419.232-.159.545-.178.772-.347s2.655,2.478,2.876,2.3a11.116,11.116,0,0,0-1.482-2.6c.382-.132.986-.225,1.044-.436.049-.177-1.126-.672-1.991-1.089-.219-.373-.337-.635-.283-.677.2-.164.089-.576.223-.788-.455.1-1.409.17-2.06.259-.535-.208-1.031-.407-1.011-.55a15.945,15.945,0,0,1,3.379-.076,1.417,1.417,0,0,0-.042.241c0,.027-.043.057-.1.08.548.229,2.678,2.19,2.857,2.018.2-.191-1.292-2.09-1.095-2.29s1.691.887,1.88.686c.211-.226.523-.375.724-.6.184-.213-2.495-2.78-2.316-2.995s4.149,2.633,4.323,2.413-3.324-3.147-3.163-3.375.022-.543.175-.77,2.706,1.185,2.853.946-.314-.815-.173-1.054,1.219.08,1.354-.16-2.412-1.861-2.284-2.108,4.254,1.516,4.377,1.268.217-.563.328-.815.867-.3.973-.558-1.914-1.363-1.817-1.627Zm-22.265-11.277c-.218-.17,1.5-2.748,1.666-3.4.228.294-.128,1.327.138,1.564a.329.329,0,0,0,.254.044c-.957.93-1.937,1.885-2.058,1.791Zm1.912.336c-.129.079-.216.111-.246.083-.152-.132.847-1.583,1.533-2.679a.344.344,0,0,1,.265.039c.157.144-.833,1.493-1.552,2.557Zm4.425-2.452s0,0-.006-.005c-.1-.108-.415-.012-.746.1,0,0-.011,0-.011-.008-.043-.1.534-.448,1.292-.868-.068.233-.189.478-.124.675-.145.038-.281.079-.406.1Zm-.068,2.59a.627.627,0,0,1-.051-.327c.349-.048.61-.053.666.049.158.293-.321.942-.317,1.322a.423.423,0,0,1-.316-.09.094.094,0,0,0-.078-.014c.017-.306.205-.734.1-.94Zm-.2,3.657c-.056-.08.165-.367.492-.745q.2.259.409.507c-.455.193-.831.329-.9.238Zm5.894,21.237c-.088.209-.491.374-.662.565a.881.881,0,0,1-.292.015c.006-.285-.845-1.51-.8-1.755.806.479,1.812,1.039,1.754,1.175Zm-1.995-13.747c.042.119-.24.351-.574.6-.369.024-.65.018-.68-.078-.1-.291.541-.759.431-1.056-.077-.2,1.187-.93,1.849-1.428.485,0,.961-.011,1.017.131.116.3-2.146,1.531-2.042,1.834Zm3.743,6.78c.01.268-.136.654-.14.919,0,.009,0,.016,0,.031a5.949,5.949,0,0,1-1.982-.565c.015-.282.514-.48.511-.767s-1.625-.412-1.642-.7a6.159,6.159,0,0,1,1.949-.517c.352.226,1.77.4,1.787.638.023.274-.492.692-.482.964Zm1.646-9.294c-.28-.154-.537-.625-.817-.8-.024-.019-.043-.038-.07-.064.449-.558.922-1.184,1.074-1.116.285.12.238.784.515.879.044.016.072.074.092.156-.4.579-.71.99-.793.942Zm2.364-.059c-.094-.032-.014-.474.125-1.053a1.527,1.527,0,0,0,.434.218c-.25.513-.463.871-.559.835" transform="translate(-4256.731 -1028.334)" fill="#fff"/>
        </g>
        <g id="Group_840" data-name="Group 840" transform="translate(36.975)">
          <path id="Path_467" data-name="Path 467" d="M4343.675,922.609c.083.215-.92.717-.911.956s.521.467.47.711c-.029.206-.229.395-.31.617a4.478,4.478,0,0,1-.24.652c-.085.169-.493.456-.6.629.224.089.584.513.827.594.214.07.639-.49.86-.425s.243.955.473,1.01c.192.041.552-.629.749-.587.249.055.509.024.747.068s.455.274.685.309.438.428.662.456c.209.026.468-.5.66-.486.227.015.432.758.639.76.182.007.409-.553.577-.566.016-.229-.8-.684-.743-.9s1.431,0,1.517-.206.325-.192.441-.368-.325-.709-.187-.856a10.773,10.773,0,0,1,1.346-.56c-.231-.122-1.053-.609-1.287-.724s-.894.68-1.134.57c-.212-.1-.339-.356-.559-.444s-.054-1.121-.272-1.2-.412-.288-.639-.37-.878,1.1-1.1,1.033-.192-.946-.419-1.018-.633.508-.863.448-.208-1.121-.437-1.175-.59.41-.824.362-.347-.768-.577-.811c-.211-.04-.509.384-.719.354-.086-.016.088.078,0,.065.193.176-.051.628.086.819s1.008.074,1.085.283" transform="translate(-4342.086 -921.084)" fill="#fff"/>
        </g>
      </g>
    </g>
  </g>
</svg>
